<svg width="324" height="324" viewBox="0 0 324 324" fill="none" xmlns="http://www.w3.org/2000/svg">
<path d="M181.323 310.262C172.996 312.2 164.45 313.033 155.905 312.739C142.866 312.082 137.254 313.729 128.837 313.399C120.419 313.068 94.6711 313.237 86.4188 313.561C78.3859 313.857 70.3433 313.749 62.3213 313.237C61.6603 312.913 73.7099 276.759 73.7099 276.759L166.965 278.08C166.965 278.08 180.003 302.835 181.323 310.262Z" fill="#D8E9FF"/>
<path d="M121.813 115.919C120.942 115.584 120.402 115.595 120.43 116.77C120.509 120.054 120.475 121.115 124.42 122.135C124.847 122.243 125.292 122.258 125.726 122.181C126.159 122.103 126.571 121.933 126.934 121.683C128.142 120.854 126.257 117.633 121.813 115.919Z" fill="#F4929A"/>
<path d="M132.405 105.571C128.226 106.867 133.006 123.365 134.419 125.567C134.803 126.166 135.271 125.78 140.977 125.081C141.583 125.006 141.641 124.757 141.139 123.683C139.333 119.762 137.875 108.657 137.502 105.053C137.419 104.207 136.418 104.328 132.405 105.571Z" fill="white"/>
<path d="M226.281 56.5923C209.977 45.8857 191.321 68.9723 199.157 106.65C203.254 126.345 212.952 151.349 231.071 142.438C240.126 137.986 243.092 128.047 244.478 118.05C247.036 99.6065 243.388 85.0022 236.741 69.8018C234.443 64.5756 230.841 60.0272 226.281 56.5923ZM212.953 132.292C191.939 97.7452 203.115 52.9246 222.664 59.5213C236.26 64.1091 244.574 95.3718 241.582 116.006C237.47 144.366 219.526 143.094 212.953 132.292Z" fill="white"/>
<path d="M203.439 86.0219C203.228 87.5334 202.59 88.3807 208.206 88.797C214.233 89.2458 218.333 87.0847 221.004 91.5672C223.957 97.1812 224.848 103.653 223.522 109.855C222.448 114.479 218.349 113.398 214.437 114.898C212.364 115.769 210.339 116.751 208.372 117.84C208.263 117.94 208.182 118.066 208.135 118.206C208.089 118.346 208.079 118.496 208.106 118.641C210.698 124.861 214.818 135.605 222.312 137.287C244.029 142.157 245.538 87.3487 229.449 67.0469C224.45 60.7289 219.435 59.2239 215.031 61.4919C212.256 62.924 209.966 65.3605 207.267 70.4246C205.162 74.3758 204.467 78.685 203.439 86.0219ZM209.433 72.0333C207.733 71.9701 208.315 70.8993 209.133 70.7502C218.889 68.9796 223.883 79.8514 227.04 89.2312C230.308 98.9301 230.893 116.977 225.084 127.696C224.293 129.181 222.972 130.313 221.384 130.868C219.797 131.423 218.059 131.36 216.515 130.692C216.258 130.577 215.705 130.507 215.952 129.895C216.06 129.629 216.496 129.485 217.68 129.676C218.515 129.81 219.368 129.775 220.189 129.573C221.01 129.371 221.782 129.006 222.459 128.5C226.533 125.453 228.853 112.146 227.151 98.82C226.191 91.8666 224.012 85.1371 220.714 78.9409C219.234 76.1513 216.026 72.4869 212.577 72.124C211.529 72.0268 210.476 71.9965 209.425 72.0333H209.433Z" fill="#E5DADB"/>
<path d="M220.376 93.8399C218.467 88.7255 209.428 86.8933 215.201 107.864C215.598 109.28 216.478 110.513 217.688 111.349C221.594 114.072 224.63 105.246 220.376 93.8399Z" fill="white"/>
<path d="M203.908 89.8131C203.172 89.5587 203.307 89.596 203.33 93.4321C203.375 100.785 205.598 109.478 207.056 115.704C207.43 117.296 207.757 114.943 215.711 112.762C216.623 112.511 214.53 111.968 213.534 108.299C208.556 89.9524 215.169 90.5356 212.458 90.5032C205.105 90.4141 205.675 90.4222 203.908 89.8131Z" fill="white"/>
<path d="M139.466 103.492C139.264 111.183 140.95 118.806 144.377 125.694C145.846 128.636 163.779 122.292 198.734 132.919C217.839 138.73 201.828 141.103 195.669 98.0196C194.87 89.8577 195.39 81.6205 197.21 73.624C198.324 68.7138 200.668 68.73 187.976 77.674C150.337 104.198 139.601 98.0763 139.466 103.492Z" fill="white"/>
<path d="M53.622 94.0219C53.5847 96.7532 56.2723 101.623 57.8842 104.254C58.7088 105.602 59.4184 105.666 62.8349 107.954C64.3415 108.963 66.1819 110.222 70.3372 108.425C71.1018 107.989 71.1083 107.691 71.0046 106.28C70.9835 105.979 70.4392 105.861 68.2862 105.198C66.6889 104.712 67.3839 103.543 67.4989 100.986C67.5362 100.142 66.4297 100.353 65.9551 100.158C63.7502 99.2512 62.0379 98.3408 60.9719 98.0881C59.0426 97.607 57.3396 96.4723 56.1524 94.8772C55.8511 94.4836 54.108 94.1498 53.622 94.0219Z" fill="#A59EB5"/>
<path d="M53.751 90.6165C53.7062 90.8222 53.7294 91.0368 53.817 91.2281C53.9047 91.4195 54.0521 91.5772 54.237 91.6776C54.7796 92.0267 55.3679 92.2993 55.985 92.4876C57.8545 92.9007 57.9922 95.0699 61.7328 96.0873C62.8782 96.5556 63.9938 97.0939 65.0732 97.6992C65.4053 97.8369 67.9665 98.7003 68.1058 98.2953C69.2625 94.9047 69.2609 95.9641 68.843 91.9773C68.783 91.4168 67.5972 90.6343 66.4583 90.043C63.1892 88.342 58.5754 85.8116 57.4268 83.0657C57.2519 82.6445 57.1352 82.5797 56.8598 83.0187C55.7452 85.4487 53.9454 87.9322 53.751 90.6165Z" fill="#A59EB5"/>
<path d="M58.6824 78.1331C58.2789 78.6344 58.0628 79.2607 58.0714 79.9041C58.0799 80.5476 58.3127 81.1679 58.7294 81.6582C60.1518 83.8501 61.4575 84.6715 64.9761 86.8034C69.9026 89.789 69.7616 90.0596 70.0467 89.1653C71.9178 83.3106 72.0847 82.0714 74.0967 80.9114C75.5547 80.0642 73.7339 79.6867 73.0681 78.1396C71.9584 75.5622 69.7503 76.471 67.8938 73.8871C66.4634 72.362 64.9136 70.9535 63.2589 69.6751C62.4749 71.7325 62.5478 73.0204 61.0703 74.7247C59.7597 76.5585 59.1701 77.6407 58.6824 78.1331Z" fill="#A59EB5"/>
<path d="M64.519 66.9077C64.6403 67.475 64.8725 68.0128 65.2022 68.4901C65.5319 68.9674 65.9527 69.3749 66.4403 69.6892C69.8164 71.86 69.0437 73.284 71.5061 74.0422C73.7384 74.729 73.7481 76.0639 76.0745 78.5166C76.4973 78.9621 76.8715 78.2493 82.4216 73.0637C83.0283 72.4076 83.3915 71.5632 83.4505 70.6716C83.5094 69.7799 83.2606 68.895 82.7456 68.1648C81.9988 67.3548 81.0738 66.7068 80.2897 65.9195C78.3673 63.1865 76.009 60.7877 73.3091 58.819C72.9948 58.5744 72.3825 57.4793 71.7005 57.9507C68.538 60.2292 66.0555 63.3255 64.519 66.9077Z" fill="#A59EB5"/>
<path d="M73.4269 56.0159C73.9227 56.6929 74.5024 57.3042 75.1522 57.8352C77.1617 59.0892 78.913 60.7157 80.3119 62.6271C81.1219 63.7611 84.2696 66.3061 84.4186 66.8586C84.7426 68.0428 85.2464 67.9715 86.2006 67.3786C89.8942 65.1009 90.1048 63.9215 92.4133 61.5466C93.5473 60.3753 92.5542 60.3543 89.635 56.9458C82.1069 48.1605 82.6917 47.7215 80.7088 48.7761C76.9715 50.7639 75.9654 50.4577 73.4269 56.0159Z" fill="#A59EB5"/>
<path d="M83.2072 45.9369C82.5592 46.4504 82.8978 46.2479 85.101 48.3669C88.3587 51.8206 91.436 55.4401 94.3204 59.2111C94.4804 59.0562 94.6213 58.8828 94.74 58.6944C95.989 55.976 98.419 54.3204 100.426 52.2775C100.89 51.8077 100.702 51.5599 98.1501 48.0947C94.2427 42.7908 93.7761 41.6892 91.6831 40.5649C88.6256 41.9599 85.7738 43.7673 83.2072 45.9369Z" fill="#A59EB5"/>
<path d="M94.2094 39.143C93.6068 39.331 95.9914 41.505 99.1925 45.8045C102.271 49.9468 102.024 51.1067 103.016 50.9221C109.387 49.733 107.676 50.057 110.62 48.3122C112.308 47.3127 112.773 48.0077 110.077 44.3141C109.643 43.7179 109.083 43.2076 108.666 42.5985C106.056 38.785 106.606 38.2164 104.25 37.8827C102.016 37.2107 99.6307 37.2271 97.4057 37.9297C96.6183 38.1743 95.4179 38.7656 94.2094 39.143Z" fill="#A59EB5"/>
<path d="M108.515 37.6279C108.127 37.683 108.046 37.7899 108.224 38.2386C109.557 41.6406 111.511 43.1165 112.517 44.6619C112.894 45.0889 113.229 45.5524 113.515 46.0454C113.869 46.964 114.511 47.0644 115.324 46.938C115.958 46.8408 121.232 48.153 123.076 47.3932C122.349 43.9912 121.294 43.4891 119.512 40.7513C119.371 40.5358 118.807 38.2548 118.054 37.7753C115.891 36.3951 114.002 36.8438 108.515 37.6279Z" fill="#A59EB5"/>
<path d="M120.671 38.0409C121.214 40.0027 121.133 40.6944 122.255 41.6875C124.445 43.6315 124.002 46.5701 125.171 45.9205C127.104 45.0749 127.763 44.2341 131.136 44.8918C131.807 44.9453 132.178 45.3308 132.178 44.4625C132.249 43.5297 132.039 42.5969 131.574 41.785C131.11 40.973 130.412 40.3194 129.571 39.9087C126.879 38.3539 123.761 37.6994 120.671 38.0409Z" fill="#A59EB5"/>
<path d="M47.1408 64.9098C46.133 67.9334 45.6546 71.1082 45.7265 74.2945C46.2384 78.3121 49.0799 79.7539 49.7684 85.4028C49.795 86.1847 50.0059 86.9493 50.384 87.6342C50.7621 88.3191 51.2966 88.9051 51.9441 89.3443C53.4021 84.5556 55.1565 82.7687 55.6538 80.4732C56.1868 76.5317 58.6185 75.1515 59.8756 72.9499C60.4928 71.8677 61.8406 66.9559 63.1998 64.3234C65.8453 59.1977 68.6398 58.0281 70.1334 56.596C72.7529 54.0817 72.322 51.2597 76.5842 48.6272C78.9268 47.1805 78.5283 48.2319 80.7201 45.9493C83.3121 43.2504 81.5625 44.1592 88.5074 39.9877C92.9948 37.2904 98.8317 34.7665 104.017 35.9134C106.564 36.4772 107.006 35.9134 113.447 35.0014C113.843 34.9447 113.971 34.5899 113.501 34.0699C111.588 31.9509 108.983 32.053 106.551 32.053C102.425 33.187 98.6584 26.383 90.803 30.757C88.0296 32.3025 86.51 31.567 78.2593 30.7942C74.5333 30.4459 74.5009 33.6973 69.2764 35.6866C65.6962 37.0507 64.6092 40.0072 63.2824 43.6246C62.5858 45.5249 60.2563 46.5228 58.3317 47.153C55.4157 48.1072 55.7041 50.7688 54.677 53.8485C51.8712 62.253 48.4368 60.7626 47.1408 64.9098Z" fill="#A59EB5"/>
<path d="M76.129 136.919C67.9464 139.769 65.6524 144.927 67.01 150.564C67.2805 151.698 67.7244 152.779 68.0792 153.885C68.212 154.303 68.4242 154.422 68.826 154.196C92.0374 141.102 87.132 142.001 88.6483 136.245C88.7666 135.796 88.6985 135.581 88.4863 135.49C87.7651 135.384 87.0346 135.356 86.3074 135.408C85.6951 135.448 85.2026 135.492 84.9904 135.762C83.3373 138.587 82.0122 141.591 81.0408 144.716C80.6245 145.897 80.098 146.012 79.5828 145.96C78.303 145.636 77.4655 141.301 76.8969 138.776C76.6036 137.501 76.8871 136.655 76.129 136.919Z" fill="#A8CAEF"/>
<path d="M119.866 140.777C119.756 140.763 119.885 140.819 119.992 140.79C121.99 140.249 123.88 141.323 125.837 141.158C129.221 140.871 127.878 139.995 133.84 141.453C134.013 141.466 134.186 141.453 134.355 141.414C132.72 135.942 127.617 134.581 122.03 134.359C119.896 134.27 120.276 135.242 119.866 140.777Z" fill="#A8CAEF"/>
<path d="M110.705 143.136C108.986 143.022 107.063 143.651 107.112 145.404C107.157 147.024 108.118 147.468 109.599 147.476C112.716 147.495 113.526 146.099 113.325 144.921C113.09 143.541 112.085 143.227 110.705 143.136Z" fill="white"/>
<path d="M166.728 160.674C166.422 160.596 165.616 161.103 165.638 161.988C165.669 162.314 165.82 162.617 166.061 162.839C166.303 163.06 166.618 163.184 166.946 163.187C167.184 163.131 168.326 162.906 168.319 161.985C168.313 161.063 166.976 160.737 166.728 160.674Z" fill="white"/>
<path d="M168.642 164.107C168.439 164.32 168.3 164.586 168.243 164.874C168.186 165.162 168.212 165.461 168.318 165.735C168.425 166.009 168.607 166.246 168.844 166.42C169.081 166.594 169.363 166.696 169.656 166.716C169.928 166.713 170.195 166.646 170.436 166.52C170.677 166.395 170.885 166.214 171.042 165.993C171.2 165.772 171.304 165.517 171.344 165.248C171.385 164.98 171.362 164.706 171.276 164.448C171.048 163.226 169.614 163.02 168.642 164.107Z" fill="white"/>
<path d="M174.61 163.905C174.135 163.969 173.701 164.209 173.394 164.577C173.086 164.945 172.927 165.414 172.948 165.893C173.092 166.336 173.368 166.724 173.739 167.005C174.111 167.285 174.56 167.445 175.025 167.461C177.261 167.403 177.107 163.834 174.61 163.905Z" fill="white"/>
<path d="M179.01 159.408C176.756 159.376 177.189 162.885 178.702 162.853C178.95 162.877 179.2 162.85 179.437 162.774C179.674 162.699 179.894 162.576 180.082 162.413C180.27 162.25 180.423 162.051 180.532 161.827C180.641 161.603 180.704 161.36 180.716 161.111C180.792 159.972 180.173 159.423 179.01 159.408Z" fill="white"/>
<path d="M181.678 155.119C180.595 154.818 179.991 155.395 180.022 156.5C180.102 156.788 180.265 157.046 180.491 157.242C180.717 157.438 180.996 157.564 181.292 157.603C181.609 157.627 181.923 157.531 182.171 157.334C182.42 157.137 182.586 156.853 182.634 156.54C182.683 156.226 182.611 155.905 182.434 155.642C182.257 155.379 181.987 155.192 181.678 155.119Z" fill="white"/>
<path d="M181.719 150.602C180.834 150.602 180.619 150.963 180.681 151.784C180.723 152.354 181.329 152.648 181.962 152.646C183.264 152.644 183.201 150.608 181.719 150.602Z" fill="white"/>
<path d="M180.662 146.763C180.491 146.833 180.345 146.952 180.243 147.106C180.141 147.26 180.088 147.441 180.09 147.625C180.093 147.81 180.15 147.989 180.256 148.141C180.361 148.292 180.51 148.408 180.682 148.474C180.855 148.54 181.043 148.552 181.223 148.51C181.402 148.467 181.565 148.372 181.689 148.235C181.814 148.099 181.895 147.929 181.921 147.746C181.948 147.564 181.919 147.377 181.838 147.211C181.739 146.998 181.561 146.831 181.341 146.748C181.121 146.664 180.878 146.669 180.662 146.763Z" fill="white"/>
<path d="M144.526 80.8084C131.916 81.0789 133.797 78.3184 134.181 89.9938C134.221 91.2363 134.429 90.7633 144.259 90.6645C145.957 90.6483 145.657 89.1903 145.522 84.1359C145.441 81.0433 145.273 80.7922 144.526 80.8084Z" fill="white"/>
<path d="M110.6 82.5966C110.114 83.8392 110.565 89.9417 110.68 90.8667C110.816 91.9651 111.086 92.268 111.867 92.2842C113.391 92.315 119.04 92.1967 120.74 92.0833C126.39 91.7059 126.491 91.6135 126.46 90.418C126.189 79.7778 129.481 80.4679 112.118 81.7008C111.281 81.7591 110.824 82.0329 110.6 82.5966Z" fill="white"/>
<path d="M125.972 107.292C123.542 107.465 121.87 108.912 122.775 109.398C123.393 109.722 125.52 109.966 127.543 110.58C129.822 111.27 129.059 111.74 129.302 109.495C129.387 108.711 129.719 108.209 129.066 107.826C128.092 107.405 127.031 107.221 125.972 107.292Z" fill="white"/>
<path d="M152.26 199.503C147.766 198.964 141.794 201.065 141.861 202.013C142.66 213.537 142.146 207.197 153.006 207.931C155.911 208.127 156.352 206.755 161.069 207.309C164.016 207.451 163.985 207.56 164.116 205.365C164.35 201.339 164.105 200.1 163.088 199.724C157.999 197.841 156.248 199.983 152.26 199.503ZM153.758 205.402C152.209 205.337 152.031 202.309 154.226 202.324C154.571 202.369 154.884 202.546 155.1 202.818C155.316 203.091 155.418 203.436 155.383 203.782C155.321 204.19 155.129 204.568 154.837 204.859C154.545 205.151 154.167 205.341 153.758 205.402Z" fill="#D4F2E2"/>
<path d="M143.685 211.694C143.492 211.97 143.832 212.597 143.871 213.076C144.416 219.966 144.929 224.799 147.732 230.127C148.286 231.183 151.539 230.569 151.569 230.566C153.56 230.478 152.435 229.158 151.732 226.098C150.902 222.472 151.231 221.724 150.523 213.374C150.457 212.587 151.268 211.772 151.906 212.516C153.917 214.855 151.798 219.937 154.547 228.792C155.347 231.369 156.523 227.846 159.329 227.684C160.12 227.638 158.257 222.553 158.223 214.677C158.207 211.113 157.899 212.409 158.85 211.004C160.07 212.12 159.58 210.389 160.235 217.661C160.237 217.683 160.237 217.706 160.235 217.729C161.576 227.82 161.106 227.786 163.05 227.227C167.666 225.897 165.629 224.232 164.184 215.793C163.977 214.584 164.184 213.31 164.097 212.067C163.925 209.517 163.899 209.666 161.314 209.598C159.199 209.538 157.086 209.742 155.022 210.204C152 210.886 150.823 209.128 145.044 211.28C144.592 211.455 143.899 211.39 143.685 211.694Z" fill="#D4F2E2"/>
<path d="M76.7981 226.064C75.8391 225.915 76.0756 225.722 77.276 232.764C78.214 238.272 78.41 240.263 79.3237 242.217C80.1029 243.885 83.743 244.031 85.8555 243.119C86.6525 242.776 86.8469 243.205 85.0455 233.605C84.4728 231.75 84.0396 229.855 83.7495 227.935C83.7295 227.819 83.7327 227.701 83.7587 227.587C83.7848 227.472 83.8333 227.364 83.9014 227.269C83.9695 227.174 84.0559 227.093 84.1555 227.031C84.2551 226.969 84.366 226.928 84.4817 226.909C84.5975 226.89 84.7158 226.895 84.8298 226.922C84.9437 226.95 85.0512 226.999 85.1458 227.069C85.2404 227.138 85.3204 227.225 85.381 227.325C85.4417 227.426 85.4818 227.537 85.4991 227.653C88.2725 238.358 87.7882 242.233 88.9611 242.291C95.1171 242.602 94.8708 242.199 93.0564 232.479C92.3763 230.336 92.0411 228.098 92.0633 225.85C92.0709 225.744 92.1006 225.64 92.1505 225.546C92.2004 225.452 92.2695 225.369 92.3532 225.303C92.437 225.237 92.5335 225.19 92.6368 225.163C92.74 225.137 92.8477 225.132 92.9527 225.15C93.0557 225.144 93.1585 225.162 93.2533 225.203C93.3481 225.243 93.4323 225.305 93.4991 225.384C93.566 225.462 93.6137 225.555 93.6387 225.655C93.6636 225.755 93.665 225.859 93.6429 225.96C93.7185 227.487 94.0154 228.996 94.5241 230.438C95.2775 233.271 95.8115 236.159 96.1215 239.074C96.4455 241.065 96.5248 240.924 97.539 240.772C98.041 240.758 98.5318 240.62 98.9676 240.37C99.4035 240.121 99.771 239.767 100.037 239.341C100.304 238.916 100.461 238.431 100.495 237.93C100.529 237.428 100.438 236.927 100.231 236.469C98.3263 230.388 98.8641 234.245 97.9488 226.075C97.5795 222.77 97.6248 222.328 96.9962 222.409C78.9997 224.731 80.5306 226.641 76.7981 226.064Z" fill="#D4F2E2"/>
<path d="M83.0613 213.435C73.1453 215.559 74.067 214.708 75.1055 221.444C75.9495 226.916 82.3712 220.99 94.7075 220.543C96.8588 220.466 97.9945 218.497 97.6607 217.831C96.2611 215.04 97.408 212.208 95.9678 211.538C95.0519 211.319 94.1031 211.272 93.1701 211.4C91.0268 211.105 90.6008 211.82 83.0613 213.435ZM88.37 217.916C88.3538 219.795 85.3584 219.782 85.4297 217.43C85.467 216.182 88.3943 215.298 88.37 217.916Z" fill="#D4F2E2"/>
<path d="M75.8152 152.952C70.4449 156.578 69.1457 155.868 69.7224 156.813C76.2705 167.531 89.2078 166.649 97.5864 172.948C103.718 177.557 107.839 176.674 112.275 182.582C112.634 183.048 113.023 183.491 113.438 183.907C114.486 175.365 119.063 172.452 129.107 157.038C130.187 155.381 135.025 149.356 134.637 144.052C134.594 143.448 134.313 143.294 133.853 143.213C131.933 142.695 129.923 142.599 127.961 142.933C125.886 143.245 123.773 143.195 121.715 142.785C124.487 145.377 128.054 147.321 127.398 153.069C126.325 162.45 115.748 166.839 112.989 167.532C107.899 168.803 102.561 168.679 97.5362 167.171C94.0452 166.258 90.8562 164.442 88.2902 161.906C85.7241 159.369 83.8716 156.201 82.9189 152.721C82.8143 151.431 82.7905 150.136 82.8477 148.844C80.4256 150.076 78.0775 151.447 75.8152 152.952Z" fill="#FFF59E"/>
<path d="M64.7902 150.47C63.4326 142.856 69.0589 137.492 73.8978 135.906C74.2915 135.776 77.1378 134.772 77.3306 134.072C78.5197 129.825 78.5278 130.004 77.7048 130.098C73.4403 130.745 69.4004 132.431 65.942 135.009C53.1667 145.66 62.6518 165.024 71.0904 168.938C87.0393 176.333 83.6535 174.106 88.0032 176.025C92.037 177.807 93.3881 180.62 101.632 184.628C104.835 186.074 107.566 188.394 109.512 191.321C110.095 192.455 110.471 193.684 110.622 194.95C110.858 196.301 109.233 196.818 108.806 195.303C106.85 188.357 102.245 187.787 93.1629 182.308C93.6651 184.146 93.2909 180.663 97.221 192.569C99.0855 196.894 100.556 201.379 101.614 205.969C102.29 208.999 102.672 212.096 103.396 215.111C104.059 217.857 105.144 220.501 105.796 223.252C107.534 230.595 105.404 231.829 107.271 241.917C108.482 248.447 108.715 269.796 110.398 269.887C115.891 270.256 121.408 269.994 126.841 269.106C127.988 268.96 128.307 267.115 130.109 264.008C136.198 253.5 134.807 255.26 143.851 254.936C144.804 254.9 140.635 243.244 139.103 240.6C135.673 234.687 137.054 230.525 133.661 223.208C128.179 211.382 130.693 209.064 127.602 184.976C127.502 184.195 126.734 178.428 126.587 177.668C125.641 178.451 124.837 179.39 124.21 180.445C122.24 184.375 122.827 187.354 123.256 190.924C123.418 192.242 121.527 192.821 121.335 191.433C120.807 187.642 119.941 182.065 123.279 178.102C129.262 170.296 134.741 162.116 139.683 153.613C144.245 144.317 141.601 134.122 131.63 130.212C129.278 129.29 128.714 130.05 124.348 132.297C123.491 132.736 129.856 132.595 133.561 136.126C143.127 145.234 129.858 159.328 121.526 171.005C118.762 174.622 116.726 178.742 115.532 183.136C113.06 195.158 125.364 193.99 122.065 204.463C121.389 205.911 121.197 207.538 121.516 209.104C122.577 212.033 126.214 214.288 126.48 219.148C126.734 223.896 124.571 223.846 126.376 227.284C128.722 230.571 129.708 234.637 129.13 238.633C128.806 240.739 127.15 240.006 127.97 244.167C129.06 249.7 129.193 249.98 128.892 250.809C128.853 250.925 128.781 251.027 128.684 251.101C128.587 251.176 128.47 251.22 128.349 251.227C128.227 251.235 128.105 251.206 128 251.143C127.895 251.081 127.81 250.989 127.758 250.879C127.403 250.078 127.135 249.241 126.958 248.383C124.609 237.653 127.596 241.948 127.444 235.478C127.173 233.182 126.356 230.983 125.062 229.067C121.62 222.958 126.924 222.101 123.966 216.37C123.029 214.557 121.594 213.483 119.629 209.715C118.508 207.568 120.74 204.218 120.666 201.111C120.586 197.767 116.765 195.187 115.498 193.397C113.095 189.995 114.38 189.039 111.644 185.468C109.376 182.512 106.398 179.546 102.786 178.585C98.4927 177.441 96.4337 174.08 89.9456 171.608C80.454 167.971 67.4859 165.597 64.7902 150.47Z" fill="#D8E9FF"/>
<path d="M38.8669 277.831C33.9437 286.453 31.6417 288.478 33.9372 294.74C35.4357 298.826 38.9123 294.868 42.1652 299.762C44.3117 302.986 44.9889 303.783 47.6813 305.097C49.1976 305.836 49.2025 303.714 56.2673 305.115C57.3193 305.293 58.4003 305.165 59.3816 304.746C60.3628 304.327 61.2027 303.635 61.8012 302.751C56.9623 301.979 57.4839 303.002 56.878 300.645C55.6926 296.473 55.8749 292.03 57.3981 287.969C59.2724 282.38 61.6522 280.962 63.5087 278.673C64.9894 276.848 65.2599 274.126 67.6041 272.107C68.4643 271.367 68.9535 270.282 72.3474 270.385C75.602 270.486 75.4595 270.335 75.4254 269.397C75.3234 266.927 74.0987 267.063 71.5812 265.509C69.3796 264.152 70.9818 261.208 68.3768 259.922C63.1928 257.361 56.6853 261.974 52.3728 265.389C48.4168 268.521 43.1161 270.379 38.8669 277.831Z" fill="#D8E9FF"/>
<path d="M30.8558 204.603C27.4408 219.975 36.4367 223.849 31.2479 239.835C28.4728 248.385 31.5492 259.513 32.6151 268.653C33.0898 272.723 31.4568 280.416 33.336 284.863C34.7697 283.371 38.0081 274.921 43.9762 270.338C58.0912 259.495 59.9721 258.795 63.9605 258.494C68.3345 258.17 67.4435 257.705 69.0214 258.219C69.3429 257.277 69.5337 256.296 69.5884 255.303C69.0246 248.29 67.4208 245.926 68.8237 240.802C70.6365 234.181 68.6115 229.867 68.4252 221.812C68.2632 215.049 69.9351 217.482 67.8615 206.939C64.6004 190.362 65.8203 187.877 58.1026 178.963C56.7567 177.406 55.0896 176.159 53.216 175.308C51.3424 174.456 49.3066 174.021 47.2486 174.031C44.7797 174.043 42.617 175.411 40.396 176.43C37.5574 177.884 35.3134 180.281 34.0488 183.209C29.9308 190.904 32.3057 198.076 30.8558 204.603Z" fill="#D8E9FF"/>
<path d="M81.1 90.8151C80.3856 91.9491 80.3289 92.9648 80.6837 95.7172C81.0223 98.3301 82.0574 100.804 83.6807 102.879C84.933 104.483 88.1503 105.103 89.2065 105.416C91.5312 106.106 90.8006 108.19 91.1036 110.07C92.5065 108.582 93.3116 103.386 93.7263 101.311C94.144 99.2447 94.1268 97.114 93.6761 95.0546C93.2658 93.6543 92.679 92.3118 91.9297 91.0597C91.3536 90.1574 90.5642 89.4109 89.6312 88.8859C88.6982 88.3609 87.6504 88.0737 86.5801 88.0495C85.5099 88.0253 84.4501 88.265 83.4944 88.7473C82.5387 89.2296 81.7164 89.9398 81.1 90.8151ZM82.4738 94.2932C82.2519 90.6336 86.7215 88.5633 88.9538 91.4112C90.7358 93.6906 91.5701 95.3203 89.7946 97.5672C88.1843 99.5987 88.9246 99.704 89.7055 100.415C90.1915 100.861 90.428 101.321 90.1834 101.873C89.9388 102.426 89.3734 102.359 89.017 102.337C87.3047 102.209 85.6004 99.5274 87.7502 96.6147C88.8971 95.0578 88.8842 95.053 88.045 93.6987C87.1054 92.2002 85.9212 91.9393 84.9265 93.0312C83.4069 94.6998 85.4254 96.0461 83.914 96.5207C82.7217 96.8949 82.5338 95.2571 82.4738 94.2932Z" fill="#FFCEB6"/>
<path d="M78.9368 134.086C78.2289 137.381 78.5066 140.813 79.7354 143.952C83.5991 133.017 84.7396 131.784 95.221 121.216C97.104 119.466 98.6704 117.404 99.8509 115.12C103.023 107.715 104.382 99.6587 103.813 91.6223C103.661 89.2862 103.562 88.6674 103.046 88.7063C94.5503 90.1902 94.8387 89.7544 94.7107 90.4154C95.6292 93.8465 97.3124 96.7334 95.4089 103.443C94.4175 106.941 95.7831 108.013 88.8641 116.975C83.8453 123.47 80.4515 126.754 78.9368 134.086Z" fill="#FFCCCE"/>
<path d="M69.5909 102.329C69.3236 103.726 73.5308 103.347 73.1971 105.599C72.8731 107.761 74.1998 109.13 75.4651 110.552C76.5569 111.784 79.771 110.64 79.7483 110.368C79.8163 109.432 79.5268 108.506 78.9383 107.776C78.1283 106.966 76.7805 105.524 77.6294 104.727C78.4783 103.93 78.9157 105.213 79.7127 105.861C80.5272 106.542 81.1386 107.434 81.4798 108.44C81.821 109.445 81.8788 110.526 81.647 111.562C81.6315 112.364 81.8127 113.159 82.1747 113.875C82.5367 114.592 83.0685 115.209 83.7238 115.673C84.3513 115.97 85.0571 116.059 85.7387 115.928C86.4204 115.797 87.0424 115.452 87.5146 114.943C88.1427 114.385 88.607 113.666 88.8576 112.864C88.9221 111.244 88.8864 109.62 88.7507 108.004C88.4769 106.992 87.3413 107.786 83.8793 105.793C79.7645 103.424 77.8173 96.047 78.825 91.4332C79.473 88.4638 81.3959 87.8077 83.2783 86.5036C83.7011 86.212 82.3063 83.6313 82.2529 83.5406C81.4429 82.0745 80.8127 79.1666 82.2901 78.9333C82.538 78.8961 83.0904 79.2573 83.0839 79.4096C82.9883 81.5593 84.6343 83.0481 85.096 84.9646C85.744 87.6424 88.6891 85.2108 91.3945 88.0685C91.5031 88.1851 91.8109 88.1187 92.0279 88.1414C92.1284 86.6542 89.2739 80.9778 89.5979 79.8016C90.0256 78.2351 91.1596 79.6834 91.2763 79.9555C94.9666 88.5885 92.9692 88.2904 98.3233 87.4318C103.899 86.5392 103.421 86.698 103.371 86.1358C103.152 83.5957 99.8444 79.4242 99.3698 73.7331C99.1624 71.2399 97.2541 65.3464 94.9521 62.9018C94.3672 62.2813 94.7398 62.3316 90.74 66.4204C89.3663 67.8234 88.6859 68.1231 88.9143 68.8099C89.3566 70.1351 89.6806 70.9548 89.8863 71.4975C90.3723 72.7482 90.0775 73.5225 89.6012 73.6667C89.1249 73.8109 88.4234 72.9247 88.1432 72.1309C87.8211 71.208 87.3927 70.3256 86.8666 69.5017C83.9717 72.8454 86.9946 71.5623 82.7211 75.6868C76.8145 81.386 76.7692 81.7829 76.0531 82.1344C74.6891 82.8051 74.9953 83.9521 76.659 87.4399C76.9992 88.1511 77.3151 91.5078 75.7615 91.2972C74.2079 91.0866 75.9316 89.4666 73.5551 85.8945C73.1873 86.3805 73.7965 85.2367 71.3616 91.1935C70.4139 93.5149 73.4109 95.8218 75.0309 97.8355C76.9976 100.278 74.7182 101.947 74.1626 100.465C73.5102 99.165 72.5852 98.0212 71.4507 97.1113C70.8205 96.4682 70.7444 96.303 69.5909 102.329Z" fill="#FFCCCE"/>
<path d="M99.5222 56.3294C95.3539 61.4033 96.5932 59.8448 98.4935 59.6407C101.912 59.2746 103.07 60.4621 105.668 59.7541C108.466 58.9911 109.838 55.9601 110.979 54.5296C111.666 53.6678 112.541 54.0533 112.612 55.0999C112.664 55.8499 112.168 56.5741 109.589 59.7007C109.323 60.0247 109.344 60.0684 109.699 60.2774C111.319 61.2267 112.926 60.5657 114.559 60.3665C116.898 60.0765 118.368 58.6347 122.327 54.8147C122.925 54.238 122.959 52.5791 124.017 53.0992C124.179 53.234 124.306 53.4057 124.388 53.6C124.469 53.7942 124.503 54.0053 124.486 54.2153C123.974 57.6692 118.896 59.8951 118.773 61.1911C122.15 61.3725 123.616 63.0038 127.88 59.644C131.878 56.4931 130.881 53.2838 132.34 53.0457C133.612 52.8383 133.369 60.3211 125.619 63.3732C123.719 64.1216 121.664 63.438 122.572 64.376C123.555 65.4905 124.883 66.2442 126.344 66.5171C127.806 66.7901 129.316 66.5668 130.636 65.8826C134.396 64.0147 138.235 63.0281 138.849 56.459C138.39 55.0599 138.064 53.6203 137.877 52.1596C137.877 52.0705 138.525 51.8356 138.595 51.9117C142.551 56.0346 140.053 63.1626 135.582 65.8729C135.476 65.9476 135.378 66.0317 135.287 66.124C139.12 68.1052 142.057 64.1087 142.591 63.6551C143.39 62.9763 143.659 64.1411 143.588 64.329C142.068 68.251 140.806 67.0636 141.296 68.3498C141.871 69.8613 142.015 71.6174 142.525 71.2318C143.86 70.2547 144.871 68.9001 145.428 67.3429C145.985 65.7856 146.063 64.0971 145.652 62.4952C145.567 62.0497 145.507 61.5361 144.851 62.0869C144.395 62.4725 143.756 61.7014 143.87 61.1959C144.209 59.2008 144.05 57.1527 143.406 55.234C142.762 53.3154 141.654 51.5858 140.179 50.1994C136.871 46.8703 135.907 49.864 133.688 48.3574C129.909 45.7946 129.432 46.1396 125.65 48.3137C124.984 48.6976 124.423 49.2954 123.735 49.6097C121.331 50.7242 115.411 46.9869 110.321 51.3771C107.99 53.3908 103.81 51.1114 99.5222 56.3294Z" fill="#FFCCCE"/>
<path d="M85.667 146.775C84.6205 148.521 84.209 152.312 87.287 156.803C89.4626 159.986 90.203 163.341 100.709 165.863C106.22 167.249 112.052 166.496 117.032 163.757C121.974 161.261 125.487 156.714 125.649 152.443C125.819 151.334 125.688 150.2 125.268 149.16C124.848 148.119 124.155 147.211 123.262 146.532C115.486 140.241 123.946 148.638 120.983 149.227C119.28 149.563 120.081 147.382 117.442 148.14C109.342 150.468 101.255 149.738 96.7786 147.978C92.9683 146.473 89.4027 145.26 89.278 145.096C88.6073 144.218 88.0613 144.682 87.4717 145.21C86.882 145.738 86.0558 146.127 85.667 146.775Z" fill="#FFCEB6"/>
<path d="M61.0501 306.807C61.2243 306.888 61.4047 306.955 61.5896 307.007C71.5056 308.999 74.7569 307.737 76.4287 307.556C102.835 304.7 109.017 313.09 108.106 293.839C108.054 292.744 68.677 302.151 65.8988 302.416C64.7874 302.522 64.862 303.138 61.0501 306.807Z" fill="#D4F2E2"/>
<path d="M48.3769 169.407C46.6533 170.074 45.1027 171.121 43.8409 172.472C46.2503 171.876 48.7643 171.841 51.1892 172.37C53.6142 172.899 55.8854 173.977 57.828 175.522C67.0345 183.723 67.1074 191.819 69.121 202.445C70.2064 208.176 71.6952 210.924 70.9241 217.997C69.7317 228.935 73.5841 232.87 70.8706 242.185C69.8063 245.835 71.5429 252.516 71.0666 255.375C70.5903 258.234 69.4175 263.572 73.0106 265.337C77.6357 267.604 76.7075 270.459 78.449 270.423C80.2601 270.388 102.95 270.405 107.048 270.044C109.028 269.871 105.853 263.346 106.157 252.561C106.365 245.271 104.029 239.481 104.307 232.507C104.793 220.195 101.445 220.963 99.9804 208.771C99.0926 201.392 96.9542 199.08 94.1694 189.687C92.9444 185.884 91.0819 182.317 88.6615 179.138C87.3476 177.317 82.5217 177.299 69.8176 170.793C66.1046 168.891 63.3716 165.295 61.1749 161.768C60.812 161.185 60.8898 161.017 57.6109 163.226C50.0779 168.308 51.591 168.195 48.3769 169.407ZM73.5485 223.647C73.1273 222.3 71.517 215.607 72.941 214.388C75.695 212.022 78.2675 211.996 81.0151 211.402C94.5534 208.468 89.8424 209.134 95.7327 208.896C98.8593 208.773 98.4398 214.59 99.6775 217.466C100.487 219.348 98.571 220.236 98.9598 221.201C100.256 224.407 99.5964 227.571 100.126 229.518C101.843 235.836 103.69 237.28 101.557 241.182C100.246 243.585 96.8246 242.438 93.9038 244.205C92.4992 245.056 88.8963 244.417 87.683 244.946C84.443 246.361 78.1801 246.643 77.2486 243.206C75.4714 236.666 73.9535 224.971 73.5485 223.647Z" fill="#D4F2E2"/>
<path d="M57.084 294.766C57.8762 300.355 56.6466 300.133 63.564 300.406C66.0215 300.505 109.248 290.858 118.735 288.619C131.521 285.601 131.371 287.245 147.247 286.529C148.223 286.381 149.132 285.941 149.854 285.268C150.577 284.595 151.079 283.72 151.297 282.756C151.953 280.143 153.45 281.669 153.539 278.747C153.633 275.638 156.531 275.183 156.217 272.222C156.217 268.564 158.958 270.278 160.024 268.602C160.928 267.185 159.521 266.137 157.918 265.623C145.202 261.562 143.735 260.992 142.042 260.42C140.188 259.793 141.536 258.573 142.56 258.8C154.833 261.619 153.532 263.723 155.659 261.418C153.5 260.022 151.185 258.884 148.76 258.029C143.312 256.372 145.751 257.123 138.539 257.298C137.933 257.252 137.327 257.396 136.807 257.711C136.287 258.026 135.878 258.496 135.638 259.054C135.001 260.368 133.921 261.46 133.188 262.735C126.932 273.659 131.73 271.073 114.012 270.968C108.031 270.932 88.964 270.922 79.1371 271.601C67.8149 271.601 68.9311 271.815 67.2333 274.222C65.5145 276.662 65.8936 278.488 62.5693 281.31C57.9475 285.25 57.5344 290.918 57.084 294.766ZM146.302 282.337C145.74 281.793 146.652 280.822 146.95 280.249C147.775 278.648 147.427 278.23 148.47 277.346C148.673 277.198 148.83 276.995 148.922 276.761C149.015 276.527 149.039 276.272 148.991 276.025C149.025 274.183 150.935 273.522 151.259 271.914C151.925 268.714 151.849 268.413 152.753 267.018C153.887 265.267 155.049 266.532 154.717 267.243C153.858 268.416 153.302 269.782 153.097 271.22C153.086 272.063 152.922 272.897 152.611 273.68C152.001 274.598 151.088 274.993 151.096 275.959C151.11 277.715 149.865 277.927 149.076 279.87C148.671 280.866 148.525 282.034 147.36 282.488C147.184 282.547 146.997 282.564 146.813 282.538C146.63 282.512 146.455 282.443 146.302 282.337Z" fill="#FFCEB6"/>
<path d="M90.5037 136.889C90.4301 137.181 90.4675 137.49 90.6089 137.755C90.7502 138.021 90.9853 138.224 91.2684 138.326C99.9354 141.854 106.203 141.814 116.746 140.733C117.47 140.661 117.736 140.341 117.9 139.58C118.729 135.724 113.08 135.308 106.284 125.716C106.009 125.37 105.808 124.972 105.691 124.546C105.631 124.222 105.738 123.665 105.959 123.542C108.121 122.338 117.358 134.205 124.729 129.798C126.1 128.98 132.204 125.047 131.796 123.495C131.592 122.721 131.3 121.967 131.056 121.203C130.579 119.714 128.005 125.7 123.28 123.662C120.945 122.656 119.604 122.042 119.003 120.211C118.808 119.623 118.465 117.182 119.623 111.283C119.825 110.055 120.383 108.914 121.228 108C122.074 107.087 123.169 106.442 124.378 106.146C125.975 105.76 127.644 105.788 129.228 106.226C129.93 106.064 129.355 104.394 133.017 103.428C134.488 103.21 135.933 102.84 137.327 102.322C138.785 98.0902 142.893 99.8382 142.349 97.8553C141.852 96.4068 141.222 95.0076 140.466 93.6757C139.98 92.6778 139.789 92.7215 135.716 92.8155C136.123 93.1518 136.456 93.5676 136.696 94.0375C136.935 94.5074 137.076 95.0213 137.11 95.5477C137.144 96.0741 137.069 96.6018 136.892 97.0984C136.714 97.595 136.436 98.0499 136.076 98.4353C133.646 101.81 127.229 100.694 126.387 97.8488C126.082 96.8201 127.083 96.4848 127.801 96.8023C128.089 96.9287 131.963 100.177 134.644 96.8606C136.512 94.5505 132.979 94.1066 132.028 93.8296C130.003 93.2221 129.96 91.4336 130.792 91.0594C131.052 90.9428 132.021 91.8305 132.191 91.9731C132.269 91.3947 132.394 91.9974 131.93 87.5505C131.814 86.4343 128.541 85.3862 128.528 87.7287C128.501 90.9557 128.82 93.3193 125.711 93.7227C123.119 94.0629 114.109 94.6412 113.02 94.625C109.445 94.5716 109.118 93.4311 108.717 90.9492C108.34 88.6067 105.704 87.9522 105.563 88.8675C106.033 99.1788 105.356 103.885 104.321 107.741C101.844 116.975 100.838 118.232 91.6329 127.372C91.2878 127.699 91.4498 127.817 90.5037 136.889Z" fill="#FFCEB6"/>
<path d="M97.278 62.1761C97.4254 63.2615 100.818 67.0037 101.328 72.8859C101.378 74.5955 101.696 76.2867 102.269 77.8982C103.39 80.0812 104.344 82.3453 105.125 84.6714C105.522 85.9852 105.041 86.2736 105.825 86.3902C106.93 86.5522 108.344 87.0382 108.391 86.5215C108.589 84.3296 108.182 82.1475 108.77 80.9778C109.167 80.1873 110.249 79.8762 112.386 79.7045C116.674 79.143 120.999 78.9204 125.322 79.0387C128.238 79.1181 128.341 80.5663 128.272 82.8392C128.23 84.2664 128.596 84.4592 129.386 84.2972C130.951 83.9943 131.954 84.9889 131.964 84.0607C131.99 81.3067 131.847 79.2007 134.394 79.0387C140.61 78.6353 140.55 79.1181 140.597 78.0667C140.65 76.6962 140.55 75.2592 136.887 75.8748C135.753 76.0676 135.168 76.1486 135.003 74.9028C135.084 73.3816 140.566 74.0588 140.572 73.508C138.878 64.4133 140.619 71.0294 133.184 67.514C132.764 67.3164 131.998 67.6404 131.478 67.8996C126.276 70.5045 120.663 66.96 120.011 63.7329C119.89 63.127 117.7 63.6082 115.637 62.4758C114.665 61.9428 111.95 63.6762 109.247 62.3251C105.772 60.5869 105.893 63.2129 100.426 61.7257C99.2609 61.3985 98.3326 62.0676 97.278 62.1761ZM109.613 73.4189C109.261 72.2849 110.98 69.7609 116.49 70.7443C123.852 72.0597 124.091 76.1826 127.719 74.4039C127.88 74.3402 128.055 74.3167 128.227 74.3353C128.399 74.3539 128.564 74.4141 128.708 74.5108C129.751 75.7501 126.705 78.2854 122.482 76.032C119.163 74.2454 115.348 73.6048 111.628 74.2095C110.96 74.2095 109.963 74.561 109.613 73.4189Z" fill="#FFCEB6"/>
<path d="M134.586 165.588C142.461 152.096 143.893 151.573 143.588 142.287C143.588 142.112 143.88 141.764 143.937 141.783C145.37 142.269 147.397 142.388 148.497 143.596C149.646 144.857 150.132 143.83 149.929 145.378C149.657 149.086 150.338 152.803 151.905 156.174C153.786 159.654 157.115 164.614 158.165 172.037C160.482 188.409 161.243 182.253 161.243 195.18C161.105 195.18 161.51 197.43 160.723 197.061C158.779 196.151 154.672 197.745 152.182 197.191C149.484 196.588 144.612 197.72 142.119 198.833C139.937 199.805 139.24 200.807 139.721 202.992C140.301 205.636 139.305 206.42 140.59 209.166C142.696 213.686 141.024 220.558 145.882 231.671C146.791 233.746 149.548 232.685 151.794 232.452C157.02 231.907 157.316 230.201 160.339 229.536C161.692 229.238 163.166 229.578 164.504 229.239C165.097 229.089 165.27 229.194 165.476 229.675C170.73 241.865 169.277 245.75 173.09 252.771C176.518 259.071 175.318 260.205 176.978 264.273C178.524 268.062 181.884 273.6 182.363 275.663C182.864 278.565 184.047 281.306 185.814 283.661C190.798 289.741 178.48 292.615 175.23 296.783C172.148 300.512 167.943 303.144 163.242 304.287C162.03 304.438 161.995 303.477 160.676 299.123C156.992 286.952 157.631 287.566 156.464 285.612C153.623 280.877 155.892 281.188 155.863 278.855C155.826 278.435 155.885 278.013 156.036 277.62C156.187 277.227 156.426 276.874 156.735 276.587C159.249 274.228 157.399 271.623 158.653 271.456C159.301 271.438 159.939 271.282 160.522 270.998C161.122 270.675 161.622 270.192 161.965 269.602C162.308 269.013 162.481 268.341 162.466 267.659C162.095 263.055 156.445 264.171 157.397 262.844C157.611 262.596 157.762 262.299 157.837 261.979C157.911 261.66 157.908 261.327 157.827 261.009C157.745 260.691 157.589 260.397 157.37 260.153C157.151 259.908 156.876 259.72 156.569 259.604C144.07 252.792 148.285 259.685 143.875 246.75C140.736 237.538 139.146 237.658 137.926 229.216C136.812 221.505 133.258 220.347 132.146 211.165C131.586 206.533 132.056 205.819 130.591 193.227C127.622 167.878 126.944 178.685 134.586 165.588Z" fill="#D4F2E2"/>
<path d="M182.723 203.003C175.498 195.282 174.37 197.068 163.954 191.177C163.448 190.891 161.807 178.195 159.721 168.739C158.673 164.577 156.925 160.623 154.551 157.047C152.673 153.96 151.237 150.625 150.284 147.139C151.001 148.256 151.825 149.3 152.743 150.258C154.004 150.888 153.715 151.617 153.936 152.579C154.234 153.862 154.845 154.8 158.634 156.235C160.747 157.061 162.748 158.148 164.592 159.469C164.879 159.67 164.929 159.783 164.702 160.153C164.41 160.529 164.211 160.969 164.119 161.437C164.027 161.904 164.047 162.387 164.175 162.846C164.303 163.305 164.537 163.727 164.858 164.08C165.179 164.432 165.578 164.704 166.023 164.875C166.138 164.949 166.236 165.047 166.308 165.164C166.38 165.281 166.425 165.412 166.439 165.549C166.48 166.088 166.657 166.608 166.954 167.06C167.252 167.511 167.659 167.88 168.138 168.13C168.617 168.381 169.152 168.506 169.693 168.493C170.233 168.479 170.761 168.329 171.228 168.055C171.576 167.848 171.728 167.818 172.059 168.121C174.733 170.551 176.118 168.167 177.024 169.024C187.663 179.082 190.567 184.83 196.194 192.713C198.04 195.305 196.505 194.184 197.004 199.234C198.481 214.013 211.951 206.002 217.66 207.847C222.071 209.274 228.969 206.781 231.411 200.575C233.617 194.971 232.328 190.769 232.533 189.465C238.401 192.005 236.556 204.78 232.716 210.548C229.578 215.257 223.615 215.612 217.963 214.991C209.139 214.019 210.543 217.674 203.023 215.34C199.348 214.206 192.391 208.929 190.536 199.891C189.992 197.236 188.367 198.527 188.413 199.133C188.863 205.022 192.527 209.359 192.895 210.407C191.479 210.194 190.157 209.567 189.096 208.604C187.005 206.713 184.649 205.061 182.723 203.003Z" fill="#D8E9FF"/>
<path d="M148.208 131.142C146.252 131.584 146.274 135.678 148.085 136.407C148.421 136.543 148.813 136.504 149.151 136.619C150.378 137.042 150.334 137.543 149.935 139.202C149.655 139.844 149.628 140.568 149.86 141.229C150.091 141.89 150.565 142.439 151.184 142.766C154.042 144.744 150.632 147.091 153.635 148.57C156.939 150.19 153.545 151.919 158.38 154.078C171.311 159.849 169.805 163.703 175.886 161.916C175.664 161.297 175.67 160.62 175.903 160.005C176.137 159.391 176.582 158.88 177.16 158.565C178.167 157.952 179.201 158.263 178.741 157.55C178.573 157.272 178.463 156.963 178.419 156.641C178.374 156.32 178.396 155.993 178.482 155.68C178.568 155.367 178.717 155.075 178.92 154.821C179.123 154.568 179.376 154.359 179.662 154.206C180.022 154.044 180.132 153.91 179.803 153.542C178.498 152.084 179.641 150.422 179.317 150.039C175.896 145.855 177.318 143.346 173.377 132.765C171.818 129.32 173.064 129.344 169.272 129.049C168.742 129.009 169.168 130.888 167.067 129.812C165.285 128.9 165.427 128.874 155.889 129.678C153.394 130.1 151.811 130.552 148.208 131.142ZM154.013 137.429C151.969 134.609 154.309 131.199 155.484 132.195C156.119 132.735 155.774 133.167 155.408 133.626C153.642 135.837 156.725 135.92 156.056 139.709C155.521 142.748 157.114 142.375 157.745 145.928C158.384 149.508 162.063 150.067 160.674 151.598C160.6 151.707 160.5 151.797 160.383 151.859C160.266 151.921 160.136 151.954 160.004 151.954C159.871 151.954 159.741 151.921 159.624 151.859C159.507 151.797 159.407 151.707 159.333 151.598C155.73 147.794 156.984 147.088 155.664 145.168C154.701 143.77 155.152 142.839 154.672 141.973C153.554 139.966 155.079 138.9 154.013 137.429Z" fill="#FFCEB6"/>
<path d="M178.753 164.223C178.05 164.323 177.955 164.561 178.063 166.528C178.12 167.583 177.577 165.585 188.522 178.239C191.895 182.137 189.201 179.793 203.102 197.804C203.705 198.585 205.65 199.435 204.811 200.632C203.774 202.113 202.157 199.766 199.744 197.133C199.026 196.349 199.136 196.109 198.956 197.405C198.953 199.481 199.419 201.53 200.32 203.399C202.336 207.235 207.7 205.886 209.554 205.75C219.712 205.01 215.493 205.41 219.641 205.957C229.302 207.236 236.244 192.524 224.859 178.957C220.107 173.297 210.173 168.937 186.223 155.117C185.037 154.433 183.955 153.149 183.644 153.693C183.247 154.402 183.968 154.48 184.106 155.888C184.155 156.313 184.108 156.743 183.968 157.147C183.828 157.551 183.598 157.918 183.296 158.221C182.507 158.989 181.676 158.9 182.162 159.855C182.349 160.224 182.454 160.628 182.472 161.041C182.489 161.454 182.418 161.865 182.262 162.248C181.527 164.069 180.064 164.038 178.753 164.223Z" fill="#FFCEB6"/>
<path d="M41.5994 292.983C44.0925 293.403 41.9882 289.743 46.0592 283.631C49.1632 278.97 53.8125 279.224 56.4612 273.263C57.0445 271.732 57.9876 270.365 59.2107 269.275C60.4339 268.186 61.9012 267.407 63.4888 267.005C64.1222 266.752 64.6844 266.506 64.2032 265.893C63.974 265.697 63.7035 265.555 63.4118 265.478C63.1202 265.4 62.8148 265.389 62.5184 265.446C57.4138 266.535 56.5034 269.597 54.1236 273.647C51.1363 278.73 45.1326 277.808 42.155 287.208C41.648 288.808 40.7813 292.844 41.5994 292.983Z" fill="#000001"/>
<path d="M72.9327 214.387C71.5087 215.607 73.119 222.299 73.5402 223.647C73.9614 224.994 75.4712 236.665 77.2403 243.2C78.1734 246.643 84.4363 246.351 87.6747 244.94C88.888 244.412 92.4909 245.05 93.8955 244.2C96.8115 242.432 100.238 243.579 101.548 241.177C103.674 237.279 101.835 235.831 100.118 229.513C99.5881 227.569 100.243 224.402 98.9515 221.196C98.5627 220.224 100.479 219.342 99.6692 217.46C98.4315 214.584 98.8592 208.767 95.7245 208.89C89.8341 209.122 94.5451 208.462 81.0067 211.396C78.2592 211.996 75.6915 212.022 72.9327 214.387ZM75.1051 221.445C74.0667 214.709 73.1449 215.56 83.0609 213.436C90.6004 211.816 91.0264 211.106 93.1713 211.401C94.1044 211.273 95.0531 211.32 95.9691 211.539C97.4093 212.209 96.2623 215.041 97.662 217.832C97.9957 218.498 96.852 220.467 94.7087 220.544C82.3708 220.991 75.9491 226.917 75.1051 221.445ZM77.2759 232.762C76.0755 225.72 75.839 225.913 76.798 226.062C80.524 226.639 78.9996 224.729 97.0042 222.398C97.6344 222.317 97.5874 222.759 97.9568 226.064C98.8721 234.233 98.3343 230.376 100.239 236.458C100.446 236.915 100.537 237.417 100.503 237.918C100.469 238.419 100.312 238.904 100.045 239.33C99.779 239.756 99.4115 240.109 98.9756 240.359C98.5398 240.608 98.049 240.746 97.547 240.76C96.5328 240.913 96.4567 241.054 96.1295 239.063C95.8196 236.147 95.2855 233.26 94.5321 230.426C94.0234 228.984 93.7265 227.476 93.6509 225.949C93.673 225.848 93.6716 225.744 93.6467 225.644C93.6217 225.544 93.5739 225.451 93.5071 225.372C93.4402 225.294 93.3561 225.232 93.2613 225.191C93.1665 225.151 93.0636 225.133 92.9607 225.139C92.8556 225.121 92.748 225.126 92.6448 225.152C92.5415 225.178 92.4449 225.226 92.3612 225.292C92.2775 225.358 92.2084 225.44 92.1585 225.535C92.1086 225.629 92.0789 225.732 92.0713 225.839C92.0491 228.087 92.3843 230.324 93.0644 232.468C94.8788 242.188 95.1251 242.591 88.9691 242.28C87.7962 242.222 88.2805 238.347 85.5071 227.642C85.4898 227.526 85.4496 227.414 85.389 227.314C85.3283 227.214 85.2484 227.126 85.1538 227.057C85.0591 226.988 84.9517 226.938 84.8377 226.911C84.7237 226.883 84.6055 226.879 84.4897 226.898C84.374 226.916 84.2631 226.958 84.1635 227.019C84.0639 227.081 83.9775 227.162 83.9094 227.258C83.8413 227.353 83.7928 227.461 83.7667 227.575C83.7407 227.69 83.7375 227.808 83.7575 227.923C84.0476 229.843 84.4808 231.738 85.0535 233.593C86.8485 243.194 86.6541 242.764 85.8635 243.108C83.7575 244.02 80.1109 243.874 79.3317 242.205C78.4083 240.261 78.2139 238.277 77.2743 232.762H77.2759Z" fill="#000001"/>
<path d="M82.4731 94.293C82.5331 95.2521 82.721 96.8947 83.9101 96.5189C85.4215 96.0442 83.403 94.698 84.9226 93.0294C85.9172 91.9375 87.1015 92.1984 88.0411 93.6969C88.8867 95.0496 88.8932 95.0544 87.7462 96.6129C85.5965 99.5289 87.3007 102.207 89.0131 102.335C89.376 102.362 89.9349 102.424 90.1795 101.871C90.4241 101.319 90.194 100.856 89.7016 100.413C88.9207 99.7022 88.1804 99.6034 89.7907 97.5654C91.5727 95.325 90.7335 93.6952 88.9499 91.4094C86.724 88.5663 82.2512 90.6253 82.4731 94.293Z" fill="#000001"/>
<path d="M85.4282 217.427C85.3569 219.782 88.3442 219.795 88.3685 217.913C88.3928 215.298 85.4655 216.182 85.4282 217.427Z" fill="#000001"/>
<path d="M116.49 70.7443C110.982 69.761 109.261 72.2785 109.613 73.419C109.964 74.5594 110.96 74.2095 111.634 74.2095C115.354 73.6048 119.17 74.2455 122.488 76.032C126.712 78.2854 129.757 75.7501 128.714 74.5108C128.57 74.4142 128.405 74.354 128.233 74.3354C128.061 74.3167 127.887 74.3403 127.726 74.4039C124.091 76.1827 123.852 72.0598 116.49 70.7443Z" fill="#000001"/>
<path d="M123.552 87.4015C124.126 87.4258 124.557 86.8847 124.704 85.9435C124.842 85.0655 124.821 84.0497 123.988 83.8197C122.347 83.3726 122.021 87.3383 123.552 87.4015Z" fill="#000001"/>
<path d="M136.116 83.9161C135.812 84.2988 135.634 84.7659 135.605 85.2537C135.576 85.7416 135.698 86.2265 135.954 86.6425C136.505 87.2338 136.908 87.0621 137.275 86.6636C137.507 86.3325 137.658 85.9508 137.714 85.55C137.771 85.1492 137.731 84.7408 137.599 84.3583C137.3 83.5256 136.552 83.4301 136.116 83.9161Z" fill="#000001"/>
<path d="M148.309 102.547C145.717 103.289 144.421 103.843 144.64 105.463C144.914 107.451 145.342 109.233 145.591 110.289C146.181 112.779 146.725 112.619 151.234 111.585C154.028 110.937 158.213 110.035 164.194 108.498C165.814 108.081 166.721 107.799 166.223 105.497C165.802 103.542 165.478 101.875 165.208 100.851C164.693 98.9072 164.236 98.6998 160.882 99.4191C158.366 99.9553 154.428 100.799 148.309 102.547ZM146.22 105.797C146.155 104.875 145.849 104.618 148.149 103.999C164.953 99.4791 163.515 100.075 163.912 101.698C165.062 106.396 165.274 106.78 164.023 107.096C157.887 108.64 152.915 109.923 148.471 110.871C147.738 111.033 147.393 111.067 147.19 110.557C146.716 109.001 146.391 107.404 146.22 105.787V105.797Z" fill="#000001"/>
<path d="M146.949 280.25C146.653 280.824 145.741 281.794 146.301 282.339C146.452 282.443 146.625 282.511 146.807 282.537C146.989 282.563 147.174 282.547 147.348 282.489C148.513 282.036 148.658 280.869 149.063 279.871C149.852 277.927 151.098 277.717 151.084 275.961C151.084 274.989 151.989 274.6 152.598 273.681C152.909 272.898 153.074 272.065 153.084 271.222C153.29 269.784 153.846 268.418 154.704 267.245C155.028 266.537 153.875 265.269 152.741 267.02C151.837 268.415 151.913 268.716 151.247 271.916C150.912 273.524 149.008 274.184 148.979 276.027C149.026 276.274 149.002 276.529 148.91 276.763C148.818 276.997 148.661 277.199 148.458 277.347C147.421 278.232 147.774 278.65 146.949 280.25Z" fill="#000001"/>
<path d="M153.526 106.649C153.539 106.447 153.513 106.244 153.448 106.052C153.383 105.86 153.281 105.683 153.147 105.531C153.014 105.378 152.852 105.254 152.67 105.164C152.489 105.074 152.291 105.021 152.089 105.008C151.887 104.994 151.684 105.021 151.492 105.086C151.3 105.151 151.123 105.253 150.971 105.386C150.819 105.52 150.694 105.682 150.604 105.863C150.514 106.045 150.461 106.242 150.448 106.445C150.413 106.681 150.436 106.922 150.514 107.147C150.593 107.372 150.726 107.575 150.9 107.737C151.075 107.9 151.286 108.017 151.517 108.08C151.747 108.142 151.989 108.147 152.222 108.095C152.404 108.091 152.584 108.05 152.749 107.974C152.915 107.898 153.064 107.788 153.186 107.653C153.308 107.518 153.401 107.359 153.459 107.186C153.518 107.013 153.541 106.83 153.526 106.649Z" fill="#000001"/>
<path d="M154.223 202.325C152.028 202.309 152.206 205.337 153.755 205.403C154.162 205.341 154.539 205.151 154.831 204.859C155.122 204.568 155.313 204.191 155.375 203.783C155.409 203.438 155.308 203.093 155.094 202.821C154.879 202.549 154.566 202.372 154.223 202.325Z" fill="#000001"/>
<path d="M155.485 132.194C154.31 131.198 151.97 134.608 154.014 137.428C155.08 138.899 153.556 139.96 154.675 141.985C155.161 142.85 154.704 143.782 155.666 145.18C156.987 147.1 155.733 147.806 159.336 151.61C159.41 151.719 159.51 151.809 159.627 151.871C159.744 151.933 159.874 151.965 160.006 151.965C160.139 151.965 160.269 151.933 160.386 151.871C160.503 151.809 160.603 151.719 160.677 151.61C162.057 150.082 158.382 149.486 157.748 145.94C157.115 142.393 155.524 142.76 156.058 139.72C156.726 135.931 153.643 135.849 155.41 133.637C155.775 133.166 156.12 132.738 155.485 132.194Z" fill="#000001"/>
<path d="M161.438 104.737C161.453 104.511 161.418 104.284 161.336 104.072C161.254 103.861 161.127 103.67 160.963 103.512C160.8 103.355 160.604 103.235 160.39 103.161C160.175 103.087 159.947 103.06 159.721 103.083C159.336 103.107 158.975 103.282 158.716 103.569C158.458 103.856 158.322 104.233 158.339 104.619C158.318 104.83 158.341 105.043 158.405 105.245C158.469 105.447 158.575 105.634 158.714 105.794C158.853 105.954 159.024 106.084 159.215 106.175C159.406 106.267 159.614 106.318 159.826 106.326C160.038 106.334 160.249 106.299 160.447 106.222C160.645 106.145 160.825 106.029 160.976 105.88C161.127 105.731 161.246 105.553 161.325 105.357C161.405 105.16 161.443 104.949 161.438 104.737Z" fill="#000001"/>
<path d="M209.125 70.7494C208.307 70.8984 207.725 71.9693 209.425 72.0324C210.476 71.9936 211.529 72.0217 212.577 72.1167C216.026 72.4796 219.234 76.144 220.714 78.9336C224.013 85.1318 226.192 91.8636 227.151 98.8191C228.853 112.152 226.533 125.458 222.453 128.506C221.776 129.012 221.004 129.377 220.183 129.579C219.362 129.781 218.508 129.816 217.674 129.682C216.489 129.491 216.054 129.635 215.945 129.9C215.697 130.513 216.25 130.582 216.509 130.697C217.392 131.079 218.347 131.266 219.308 131.246C220.27 131.225 221.216 130.998 222.082 130.579C223.242 130.03 227.33 128.661 228.934 114.899C230.007 105.694 229.195 95.6504 227.034 89.2368C223.883 79.8489 218.889 68.9787 209.125 70.7494Z" fill="#000001"/>
<path d="M222.664 59.5196C203.117 52.9229 191.939 97.7516 212.954 132.29C219.526 143.092 237.473 144.364 241.583 116.004C244.575 95.3702 236.259 64.1074 222.664 59.5196ZM203.33 93.4326C203.307 89.5965 203.168 89.5592 203.908 89.8136C205.675 90.4227 205.105 90.4146 212.465 90.5037C215.175 90.5361 208.562 89.9529 213.54 108.299C214.537 111.969 216.63 112.511 215.718 112.762C207.763 114.943 207.436 117.298 207.062 115.704C205.602 109.479 203.375 100.786 203.33 93.4326ZM208.207 88.7962C202.591 88.3799 203.229 87.5326 203.44 86.0211C204.468 78.6842 205.163 74.375 207.269 70.4238C209.968 65.3597 212.259 62.9232 215.034 61.4911C219.432 59.2231 224.448 60.7362 229.452 67.0461C245.54 87.3479 244.032 142.156 222.314 137.286C214.82 135.604 210.709 124.861 208.109 118.64C208.081 118.495 208.091 118.345 208.138 118.205C208.184 118.065 208.266 117.939 208.374 117.84C210.341 116.75 212.366 115.768 214.439 114.898C218.352 113.398 222.45 114.478 223.524 109.855C224.85 103.652 223.959 97.1803 221.007 91.5664C218.334 87.0839 214.234 89.2449 208.207 88.7962ZM215.201 107.864C209.427 86.8927 218.467 88.7249 220.375 93.8393C224.631 105.246 221.593 114.071 217.688 111.348C216.477 110.513 215.598 109.28 215.201 107.864Z" fill="#000001"/>
<path d="M231.676 48.6836C231.514 49.3575 230.142 50.1416 230.996 50.775C232.206 51.6741 233.62 50.289 233.889 48.9282C234.91 43.775 234.271 41.7694 236.696 37.943C237.084 37.3322 241.626 37.7421 243.975 33.185C246.253 28.7673 240.863 24.8323 245.668 23.4326C248.561 23.1811 251.303 22.0306 253.509 20.1424C254.913 19.0975 254.231 17.2669 254.418 11.9193C254.466 10.5147 255.714 8.84127 254.239 8.23215C250.714 6.75795 252.329 18.2049 251.508 18.7622C250.448 19.734 249.127 20.3738 247.708 20.6025C245.631 20.6838 243.649 21.4923 242.109 22.8867C240.79 24.0968 241.197 25.9161 241.746 28.2084C242.592 31.7416 241.526 34.5701 237.471 35.1744C232.134 35.973 232.585 44.7664 231.676 48.6836Z" fill="#000001"/>
<path d="M246.215 135.525C246.008 135.998 245.528 136.563 245.647 136.926C246.248 138.752 247.787 144.89 253.555 144.208C257.67 143.722 258.592 143.574 258.577 144.885C258.614 145.762 258.522 146.639 258.304 147.488C258.13 148.634 258.281 149.805 258.739 150.868C259.197 151.932 259.944 152.846 260.896 153.507C262.747 154.603 265.801 154.401 268.212 154.791C271.981 155.402 269.574 159.455 272.785 162.35C276.082 165.323 276.103 162.002 275.566 161.66C273.412 160.288 273.46 157.963 272.845 155.903C272.26 154.596 271.27 153.512 270.021 152.812C268.772 152.112 267.331 151.832 265.911 152.015C265.035 151.95 264.267 151.892 263.502 151.83C263.053 151.788 262.619 151.649 262.23 151.422C261.84 151.194 261.506 150.885 261.249 150.514C260.992 150.144 260.82 149.721 260.744 149.277C260.667 148.833 260.689 148.377 260.808 147.942C261.842 143.406 259.674 141.127 257.017 141.441C253.291 141.882 250.115 142.491 248.875 139.453C247.294 135.568 248.184 136.487 246.215 135.525Z" fill="#000001"/>
<path d="M247.049 72.0315C247.516 74.873 249.649 72.9225 251.452 70.695C252.235 69.723 252.33 69.9417 255.37 70.1215C256.62 70.1175 257.842 69.7518 258.89 69.0685C259.937 68.3852 260.764 67.4136 261.271 66.2708C263.215 61.5323 264.626 63.3548 269.695 64.2166C274.269 64.9942 274.899 61.205 277.235 56.8246C278.931 53.6445 279.942 54.2326 281.565 54.5566C282.331 54.7186 287.883 57.6459 291.447 52.6757C292.855 50.7188 295.157 49.1117 294.987 48.2726C294.473 45.7259 291.557 49.4487 289.352 51.8949C286.668 54.8741 283.844 52.6126 280.885 52.146C273.954 51.0509 274.487 62.9546 270.06 61.9081C264.503 60.5943 264.591 60.5846 264.38 60.6478C257.934 62.5772 260.461 65.0218 257.477 67.2233C255.66 68.5696 253.479 66.7616 251.112 67.9394C250.672 68.0865 250.266 68.3221 249.92 68.6316C249.573 68.941 249.294 69.3179 249.099 69.7392C248.867 70.3694 248.459 70.3969 247.049 72.0315Z" fill="#000001"/>
<path d="M253.006 98.9811C251.224 99.6097 252.294 101.338 253.622 100.948C258.751 99.438 260.509 98.1938 262.812 102.343C263.381 103.817 264.192 105.186 265.212 106.393C265.449 106.705 265.749 106.964 266.091 107.155C266.434 107.346 266.812 107.464 267.203 107.502C267.593 107.54 267.987 107.497 268.36 107.375C268.733 107.254 269.077 107.057 269.37 106.796C271.121 105.787 273.324 105.063 274.34 104.309C275.356 103.556 275.374 104.099 278.876 108.508C280.451 110.493 285.716 105.928 288.434 107.791C290.177 108.814 292.113 109.467 294.12 109.707C294.388 109.846 294.698 109.877 294.988 109.796C295.278 109.714 295.526 109.526 295.682 109.268C295.838 109.01 295.891 108.703 295.829 108.408C295.767 108.114 295.595 107.853 295.348 107.681C293.534 106.602 292.445 107.442 289.061 105.468C288.321 105.106 287.513 104.907 286.69 104.883C285.866 104.86 285.048 105.013 284.289 105.332C278.834 106.952 280.971 107.075 276.869 102.45C276.651 102.176 276.38 101.95 276.071 101.784C275.763 101.619 275.424 101.518 275.076 101.488C274.727 101.457 274.376 101.498 274.044 101.608C273.711 101.718 273.405 101.894 273.143 102.126C272.224 102.702 271.149 103.021 270.17 103.511C267.88 104.659 267.321 105.669 266.708 104.684C264.866 101.722 264.575 99.7425 261.622 97.9006C259.179 96.3746 256.384 97.7807 253.006 98.9811Z" fill="#000001"/>
<path d="M28.7099 242.063C29.6576 237.325 31.4298 233.022 30.9309 228.052C30.5178 223.929 29.1489 221.41 28.2158 213.713C28.2533 210.124 28.5854 206.544 29.2088 203.009C29.666 199.831 29.8767 196.622 29.839 193.412C30.0334 189.347 29.4891 187.917 33.518 180.539C35.8119 176.335 39.9624 174.786 40.5261 174.181C42.2749 171.318 44.944 169.133 48.0964 167.986C51.0027 166.69 47.0369 167.565 58.4968 160.722C59.7572 159.968 59.728 159.345 59.2582 158.005C53.849 142.615 61.6509 132.336 75.2962 128.762C81.6288 127.103 76.2568 130.868 85.2219 118.451C86.5584 116.598 81.8847 120.225 79.6183 113.528C79.1664 112.195 76.5193 114.824 74.0618 112.459C71.8278 110.307 72.3478 109.572 71.3078 110.238C67.3047 112.791 63.0069 110.821 59.1578 107.955C56.7083 106.126 56.5123 107.67 51.7446 96.189C50.3304 92.787 51.6879 92.3156 51.2214 91.7453C50.2947 90.6113 48.0413 88.4956 48.0073 85.868C47.9328 80.2887 42.1899 79.1498 43.933 69.9207C44.3088 67.9362 44.3688 63.6383 47.3739 60.6867C49.4459 58.6487 51.0173 58.4349 52.4477 53.1796C53.2188 50.343 53.4197 46.8762 56.4361 45.6029C58.6653 44.6616 60.9171 44.1951 61.6444 41.953C63.3714 36.6394 65.5551 34.8623 68.3399 33.7023C73.1578 31.6952 73.7783 27.6128 80.2761 28.5783C88.5462 29.8062 87.6341 29.641 90.9033 28.2267C99.6221 24.4554 101.798 30.5045 107.823 29.8824C109.357 29.7101 110.908 29.9684 112.304 30.6282C113.7 31.288 114.884 32.3232 115.725 33.6181C116.424 34.3989 117.277 35.0269 118.23 35.4629C119.183 35.8989 120.216 36.1334 121.264 36.1518C126.124 35.8278 133.287 37.9338 133.88 42.6836C134.075 44.2453 134.088 47.2715 135.426 46.6542C139.962 44.5612 146.442 53.8762 145.918 58.8366C145.854 59.4522 147.644 60.1861 147.665 64.8306C147.697 71.7318 142.481 73.0311 142.45 74.3076C142.424 75.4416 142.531 76.5756 142.437 77.6999C142.348 78.7886 142.275 78.7756 143.409 78.8048C143.817 78.8609 144.228 78.8944 144.64 78.9052C148.708 78.5099 146.503 84.5752 147.824 84.7372C148.137 84.775 148.426 84.9248 148.638 85.1589C148.849 85.3931 148.969 85.6958 148.975 86.0114C148.982 86.3269 148.873 86.6341 148.671 86.8762C148.469 87.1184 148.185 87.2793 147.874 87.3292C147.338 87.5074 147.376 88.2607 147.508 89.2732C147.577 89.8891 147.443 90.5108 147.126 91.0436C146.809 91.5764 146.327 91.9911 145.753 92.2248C141.807 93.2471 141.831 90.8462 144.02 97.8381C144.375 98.9721 162.311 91.4958 171.322 85.9749C187.12 76.2921 195.327 70.8263 202.625 61.1889C210.205 51.1838 221.773 48.2289 232.208 59.8346C251.223 81.0015 255.844 144.211 223.666 146.223C220.254 146.437 216.756 145.719 212.164 141.325C208.51 137.834 205.334 136.872 197.17 134.547C191.404 132.762 185.522 131.372 179.566 130.387C179.141 130.311 174.244 129.461 174.393 129.913C175.884 134.385 175.923 132.505 177.157 138.763C177.606 141.031 178.354 143.25 178.992 145.482C179.154 146.032 179.268 146.181 179.964 145.894C180.451 145.633 181.018 145.567 181.552 145.708C182.086 145.849 182.546 146.188 182.84 146.655C183.59 148.042 182.73 148.628 183.01 149.234C183.305 149.871 183.744 149.882 184.193 150.461C184.556 151.095 184.981 151.692 185.463 152.243C194.582 160.286 225.992 169.363 231.578 186.263C231.858 187.108 234.369 186.849 236.545 190.907C241.068 199.331 237.369 217.375 223.787 217.388C214.739 217.396 214.122 216.642 210.929 217.83C206.879 219.337 200.989 218.369 195.98 213.505C194.292 211.863 191.149 215.27 180.59 204.118C175.594 198.847 176.836 200.392 169.608 196.796C163.379 193.698 163.625 193.058 163.523 194.557C163.332 197.345 163.338 197.575 164.025 197.75C166.173 198.298 166.262 202.2 166.277 204.279C166.313 209.393 165.412 207.843 165.6 209.419C166.546 217.357 166.191 215.737 166.41 216.757C167.675 222.729 169.175 224.966 167.358 227.36C166.604 228.35 167.324 228.767 167.576 229.325C172.462 240.115 171.77 245.778 174.724 250.786C177.478 255.462 177.087 257.914 178.706 262.247C180.133 266.07 183.728 272.2 184.439 274.619C185.124 276.958 185.374 279.43 187.055 281.365C187.938 282.449 188.573 283.713 188.917 285.068C189.302 286.007 189.346 287.051 189.041 288.019C188.736 288.987 188.101 289.818 187.246 290.365C172.166 302.794 177.875 291.574 183.303 310.755C183.789 312.47 181.801 312.684 181.303 311.474C179.864 307.98 179.359 304.647 176.221 299.93C175.331 298.595 174.563 302.822 163.909 306.779C163.253 307.021 162.532 307.016 161.88 306.764C161.228 306.512 160.69 306.032 160.367 305.412C159.071 302.306 155.993 290.022 155.321 288.402C154.807 287.151 153.638 284.971 152.784 283.425C152.214 284.153 152.28 284.611 151.791 285.407C148.342 291.013 135.335 286.988 132.061 287.621C127.345 288.533 118.085 290.861 110.931 292.58C110.335 292.722 110.23 292.85 110.231 293.967C110.254 308.48 107.963 308.613 100.322 309.102C87.707 309.912 92.2786 308.845 78.4762 309.608C76.3605 309.724 74.2643 310.295 72.1582 310.361C63.0231 310.645 65.3866 307.72 63.1705 315.093C63.1207 315.345 62.9769 315.569 62.7682 315.72C62.5595 315.87 62.3016 315.935 62.0465 315.902C61.7914 315.87 61.5583 315.741 61.3944 315.543C61.2304 315.345 61.1478 315.092 61.1633 314.835C61.367 313.427 61.6526 312.031 62.0187 310.656C62.422 308.67 60.5882 309.898 58.7333 308.388C57.5993 307.468 53.167 306.455 49.1931 307.591C47.5132 308.077 44.9989 306.421 43.865 305.647C40.7529 303.541 40.3123 299.211 37.0691 299.266C31.8348 299.353 30.231 293.129 31.506 288.031C32.0811 285.726 31.9158 286.946 30.696 283.009C29.6171 279.515 31.1042 272.317 30.3542 267.031C28.9383 257.185 27.2146 249.577 28.7099 242.063ZM57.6074 163.229C50.076 168.308 51.5891 168.195 48.3734 169.406C46.6498 170.073 45.0992 171.121 43.8374 172.472C46.2468 171.876 48.7608 171.841 51.1858 172.37C53.6108 172.899 55.882 173.977 57.8245 175.522C67.031 183.724 67.1039 191.819 69.1175 202.445C70.2029 208.176 71.6901 210.924 70.9206 217.997C69.7283 228.935 73.5806 232.87 70.8671 242.185C69.8028 245.835 71.5378 250.677 71.8634 255.469C72.006 257.556 70.6176 259.475 71.3434 260.629C72.9634 263.209 70.2839 263.426 73.9646 264.855C78.7679 266.72 76.7088 270.454 78.4503 270.418C80.2615 270.383 102.951 270.4 107.05 270.039C109.029 269.866 105.854 263.341 106.159 252.556C106.366 245.266 104.03 239.476 104.309 232.502C104.795 220.19 101.446 220.958 99.9818 208.766C99.094 201.387 96.9556 199.075 94.1708 189.682C92.9457 185.879 91.0832 182.312 88.6628 179.133C87.349 177.312 82.523 177.294 69.819 170.788C66.1059 168.886 63.373 165.29 61.1763 161.763C60.8167 161.182 60.8944 161.013 57.6074 163.229ZM77.6954 130.1C73.4308 130.747 69.391 132.433 65.9326 135.011C53.1573 145.662 62.6424 165.026 71.081 168.94C87.0299 176.335 83.644 174.108 87.9937 176.027C92.0275 177.809 93.3786 180.622 101.623 184.63C104.829 186.075 107.563 188.395 109.511 191.323C110.094 192.457 110.47 193.686 110.62 194.952C110.857 196.303 109.23 196.82 108.804 195.305C106.849 188.359 102.243 187.789 93.1615 182.31C93.6637 184.148 93.2895 180.665 97.2197 192.571C99.0842 196.897 100.555 201.382 101.613 205.971C102.289 209.001 102.671 212.098 103.395 215.113C104.058 217.867 105.143 220.503 105.794 223.254C107.533 230.597 105.402 231.832 107.27 241.919C108.48 248.45 108.712 269.829 110.397 269.889C116.715 270.119 125.006 269.778 127.083 269.145C128.23 268.998 128.388 267.303 130.19 264.196C136.279 253.689 134.81 255.268 143.855 254.934C144.807 254.899 140.639 243.243 139.106 240.599C135.677 234.686 137.057 230.524 133.665 223.207C128.183 211.381 130.697 209.062 127.606 184.975C127.506 184.194 126.738 178.427 126.59 177.667C125.644 178.449 124.84 179.388 124.214 180.444C122.244 184.374 122.83 187.353 123.26 190.923C123.422 192.24 121.531 192.82 121.338 191.432C120.812 187.641 119.943 182.064 123.282 178.101C129.266 170.295 134.745 162.115 139.686 153.611C144.248 144.316 141.604 134.121 131.633 130.211C129.281 129.289 128.717 130.049 124.351 132.296C123.494 132.735 129.859 132.594 133.564 136.125C143.132 145.233 129.861 159.327 121.529 171.004C117.259 176.988 112.655 185.649 116.878 191.704C119.564 195.557 124.209 197.659 122.062 204.462C121.386 205.91 121.194 207.537 121.513 209.103C122.576 212.03 126.211 214.287 126.477 219.147C126.731 223.895 124.568 223.845 126.373 227.283C128.719 230.57 129.705 234.636 129.127 238.632C128.803 240.738 127.148 240.004 127.967 244.166C129.058 249.699 129.19 249.979 128.889 250.808C128.85 250.924 128.778 251.026 128.681 251.1C128.584 251.175 128.467 251.219 128.346 251.226C128.224 251.234 128.102 251.204 127.997 251.142C127.892 251.08 127.808 250.988 127.755 250.878C127.4 250.076 127.132 249.24 126.955 248.381C124.606 237.652 127.593 241.947 127.441 235.477C127.17 233.18 126.353 230.982 125.059 229.066C121.617 222.957 126.921 222.1 123.963 216.369C123.026 214.556 121.591 213.482 119.626 209.714C118.505 207.567 120.737 204.217 120.663 201.11C120.583 197.766 116.762 195.186 115.495 193.395C113.092 189.993 114.377 189.038 111.641 185.467C109.373 182.511 106.395 179.544 102.783 178.584C98.4881 177.44 96.4307 174.079 89.9426 171.606C80.4527 167.989 67.4846 165.612 64.7889 150.488C63.4313 142.874 69.0576 137.51 73.8965 135.924C74.2918 135.795 77.1365 134.79 77.3293 134.09C78.5184 129.827 78.5265 130.006 77.7035 130.1H77.6954ZM148.274 138.254C148.078 138.032 147.6 138.077 147.14 137.938C145.249 137.353 144.099 134.393 144.754 132.38C145.87 128.947 148.896 129.363 151.326 128.526C150.48 128.109 151.895 128.505 145.434 128.429C142.63 128.396 143.715 126.789 141.844 126.971C133.806 127.726 134.854 128.239 133.258 126.485C132.772 125.955 132.628 126.601 132.524 126.705C130.752 128.487 130.904 127.701 132.923 128.518C135.392 129.39 137.613 130.848 139.395 132.767C141.177 134.685 142.468 137.007 143.156 139.534C143.297 140.14 143.113 139.623 147.436 141.108C147.939 141.28 148.167 141.296 148.167 141.018C147.655 139.159 148.478 138.477 148.282 138.254H148.274ZM136.056 98.4327C133.626 101.809 127.209 100.691 126.367 97.8462C126.062 96.8175 127.063 96.4822 127.781 96.7997C128.069 96.9261 131.943 100.174 134.624 96.858C136.492 94.5479 132.958 94.104 132.008 93.827C129.983 93.2195 129.94 91.431 130.771 91.0568C131.032 90.9402 132.001 91.8279 132.171 91.9705C132.249 91.3922 132.374 91.9948 131.91 87.5479C131.794 86.4317 128.521 85.3836 128.508 87.7261C128.481 90.9531 128.8 93.3167 125.691 93.7201C123.099 94.0603 114.089 94.6386 113 94.6224C109.425 94.569 109.098 93.4285 108.697 90.9467C108.32 88.6041 105.684 87.9496 105.543 88.865C106.013 99.1762 105.336 103.882 104.301 107.738C101.824 116.972 100.819 118.229 91.6128 127.369C91.2888 127.693 91.4508 127.811 90.4999 136.88C90.4262 137.172 90.4637 137.481 90.605 137.746C90.7464 138.012 90.9814 138.215 91.2645 138.317C99.9315 141.845 106.201 141.805 116.742 140.724C117.466 140.651 117.732 140.332 117.896 139.571C118.725 135.715 113.076 135.299 106.28 125.707C106.006 125.361 105.804 124.963 105.687 124.537C105.627 124.213 105.734 123.656 105.955 123.533C108.117 122.328 117.355 134.196 124.726 129.789C126.096 128.971 132.2 125.038 131.792 123.486C131.588 122.712 131.296 121.958 131.052 121.194C130.575 119.705 128.001 125.691 123.276 123.653C120.943 122.647 119.6 122.033 118.999 120.202C118.805 119.614 118.461 117.173 119.619 111.274C119.821 110.046 120.379 108.905 121.225 107.991C122.07 107.078 123.165 106.433 124.374 106.137C125.971 105.751 127.641 105.779 129.224 106.217C129.926 106.055 129.351 104.385 133.014 103.419C134.485 103.201 135.929 102.83 137.323 102.313C138.781 98.0811 142.889 99.8275 142.345 97.8462C141.848 96.3978 141.218 94.9986 140.462 93.6666C139.976 92.6687 139.785 92.7124 135.712 92.8064C136.119 93.1433 136.453 93.56 136.692 94.0307C136.932 94.5015 137.072 95.0163 137.105 95.5435C137.138 96.0707 137.063 96.599 136.884 97.0959C136.705 97.5928 136.426 98.0477 136.064 98.4327H136.056ZM140.576 73.496C138.881 64.4013 140.623 71.0174 133.187 67.502C132.767 67.3044 132.001 67.6284 131.481 67.8876C126.281 70.4925 120.666 66.948 120.015 63.7209C119.893 63.1151 117.703 63.5962 115.641 62.4638C114.669 61.9308 111.954 63.6642 109.25 62.3132C105.775 60.5749 105.896 63.2009 100.429 61.7138C99.2592 61.3898 98.3229 62.0653 97.2764 62.1738C97.4238 63.2592 100.816 67.0014 101.326 72.8837C101.377 74.5933 101.694 76.2845 102.268 77.8959C103.388 80.0789 104.343 82.343 105.124 84.6692C105.521 85.983 105.039 86.2713 105.823 86.388C106.928 86.55 108.343 87.036 108.39 86.5192C108.587 84.3273 108.181 82.1452 108.769 80.9756C109.166 80.185 110.248 79.874 112.384 79.7022C116.672 79.1407 120.997 78.9181 125.32 79.0364C128.236 79.1158 128.34 80.5641 128.27 82.8369C128.228 84.2641 128.594 84.4569 129.385 84.2949C130.95 83.992 131.952 84.9867 131.962 84.0584C131.988 81.3044 131.846 79.1984 134.392 79.0364C140.608 78.633 140.548 79.1158 140.595 78.0644C140.649 76.6939 140.548 75.257 136.885 75.8726C135.751 76.0653 135.167 76.1463 135.001 74.9006C135.095 73.3697 140.577 74.0468 140.584 73.496H140.576ZM112.109 81.7029C111.272 81.7612 110.813 82.0269 110.591 82.5988C110.105 83.8413 110.555 89.9439 110.671 90.8689C110.807 91.9672 111.077 92.2702 111.858 92.2864C113.382 92.3172 119.031 92.1989 120.731 92.0855C126.381 91.708 126.48 91.6157 126.451 90.4202C126.197 79.7719 129.467 80.4717 112.117 81.7029H112.109ZM133.853 143.209C131.932 142.692 129.922 142.596 127.961 142.929C125.886 143.242 123.772 143.192 121.714 142.782C124.486 145.374 128.053 147.318 127.397 153.066C126.325 162.447 115.748 166.836 112.989 167.529C107.899 168.8 102.56 168.675 97.5355 167.168C94.0444 166.255 90.8553 164.439 88.2892 161.903C85.7231 159.366 83.8706 156.198 82.9183 152.717C82.8137 151.428 82.7899 150.133 82.847 148.841C80.425 150.072 78.0769 151.444 75.8146 152.949C70.4443 156.574 69.1451 155.865 69.7218 156.809C76.2698 167.527 89.2071 166.646 97.5858 172.945C103.717 177.553 107.839 176.671 112.274 182.579C112.634 183.045 113.022 183.487 113.437 183.904C114.486 175.362 119.062 172.449 129.106 157.035C130.187 155.377 135.024 149.353 134.637 144.049C134.593 143.451 134.314 143.297 133.853 143.209ZM134.353 141.405C132.719 135.932 127.616 134.572 122.028 134.35C119.895 134.265 120.275 135.237 119.864 140.768C119.754 140.754 119.883 140.81 119.99 140.781C121.988 140.24 123.878 141.314 125.835 141.149C129.22 140.862 127.877 139.986 133.838 141.444C134.011 141.459 134.184 141.448 134.353 141.411V141.405ZM88.6482 136.243C88.7665 135.795 88.6984 135.579 88.4862 135.489C87.765 135.383 87.0345 135.355 86.3073 135.406C85.695 135.446 85.2025 135.49 84.9903 135.761C83.3372 138.585 82.0121 141.589 81.0407 144.714C80.6244 145.895 80.0979 146.01 79.5827 145.959C78.3029 145.635 77.4654 141.299 76.8968 138.774C76.61 137.499 76.8968 136.653 76.1354 136.917C67.9527 139.767 65.6588 144.925 67.0164 150.563C67.2869 151.697 67.7308 152.777 68.0856 153.884C68.2184 154.302 68.4306 154.42 68.8324 154.195C92.0373 141.103 87.1254 142.003 88.6482 136.243ZM86.7383 133.707C89.5975 133.53 88.969 133.766 89.2946 130.643C89.3384 130.217 89.3351 130.037 88.9074 130.301C87.8239 131.143 86.9344 132.208 86.2992 133.425C86.2328 133.509 86.2231 133.742 86.7383 133.71V133.707ZM89.2719 145.087C88.6012 144.207 88.0553 144.672 87.4656 145.2C86.876 145.729 86.0546 146.116 85.6658 146.765C84.6193 148.512 84.2078 152.303 87.2858 156.793C89.4615 159.976 90.2018 163.331 100.708 165.854C106.219 167.239 112.051 166.487 117.031 163.748C121.973 161.251 125.487 156.704 125.647 152.434C125.818 151.325 125.687 150.19 125.267 149.15C124.847 148.11 124.154 147.202 123.261 146.522C115.485 140.232 123.945 148.628 120.982 149.218C119.279 149.553 120.079 147.373 117.441 148.131C109.34 150.459 101.253 149.728 96.7774 147.969C92.9623 146.467 89.3967 145.254 89.2719 145.09V145.087ZM113.322 144.915C113.088 143.538 112.083 143.224 110.703 143.133C108.984 143.02 107.061 143.648 107.11 145.401C107.155 147.021 108.116 147.465 109.596 147.473C112.715 147.493 113.523 146.096 113.322 144.919V144.915ZM122.774 109.387C123.391 109.711 125.518 109.956 127.541 110.57C129.821 111.26 129.058 111.73 129.301 109.484C129.385 108.7 129.717 108.198 129.064 107.816C128.089 107.397 127.028 107.216 125.97 107.289C123.548 107.466 121.868 108.921 122.774 109.39V109.387ZM121.811 115.916C120.94 115.58 120.4 115.592 120.428 116.766C120.507 120.05 120.473 121.111 124.418 122.132C124.845 122.239 125.29 122.255 125.724 122.177C126.157 122.099 126.569 121.929 126.932 121.68C128.141 120.853 126.255 117.633 121.811 115.919V115.916ZM138.423 112.87C138.423 112.838 137.767 108.334 137.648 105.062C137.616 104.185 136.425 104.317 132.404 105.569C131.513 105.846 131.293 106.466 131.094 107.816C130.686 112.483 133.568 123.941 134.368 125.257C134.737 125.866 135.27 125.782 140.976 125.083C142.367 124.916 140.628 125.036 138.423 112.873V112.87ZM78.9363 134.082C78.2285 137.378 78.5062 140.809 79.735 143.948C83.5987 133.013 84.7392 131.78 95.2206 121.213C97.1036 119.463 98.67 117.401 99.8505 115.117C103.023 107.711 104.381 99.6554 103.813 91.6189C103.661 89.2829 103.562 88.6641 103.045 88.703C94.5499 90.1869 94.8383 89.7511 94.7103 90.412C95.6288 93.8432 97.312 96.73 95.4085 103.44C94.4171 106.938 95.7827 108.01 88.8637 116.972C83.8449 123.47 80.451 126.754 78.9363 134.086V134.082ZM93.6783 95.0517C93.268 93.6514 92.6812 92.309 91.932 91.0568C91.3558 90.1546 90.5664 89.408 89.6334 88.883C88.7005 88.3581 87.6526 88.0708 86.5824 88.0466C85.5121 88.0225 84.4523 88.2621 83.4966 88.7444C82.5409 89.2267 81.7186 89.9369 81.1023 90.8122C80.3878 91.9462 80.3312 92.9619 80.6859 95.7143C81.0245 98.3272 82.0597 100.801 83.6829 102.876C84.9352 104.48 88.1525 105.101 89.2087 105.413C91.5334 106.103 90.8028 108.187 91.1058 110.068C92.5087 108.579 93.3138 103.383 93.7286 101.308C94.1447 99.2426 94.1264 97.1131 93.6751 95.055L93.6783 95.0517ZM73.1999 105.596C72.8759 107.759 74.2027 109.128 75.4679 110.55C76.5598 111.781 79.7739 110.638 79.7512 110.366C79.8191 109.43 79.5296 108.504 78.9412 107.774C78.1312 106.964 76.7833 105.522 77.6322 104.725C78.4811 103.928 78.9185 105.211 79.7155 105.859C80.5301 106.54 81.1415 107.432 81.4827 108.438C81.8238 109.443 81.8817 110.523 81.6498 111.56C81.6344 112.362 81.8156 113.157 82.1776 113.873C82.5396 114.59 83.0714 115.207 83.7267 115.671C84.3542 115.968 85.0599 116.057 85.7416 115.926C86.4232 115.794 87.0453 115.449 87.5175 114.94C88.1455 114.382 88.6098 113.664 88.8604 112.862C88.925 111.241 88.8893 109.618 88.7535 108.002C88.4798 106.99 87.3441 107.783 83.8822 105.791C79.7674 103.422 77.8202 96.0448 78.8278 91.431C79.4758 88.4616 81.3987 87.8039 83.2812 86.5014C83.704 86.2098 82.3092 83.6291 82.2557 83.5384C81.4457 82.0804 80.8155 79.1644 82.293 78.9311C82.5408 78.8939 83.0933 79.2551 83.0868 79.4074C82.9912 81.5571 84.6371 83.0459 85.0988 84.9624C85.7468 87.6402 88.692 85.2086 91.3974 88.0663C91.5059 88.1829 91.8137 88.1165 92.0308 88.1392C92.1312 86.652 89.2768 80.9756 89.6008 79.7994C90.0285 78.2329 91.1625 79.6812 91.2791 79.9533C94.9695 88.5879 92.972 88.2882 98.3261 87.4296C103.902 86.537 103.424 86.6958 103.374 86.1336C103.155 83.5935 99.8489 79.422 99.3726 73.7309C99.1653 71.2377 97.2569 65.3442 94.9549 62.8996C94.3701 62.2791 94.7427 62.3294 90.7429 66.4182C89.3691 67.8212 88.6887 68.1209 88.9172 68.8077C89.3594 70.1329 89.6834 70.9526 89.8892 71.4953C90.3752 72.746 90.0803 73.5203 89.604 73.6645C89.1277 73.8087 88.4263 72.9225 88.146 72.1287C87.824 71.2058 87.3955 70.3234 86.8695 69.4995C83.9745 72.8432 86.9975 71.5601 82.7239 75.6846C76.8174 81.3838 76.772 81.7807 76.056 82.1322C74.6919 82.8029 74.9981 83.9499 76.6618 87.4377C77.002 88.1489 77.3179 91.5056 75.7644 91.295C74.2108 91.0844 75.9345 89.4644 73.5579 85.8923C73.1902 86.3783 73.7993 85.2345 71.3644 91.1913C70.4167 93.5127 73.4137 95.8196 75.0337 97.8333C77.0004 100.276 74.7211 101.945 74.1654 100.463C73.513 99.1628 72.588 98.019 71.4536 97.1091C70.8169 96.4611 70.7407 96.2991 69.5873 102.324C69.3232 103.727 73.5304 103.348 73.1967 105.6L73.1999 105.596ZM98.1479 48.0863C94.2405 42.7824 93.7739 41.6825 91.6809 40.5566C88.6226 41.9527 85.7707 43.7624 83.205 45.935C82.557 46.4485 82.8956 46.246 85.0988 48.365C88.3565 51.8187 91.4338 55.4382 94.3182 59.2092C94.4782 59.0543 94.6191 58.8808 94.7378 58.6925C95.9868 55.9741 98.4168 54.3185 100.424 52.2756C100.887 51.801 100.699 51.5531 98.1479 48.0879V48.0863ZM103.008 50.9213C109.379 49.7322 107.669 50.0562 110.612 48.3115C112.3 47.312 112.765 48.0069 110.07 44.3133C109.635 43.7172 109.075 43.2069 108.658 42.5978C106.049 38.7843 106.598 38.2157 104.242 37.8819C102.008 37.21 99.6229 37.2263 97.3979 37.9289C96.6105 38.1735 95.415 38.7648 94.2016 39.1423C93.5989 39.3302 95.9836 41.5043 99.1847 45.8037C102.276 49.9477 102.023 51.1076 103.014 50.9229L103.008 50.9213ZM58.7285 81.6495C60.1508 83.8413 61.4565 84.6627 64.9752 86.7946C69.9016 89.7803 69.7607 90.0508 70.0458 89.1566C71.9169 83.3019 72.0837 82.0626 74.0958 80.9026C75.5538 80.0554 73.7329 79.6779 73.0671 78.1308C71.9574 75.5534 69.7493 76.4622 67.8928 73.8783C66.4624 72.3532 64.9126 70.9447 63.258 69.6663C62.4739 71.7237 62.5468 73.0116 61.0694 74.7159C59.7652 76.5465 59.1756 77.6319 58.6863 78.1179C58.2798 78.6188 58.0615 79.2462 58.0692 79.8913C58.0769 80.5364 58.3101 81.1584 58.7285 81.6495ZM57.4195 83.0702C57.2445 82.649 57.1279 82.5842 56.8525 83.0232C55.7444 85.4403 53.9462 87.9237 53.7502 90.6081C53.7054 90.8137 53.7286 91.0283 53.8162 91.2197C53.9038 91.411 54.0512 91.5688 54.2362 91.6692C54.7788 92.0183 55.367 92.2909 55.9842 92.4792C57.8537 92.8923 57.9913 95.0614 61.7319 96.0788C62.8774 96.5472 63.993 97.0855 65.0724 97.6907C65.4045 97.8284 67.9657 98.6919 68.105 98.2869C69.2617 94.8962 69.2601 95.9557 68.8421 91.9689C68.7822 91.4083 67.5963 90.6259 66.4575 90.0346C63.1786 88.353 58.5681 85.8226 57.4195 83.0767V83.0702ZM66.438 69.6858C69.8141 71.8566 69.0414 73.2806 71.5038 74.0387C73.7361 74.7256 73.7458 76.0605 76.0722 78.5132C76.495 78.9587 76.8692 78.2458 82.4193 73.0602C83.026 72.4042 83.3892 71.5598 83.4482 70.6681C83.5072 69.7765 83.2583 68.8916 82.7433 68.1614C81.9965 67.3514 81.0715 66.7034 80.2874 65.916C78.365 63.183 76.0067 60.7843 73.3068 58.8156C72.9926 58.571 72.3802 57.4758 71.6982 57.9473C68.5345 60.2253 66.0508 63.3217 64.5135 66.9042C64.6344 67.473 64.8667 68.0121 65.197 68.4907C65.5273 68.9692 65.9491 69.3776 66.438 69.6923V69.6858ZM75.1504 57.8355C77.1599 59.0895 78.9112 60.716 80.3101 62.6274C81.1201 63.7614 84.2677 66.3065 84.4168 66.8589C84.7408 68.0431 85.2446 67.9718 86.1988 67.3789C89.8924 65.0996 90.103 63.9218 92.4115 61.5469C93.5455 60.3756 92.5524 60.3546 89.6332 56.9461C82.1051 48.1608 82.6883 47.7218 80.707 48.7764C76.9616 50.769 75.9572 50.4629 73.417 56.0211C73.9161 56.6965 74.4985 57.3061 75.1504 57.8355ZM57.8844 104.255C58.709 105.603 59.4186 105.668 62.8351 107.955C64.3417 108.964 66.1821 110.223 70.3374 108.426C71.102 107.991 71.1085 107.693 71.0048 106.282C70.9821 105.98 70.4394 105.862 68.2865 105.199C66.6891 104.713 67.3841 103.544 67.4991 100.987C67.5364 100.143 66.4299 100.354 65.9553 100.16C63.7505 99.2524 62.0381 98.3419 60.9722 98.0892C59.0428 97.6081 57.3398 96.4735 56.1526 94.8784C55.8497 94.4815 54.1082 94.1478 53.6222 94.0198C53.5833 96.7527 56.2725 101.622 57.8844 104.253V104.255ZM113.494 34.0701C111.581 31.9511 108.976 32.0532 106.544 32.0532C102.418 33.1872 98.6517 26.3832 90.7964 30.7572C88.0229 32.3027 86.5033 31.5672 78.2527 30.7944C74.5267 30.4461 74.4943 33.6975 69.2698 35.6868C65.6896 37.0509 64.6026 40.0074 63.2758 43.6248C62.5792 45.5251 60.2496 46.523 58.3251 47.1532C55.4091 48.1074 55.6974 50.769 54.6703 53.8487C51.8694 62.2565 48.4285 60.7661 47.1325 64.9133C46.1247 67.9368 45.6463 71.1116 45.7182 74.2979C46.2301 78.3155 49.0716 79.7573 49.7601 85.4063C49.7867 86.1882 49.9977 86.9527 50.3757 87.6376C50.7538 88.3226 51.2883 88.9085 51.9358 89.3477C53.3938 84.559 55.1483 82.7721 55.6456 80.4766C56.1786 76.5351 58.6102 75.1549 59.8673 72.9533C60.4845 71.8712 61.8324 66.9593 63.1915 64.3268C65.837 59.2011 68.6315 58.0315 70.1251 56.5994C72.7447 54.0852 72.3138 51.2631 76.576 48.6306C78.9185 47.184 78.52 48.2354 80.7119 45.9528C83.3038 43.2539 81.5526 44.1627 88.4992 39.9912C92.9866 37.2955 98.8234 34.7699 104.009 35.9169C106.556 36.4806 106.998 35.9169 113.439 35.0048C113.836 34.9449 113.964 34.5901 113.494 34.0701ZM118.054 37.7799C115.89 36.3964 114.004 36.8451 108.514 37.6292C108.125 37.6843 108.044 37.7912 108.223 38.24C109.556 41.642 111.51 43.1178 112.516 44.6633C112.893 45.0903 113.228 45.5537 113.514 46.0467C113.868 46.9653 114.51 47.0657 115.323 46.9394C115.957 46.8422 121.231 48.1544 123.075 47.3946C122.347 43.9926 121.293 43.4904 119.511 40.7526C119.368 40.5404 118.805 38.2594 118.054 37.7799ZM129.573 39.9086C126.878 38.3517 123.756 37.6972 120.663 38.0407C121.205 40.0025 121.124 40.6943 122.247 41.6873C124.437 43.6313 123.993 46.57 125.163 45.9204C127.094 45.0747 127.755 44.234 131.128 44.8917C131.799 44.9451 132.17 45.3307 132.17 44.4624C132.242 43.5306 132.033 42.5986 131.57 41.7868C131.107 40.9749 130.411 40.3207 129.573 39.9086ZM142.518 71.2345C143.853 70.2573 144.864 68.9028 145.421 67.3455C145.978 65.7883 146.056 64.0998 145.645 62.4978C145.56 62.0523 145.501 61.5388 144.844 62.0896C144.388 62.4752 143.749 61.704 143.863 61.1986C144.202 59.2035 144.043 57.1553 143.399 55.2367C142.755 53.3181 141.647 51.5885 140.172 50.202C136.864 46.8729 135.9 49.8667 133.681 48.3601C129.902 45.7973 129.425 46.1439 125.643 48.3164C124.975 48.7003 124.416 49.2981 123.728 49.6124C121.325 50.7269 115.404 46.9896 110.314 51.3798C107.988 53.387 103.807 51.1076 99.5201 56.3256C95.3518 61.3995 96.5911 59.841 98.4914 59.6369C101.91 59.2708 103.068 60.4583 105.666 59.7503C108.464 58.9873 109.836 55.9563 110.977 54.5258C111.664 53.664 112.538 54.0495 112.61 55.0961C112.661 55.8461 112.166 56.5703 109.587 59.6969C109.321 60.0209 109.342 60.0646 109.697 60.2736C111.317 61.2229 112.924 60.5619 114.557 60.3627C116.896 60.0727 118.366 58.6309 122.325 54.8109C122.923 54.2342 122.957 52.5753 124.014 53.0954C124.176 53.2302 124.304 53.4019 124.385 53.5962C124.467 53.7904 124.501 54.0015 124.484 54.2115C123.972 57.6654 118.894 59.8913 118.771 61.1873C122.148 61.3687 123.614 63 127.878 59.6402C131.876 56.4893 130.878 53.28 132.338 53.0419C133.61 52.8345 133.367 60.3173 125.617 63.3694C123.716 64.1178 121.662 63.4342 122.569 64.3722C123.553 65.4867 124.881 66.2403 126.342 66.5133C127.804 66.7863 129.314 66.563 130.634 65.8788C134.394 64.0109 138.233 63.0243 138.847 56.4552C138.388 55.0561 138.062 53.6165 137.875 52.1558C137.875 52.0667 138.523 51.8318 138.593 51.9079C142.549 56.0308 140.051 63.1588 135.58 65.8691C135.474 65.9438 135.375 66.0279 135.285 66.1202C139.118 68.1014 142.055 64.1049 142.589 63.6513C143.386 62.9725 143.657 64.1373 143.586 64.3252C142.063 68.2472 140.804 67.0598 141.293 68.346C141.864 69.864 142.006 71.6201 142.518 71.2345ZM144.258 90.6745C145.956 90.6583 145.656 89.2003 145.522 84.1459C145.441 81.0533 145.272 80.8022 144.525 80.8184C131.915 81.089 133.794 78.3285 134.18 90.0038C134.22 91.2399 134.428 90.7668 144.258 90.668V90.6745ZM231.075 142.443C240.13 137.991 243.096 128.053 244.483 118.056C247.041 99.612 243.394 85.0077 236.745 69.8073C234.447 64.5788 230.843 60.0286 226.28 56.5929C209.977 45.8864 191.321 68.973 199.157 106.651C203.254 126.35 212.951 151.355 231.075 142.443ZM198.732 132.922C217.837 138.733 201.826 141.107 195.667 98.0228C194.868 89.861 195.388 81.6238 197.208 73.6272C198.322 68.717 200.666 68.7332 187.974 77.6772C150.339 104.197 139.607 98.0746 139.472 103.49C139.27 111.181 140.956 118.804 144.383 125.692C145.844 128.639 163.781 122.294 198.732 132.922ZM179.802 153.542C178.497 152.084 179.64 150.422 179.316 150.039C175.895 145.855 177.317 143.346 173.376 132.765C171.817 129.32 173.063 129.344 169.271 129.049C168.741 129.009 169.167 130.888 167.066 129.812C165.284 128.9 165.427 128.874 155.888 129.678C153.395 130.104 151.812 130.556 148.209 131.145C146.252 131.588 146.275 135.681 148.086 136.41C148.421 136.546 148.813 136.508 149.152 136.623C150.38 137.045 150.335 137.546 149.936 139.205C149.656 139.847 149.629 140.571 149.86 141.232C150.092 141.893 150.565 142.442 151.185 142.769C154.043 144.747 150.633 147.094 153.636 148.573C156.939 150.193 153.545 151.922 158.381 154.081C171.312 159.852 169.805 163.706 175.887 161.919C175.664 161.3 175.67 160.623 175.904 160.008C176.138 159.394 176.583 158.883 177.16 158.569C178.168 157.955 179.201 158.266 178.741 157.553C178.573 157.275 178.464 156.966 178.419 156.645C178.375 156.323 178.396 155.996 178.483 155.683C178.569 155.37 178.718 155.078 178.921 154.824C179.124 154.571 179.377 154.362 179.663 154.209C180.021 154.051 180.131 153.91 179.802 153.542ZM168.317 161.987C168.317 161.065 166.974 160.739 166.726 160.676C166.42 160.599 165.613 161.106 165.636 161.99C165.666 162.316 165.817 162.619 166.059 162.841C166.3 163.062 166.615 163.186 166.943 163.189C167.183 163.135 168.317 162.909 168.317 161.987ZM169.65 166.716C169.921 166.713 170.189 166.646 170.429 166.52C170.67 166.395 170.878 166.214 171.036 165.993C171.194 165.772 171.297 165.517 171.338 165.248C171.379 164.98 171.355 164.706 171.27 164.448C171.041 163.231 169.603 163.025 168.633 164.112C168.431 164.325 168.293 164.591 168.237 164.879C168.181 165.167 168.208 165.465 168.315 165.738C168.422 166.011 168.604 166.248 168.841 166.421C169.078 166.594 169.359 166.697 169.651 166.716H169.65ZM172.945 165.894C173.088 166.337 173.365 166.725 173.736 167.006C174.108 167.286 174.557 167.446 175.022 167.462C177.257 167.404 177.103 163.835 174.607 163.907C174.133 163.971 173.7 164.21 173.393 164.577C173.086 164.943 172.927 165.412 172.947 165.889L172.945 165.894ZM178.693 162.85C178.94 162.874 179.191 162.848 179.428 162.772C179.665 162.697 179.884 162.574 180.073 162.411C180.261 162.248 180.414 162.049 180.523 161.825C180.632 161.601 180.694 161.357 180.706 161.109C180.787 159.975 180.17 159.424 179.001 159.406C176.741 159.374 177.18 162.883 178.694 162.85H178.693ZM181.285 157.603C181.601 157.628 181.915 157.532 182.164 157.334C182.413 157.137 182.578 156.854 182.627 156.54C182.676 156.226 182.604 155.906 182.427 155.642C182.249 155.379 181.979 155.192 181.67 155.12C180.588 154.818 179.984 155.395 180.015 156.5C180.095 156.789 180.259 157.047 180.486 157.244C180.713 157.44 180.992 157.565 181.29 157.603H181.285ZM181.832 147.211C181.749 147.065 181.624 146.948 181.475 146.872C181.325 146.796 181.156 146.766 180.99 146.785C180.823 146.804 180.665 146.871 180.536 146.978C180.407 147.085 180.313 147.228 180.264 147.388C180.215 147.549 180.214 147.72 180.261 147.881C180.308 148.042 180.401 148.186 180.529 148.295C180.657 148.403 180.814 148.472 180.98 148.493C181.147 148.514 181.316 148.485 181.466 148.411C181.57 148.358 181.663 148.284 181.738 148.195C181.813 148.105 181.87 148.001 181.904 147.889C181.939 147.777 181.951 147.66 181.939 147.543C181.928 147.427 181.893 147.314 181.837 147.211H181.832ZM181.714 150.603C180.828 150.603 180.614 150.964 180.676 151.786C180.718 152.356 181.324 152.649 181.957 152.648C183.264 152.646 183.201 150.61 181.719 150.603H181.714ZM224.855 178.95C220.103 173.29 210.169 168.93 186.219 155.11C185.033 154.426 183.951 153.142 183.64 153.686C183.243 154.396 183.964 154.473 184.102 155.881C184.151 156.306 184.104 156.736 183.964 157.14C183.824 157.544 183.594 157.911 183.292 158.214C182.503 158.982 181.672 158.893 182.158 159.848C182.345 160.217 182.45 160.621 182.468 161.034C182.485 161.447 182.414 161.858 182.258 162.241C181.528 164.069 180.065 164.038 178.756 164.222C178.053 164.323 177.957 164.561 178.066 166.528C178.122 167.582 177.58 165.585 188.524 178.239C191.897 182.136 189.205 179.791 203.104 197.803C203.707 198.584 205.653 199.435 204.814 200.632C203.777 202.113 202.16 199.765 199.746 197.133C199.029 196.349 199.139 196.109 198.959 197.405C198.956 199.48 199.422 201.529 200.323 203.399C202.338 207.235 207.702 205.886 209.557 205.75C219.714 205.009 215.496 205.409 219.643 205.957C229.3 207.229 236.243 192.517 224.855 178.95ZM163.943 191.184C174.359 197.068 175.487 195.283 182.712 203.01C184.638 205.068 186.994 206.717 189.1 208.61C190.16 209.574 191.482 210.201 192.898 210.414C192.531 209.365 188.866 205.029 188.416 199.14C188.371 198.534 189.995 197.243 190.54 199.898C192.395 208.936 199.351 214.206 203.027 215.346C210.547 217.681 209.142 214.031 217.966 214.998C223.619 215.619 229.582 215.264 232.72 210.554C236.559 204.787 238.404 192.012 232.537 189.472C232.331 190.768 233.62 194.98 231.414 200.582C228.973 206.788 222.075 209.281 217.663 207.854C211.955 206.009 198.484 214.02 197.007 199.24C196.501 194.191 198.037 195.307 196.197 192.72C190.571 184.837 187.666 179.089 177.027 169.031C176.122 168.174 174.737 170.565 172.062 168.128C171.738 167.825 171.576 167.855 171.231 168.062C170.765 168.339 170.236 168.491 169.695 168.506C169.153 168.521 168.617 168.396 168.137 168.145C167.657 167.894 167.25 167.524 166.953 167.071C166.656 166.618 166.48 166.096 166.442 165.556C166.428 165.419 166.383 165.288 166.311 165.171C166.239 165.054 166.142 164.955 166.026 164.882C165.581 164.711 165.182 164.439 164.861 164.087C164.54 163.734 164.306 163.312 164.178 162.853C164.05 162.394 164.031 161.911 164.122 161.444C164.214 160.976 164.414 160.536 164.706 160.16C164.932 159.79 164.882 159.674 164.595 159.476C162.748 158.156 160.743 157.072 158.627 156.249C154.84 154.814 154.229 153.876 153.929 152.593C153.704 151.63 153.991 150.914 152.737 150.271C151.754 149.758 151.004 148.889 150.641 147.841C151.422 152.824 158.48 161.83 159.713 168.747C161.42 178.278 163.447 190.897 163.952 191.184H163.943ZM163.078 199.72C157.989 197.841 156.24 199.982 152.249 199.503C147.756 198.963 141.786 201.065 141.851 202.012C142.648 213.537 142.136 207.196 152.996 207.93C155.899 208.126 156.342 206.754 161.059 207.308C164.006 207.451 163.975 207.559 164.106 205.364C164.349 201.335 164.105 200.096 163.087 199.72H163.078ZM164.178 215.795C163.972 214.587 164.178 213.312 164.09 212.069C163.918 209.519 163.892 209.668 161.307 209.6C159.192 209.541 157.079 209.744 155.015 210.206C151.995 210.888 150.816 209.13 145.037 211.282C144.582 211.444 143.889 211.386 143.675 211.69C143.482 211.965 143.822 212.592 143.861 213.072C144.402 219.963 144.919 224.794 147.722 230.122C148.276 231.179 151.529 230.565 151.559 230.561C153.55 230.474 152.424 229.154 151.721 226.094C150.892 222.468 151.222 221.72 150.513 213.37C150.446 212.583 151.258 211.768 151.896 212.511C153.907 214.851 151.788 219.934 154.537 228.788C155.337 231.365 156.513 227.842 159.319 227.68C160.11 227.634 158.247 222.549 158.213 214.673C158.196 211.109 157.889 212.405 158.84 211C160.059 212.116 159.57 210.384 160.225 217.657C160.27 218.162 160.225 217.495 161.085 224.556C161.505 227.971 161.895 227.552 163.042 227.223C167.669 225.899 165.634 224.234 164.187 215.795H164.178ZM156.436 285.617C157.608 287.571 156.97 286.957 160.648 299.128C161.966 303.487 162.002 304.443 163.214 304.293C167.914 303.149 172.119 300.517 175.202 296.789C178.442 292.617 190.77 289.743 185.785 283.667C184.022 281.307 182.844 278.562 182.349 275.657C181.863 273.594 178.51 268.056 176.964 264.267C175.305 260.206 176.506 259.072 173.076 252.765C169.256 245.744 170.709 241.859 165.462 229.669C165.256 229.183 165.083 229.082 164.49 229.233C163.152 229.572 161.678 229.233 160.325 229.53C157.302 230.197 157.006 231.903 151.78 232.446C149.534 232.679 146.777 233.742 145.868 231.665C141.008 220.551 142.688 213.683 140.576 209.16C139.291 206.414 140.287 205.63 139.707 202.986C139.221 200.8 139.923 199.803 142.105 198.827C144.598 197.714 149.47 196.582 152.168 197.185C154.658 197.739 158.77 196.145 160.709 197.055C161.496 197.424 161.091 195.174 161.229 195.174C161.229 182.247 160.473 188.403 158.151 172.031C157.627 168.43 156.507 164.942 154.838 161.708C153.066 158.24 149.539 152.738 148.951 147.877C148.822 146.673 149.025 145.457 149.539 144.361C149.135 144.186 148.774 143.924 148.483 143.593C147.394 142.374 145.356 142.27 143.923 141.781C143.866 141.761 143.569 142.105 143.574 142.284C143.879 151.57 142.44 152.094 134.572 165.585C126.932 178.673 127.606 167.869 130.558 193.235C132.016 205.824 131.552 206.542 132.113 211.173C133.224 220.355 136.778 221.514 137.893 229.225C139.113 237.667 140.702 237.547 143.842 246.758C148.251 259.694 144.036 252.801 156.536 259.613C156.843 259.729 157.118 259.917 157.336 260.161C157.555 260.406 157.712 260.7 157.793 261.017C157.874 261.335 157.878 261.668 157.803 261.988C157.728 262.307 157.578 262.604 157.364 262.853C156.411 264.18 162.062 263.064 162.433 267.668C162.448 268.349 162.274 269.022 161.931 269.611C161.588 270.2 161.089 270.683 160.489 271.006C159.905 271.29 159.268 271.447 158.619 271.465C157.365 271.627 159.215 274.237 156.701 276.595C156.393 276.882 156.154 277.235 156.003 277.628C155.852 278.021 155.792 278.444 155.83 278.863C155.872 281.193 153.604 280.882 156.445 285.617H156.436ZM118.728 288.622C130.081 285.781 132.942 285.755 135.052 285.778C138.706 285.818 140.649 287.095 147.007 286.174C149.557 286.003 150.273 284.392 150.741 282.521C151.389 279.908 153.45 281.674 153.539 278.75C153.633 275.641 156.533 275.209 156.217 272.225C156.217 268.567 158.958 270.281 160.024 268.606C160.928 267.188 159.522 266.14 157.918 265.626C145.202 261.565 143.733 260.995 142.042 260.423C140.189 259.796 141.536 258.576 142.56 258.803C154.833 261.622 153.532 263.726 155.66 261.421C153.501 260.025 151.185 258.887 148.76 258.032C143.312 256.375 145.752 257.126 138.539 257.301C137.933 257.255 137.327 257.399 136.807 257.714C136.287 258.029 135.878 258.499 135.638 259.057C135.001 260.371 133.921 261.463 133.189 262.738C129.312 269.508 129.77 271.227 125.845 271.313C122.84 271.377 123.399 272.046 80.2323 272.038C68.9118 272.038 68.9296 271.818 67.2335 274.225C65.5146 276.665 65.8937 278.491 62.5695 281.313C57.9395 285.245 57.528 290.913 57.076 294.759C57.8682 300.348 56.6403 300.126 63.5561 300.4C66.0249 300.511 109.277 290.989 118.745 288.622H118.728ZM61.578 307.008C71.494 309 74.7454 307.738 76.4172 307.557C102.823 304.701 109.005 313.091 108.095 293.84C108.043 292.745 68.6655 302.152 65.8872 302.417C64.7775 302.523 64.8488 303.139 61.0386 306.808C61.2158 306.89 61.3995 306.956 61.5878 307.008H61.578ZM33.9279 294.741C35.4264 298.827 38.9013 294.869 42.1558 299.763C44.3023 302.987 44.9795 303.784 47.6719 305.098C49.1883 305.836 49.1931 303.714 56.2579 305.115C57.3099 305.294 58.391 305.166 59.3722 304.747C60.3534 304.328 61.1934 303.635 61.7919 302.752C56.9529 301.979 56.6289 302.938 56.0247 300.583C54.8817 296.243 55.108 291.657 56.6727 287.451C58.5486 281.862 61.3172 280.054 63.1737 277.765C64.6544 275.939 64.9233 273.675 67.2691 271.654C68.1293 270.914 68.9442 270.284 72.3365 270.388C75.591 270.488 75.4485 270.337 75.4144 269.399C75.3124 266.929 73.7426 267.237 71.2251 265.685C69.8481 264.837 69.9891 263.326 69.7963 262.177C69.6944 261.772 69.495 261.398 69.2155 261.087C68.9359 260.777 68.5848 260.539 68.1925 260.395C63.0085 257.834 56.6743 261.972 52.3618 265.387C48.4042 268.52 43.1052 270.386 38.8559 277.831C33.9441 286.453 31.6404 288.478 33.9376 294.741H33.9279ZM32.6043 268.659C33.079 272.728 31.169 279.22 33.0466 283.667C34.4803 282.173 37.2586 274.002 43.2251 269.411C45.9628 267.305 48.8011 265.591 50.7192 264.227C58.6896 258.571 60.0277 258.042 63.2434 257.799C67.6174 257.475 67.4327 257.701 69.0106 258.215C69.3322 257.273 69.5229 256.292 69.5776 255.299C69.0154 248.286 67.41 245.922 68.8129 240.798C70.6257 234.177 68.6007 229.863 68.4144 221.809C68.2524 215.045 69.9243 217.478 67.8507 206.935C64.5896 190.358 65.8095 187.873 58.0918 178.96C56.7459 177.403 55.0788 176.156 53.2052 175.304C51.3316 174.453 49.2958 174.017 47.2378 174.027C44.7689 174.04 42.6062 175.407 40.3852 176.426C37.5466 177.88 35.3026 180.277 34.038 183.206C29.9249 190.902 32.2982 198.074 30.8483 204.603C27.4333 219.975 36.4292 223.848 31.2403 239.834C28.4717 248.391 31.5481 259.525 32.6141 268.659H32.6043Z" fill="#000001"/>
</svg>
