<svg width="301" height="301" viewBox="0 0 301 301" fill="none" xmlns="http://www.w3.org/2000/svg">
<path d="M173.367 258.8C174.074 254.903 173.728 254.076 171.711 249.953C169.695 245.83 170.417 243.829 170.884 241.106C171.211 236.986 171.331 232.853 171.245 228.722C171.245 228.722 140.791 221.906 100.526 249.697C61.405 276.706 46.3585 277.669 46.3585 277.669C46.3585 277.669 43.7705 289.571 45.3052 291.105C46.84 292.64 55.567 293.693 68.6424 290.157C81.7179 286.621 95.0642 291.662 108.034 291.572C121.004 291.481 136.623 287.915 147.532 290.157C158.44 292.399 180.905 288.863 180.905 288.863C180.905 288.863 176.18 273.064 174.886 270.115C173.343 266.557 172.817 262.64 173.367 258.8Z" fill="#41AA67"/>
<path d="M190.535 178.285C190.337 177.292 190.018 176.327 189.587 175.411C188.475 172.546 187.589 169.597 186.938 166.594C186.698 164.848 182.575 158.483 181.913 156.994C180.995 154.948 178.904 153.292 175.759 150.253C174.254 148.748 172.358 149.064 169.424 147.936C165.016 146.266 163.977 144.927 157.613 142.579C156.32 142.026 155.102 141.313 153.986 140.458C149.473 137.704 153.069 138.788 147.968 148.914C146.599 151.622 143.619 156.151 142.927 157.611C139.933 164.006 123.683 175.396 117.122 173.951C99.9392 170.175 96.8697 160.409 92.6567 143.347C90.2793 133.431 87.5709 132.167 89.1659 125.953C89.4969 124.689 81.6426 129.113 81.1461 129.549C78.9192 131.385 69.6956 134.83 66.912 135.974C62.2175 137.885 65.6331 135.176 49.8041 141.992C39.437 146.506 39.0759 153.578 37.9775 156.738C34.7726 165.856 33.8848 165.947 31.2818 178.089C28.8442 189.419 29.7771 191.18 29.1903 195.348C28.4831 200.223 25.4587 208.995 25.3685 213.012C25.1578 222.838 23.3372 224.357 24.6613 224.056C29.4611 222.928 28.3627 223.259 29.6266 222.973C30.8613 222.68 32.0773 222.314 33.2679 221.875C46.208 218.489 48.4649 221.062 53.0391 220.505C63.1353 219.287 64.3541 218.534 69.7859 218.655C70.6586 218.655 70.1771 218.128 70.0868 215.901C69.8762 210.966 71.4109 202.54 70.0868 196.897C67.4988 185.853 69.2593 194.4 68.5822 172.206C68.2512 162.636 65.0312 156.753 66.9271 156.813C67.3183 156.813 67.6944 156.813 67.86 157.37C69.6584 162.193 70.6744 167.273 70.8693 172.417C71.209 176.681 71.2844 180.963 71.095 185.236C70.2223 194.264 74.2848 195.317 72.7501 208.649C70.5683 227.607 78.9643 226.268 63.2407 230.827C62.3529 231.098 62.9397 231.685 62.5937 234.273C62.5937 234.649 62.6839 235.627 63.03 235.612L79.4609 232.452C83.2375 231.339 81.3116 232.452 95.1243 227.186C124.721 215.796 122.825 216.518 123.066 215.45C123.307 214.382 130.589 210.936 132.094 211.312C133.598 211.688 133.749 211.071 134.351 210.695C141.257 206.362 140.655 207.686 143.8 204.977C147.727 201.532 148.75 202.209 153.941 198.583C158.044 195.949 162.469 193.856 167.107 192.353C167.483 192.218 167.604 192.098 167.574 191.135C167.574 189.073 168.386 184.333 168.446 179.789C168.268 177.904 168.198 176.01 168.236 174.117C168.341 173.169 169.74 173.47 169.861 174.117C169.981 174.764 170.402 179.549 170.432 180.361C170.748 186.726 168.732 191.932 170.146 191.39C174.811 189.555 177.67 188.155 182.846 188.622C185.028 188.832 185.043 189.058 185.268 188.622C185.855 187.388 187.42 185.612 187.947 184.725C188.611 183.256 189.354 181.824 190.173 180.436C190.51 179.773 190.636 179.022 190.535 178.285ZM76.1807 189.464C76.271 190.292 75.3531 190.834 74.4955 190.111C73.2767 189.073 75.0974 181.836 75.4133 178.074C75.7594 174.012 75.1575 175.306 75.8798 167.542C76.9631 156.136 74.6309 154.286 75.6089 154C81.2514 152.059 76.0001 188.216 76.1205 189.464H76.1807ZM164.143 188.261C163.466 188.411 163.135 188.17 162.999 187.418C160.697 175.215 160.607 175.381 161.811 175.17C163.014 174.959 163.045 175.411 164.925 186.515C164.925 187.779 164.745 188.08 164.083 188.261H164.143Z" fill="#41AA67"/>
<path d="M70.719 223.44C70.6137 224.944 70.8996 224.869 69.5604 224.703C67.6194 224.463 66.1448 225.065 63.1807 225.2C59.727 225.211 56.2764 225.407 52.8437 225.787C48.1341 226.75 44.4326 223.831 34.4718 227.141C30.7553 228.375 26.6626 228.014 23.4276 229.398C22.8709 229.639 22.9161 229.609 23.7286 225.862C23.8941 225.095 29.5817 225.14 31.5227 224.252C35.8963 222.705 40.5007 221.911 45.1398 221.905C51.1585 222.04 48.5103 223.199 60.066 221.333C63.3503 220.649 66.7034 220.351 70.0569 220.445C70.4933 220.43 70.403 220.536 70.719 223.44Z" fill="white"/>
<path d="M165.377 66.61C166.039 66.8357 165.858 66.61 163.676 73.3508C163.225 74.8555 163.315 75.8335 161.254 75.7583C156.937 74.897 152.707 73.6481 148.615 72.0267C147.441 71.5001 147.878 69.0174 148.043 67.8588C148.931 61.3738 149.096 62.0358 149.728 62.1562C155.076 63.1317 160.317 64.6233 165.377 66.61ZM153.099 67.2269C153.761 66.3241 153.686 64.3981 152.226 64.4733C151.952 64.5036 151.69 64.5982 151.459 64.7494C151.229 64.9005 151.038 65.104 150.902 65.3432C150.765 65.5824 150.687 65.8505 150.674 66.1256C150.661 66.4007 150.713 66.6749 150.827 66.9259C150.893 67.1602 151.027 67.3699 151.211 67.5291C151.396 67.6884 151.622 67.7903 151.864 67.8223C152.105 67.8543 152.351 67.8149 152.57 67.7091C152.79 67.6034 152.973 67.4357 153.099 67.2269Z" fill="white"/>
<path d="M127.339 58.6806C125.037 58.4398 124.751 62.6077 126.978 62.1112C129.205 61.6147 128.994 58.801 127.339 58.6806ZM125.925 57.7778C129.993 58.2258 134.019 59.0007 137.962 60.095C138.775 60.2906 138.534 60.095 137.074 67.0465C136.743 68.6865 136.999 69.3335 135.57 69.6044C130.986 69.3747 126.444 68.6277 122.028 67.3775C120.358 66.7606 120.839 62.4723 121.215 57.9734C121.351 57.3565 120.93 56.9954 125.925 57.7326V57.7778Z" fill="white"/>
<path d="M224.976 179.051L225.684 179.157C225.067 180.192 224.399 181.197 223.682 182.166C222.87 183.325 221.937 182.768 220.086 182.392C218.959 182.15 217.86 181.792 216.806 181.323C216.31 181.098 215.497 180.857 216.475 179.157C217.137 178.013 219.334 173.966 220.146 172.882L220.959 173.198C220.697 173.448 220.523 173.777 220.466 174.134C220.408 174.492 220.47 174.858 220.64 175.178C220.811 175.497 221.082 175.752 221.411 175.902C221.741 176.053 222.11 176.092 222.464 176.012L223.276 176.463C223.031 176.568 222.819 176.737 222.66 176.951C222.501 177.165 222.402 177.417 222.373 177.682C222.281 178.013 222.305 178.366 222.442 178.682C222.578 178.997 222.818 179.257 223.123 179.417C223.427 179.577 223.777 179.628 224.114 179.561C224.451 179.495 224.756 179.315 224.976 179.051ZM220.116 181.007C220.623 180.783 221.02 180.368 221.223 179.853C221.426 179.338 221.417 178.763 221.2 178.254C221.107 178.043 220.971 177.855 220.799 177.702C220.627 177.548 220.424 177.434 220.204 177.367C219.984 177.3 219.752 177.281 219.523 177.312C219.295 177.343 219.077 177.423 218.883 177.547C217.017 178.51 217.844 181.82 220.116 181.023V181.007Z" fill="white"/>
<path d="M222.283 172.69C222.033 172.674 221.782 172.718 221.552 172.817C221.322 172.917 221.119 173.069 220.959 173.262L220.146 172.946C220.452 172.42 220.939 172.024 221.515 171.832C223.652 171.879 225.766 172.275 227.775 173.006C228.753 173.277 228.858 173.578 228.241 174.661C227.76 175.504 226.556 177.67 225.683 179.175L224.976 179.07C225.653 178.167 225.533 176.482 223.968 176.421C223.732 176.411 223.497 176.447 223.276 176.527C221.32 175.443 223.426 176.978 223.832 174.33C224.013 173.201 223.125 172.72 222.283 172.69Z" fill="white"/>
<path d="M132.41 231.219C132.41 232.723 130.198 232.302 130.363 231.219C130.454 229.533 132.41 230.21 132.41 231.219Z" fill="#ABE3FF"/>
<path d="M129.822 220.853C129.822 218.927 132.259 219.348 132.229 221.094C132.214 222.523 129.852 222.688 129.822 220.853Z" fill="#41AA67"/>
<path d="M126.527 228.119C128.438 228.119 128.483 231.46 126.752 231.429C124.616 231.384 124.345 228.104 126.527 228.119Z" fill="#C5CDF3"/>
<path d="M124.315 223.53C124.3 223.117 124.444 222.713 124.719 222.403C124.993 222.094 125.376 221.901 125.788 221.867C126.201 221.832 126.61 221.957 126.933 222.216C127.255 222.476 127.465 222.849 127.52 223.259C127.399 226.359 124.164 225.351 124.315 223.53Z" fill="#D4F2E2"/>
<path d="M133.463 226.239C133.446 226.868 133.197 227.468 132.764 227.924C132.33 228.38 131.743 228.658 131.116 228.707C130.489 228.685 129.897 228.415 129.47 227.956C129.042 227.498 128.814 226.888 128.836 226.262C128.858 225.635 129.128 225.043 129.587 224.615C130.045 224.188 130.655 223.96 131.281 223.982C132.41 224.012 133.448 225.517 133.463 226.239Z" fill="#FFF59E"/>
<path d="M135.63 233.656C136.985 235.852 138.534 235.521 132.245 237.342C131.146 237.342 130.379 237.146 129.943 236.138C129.506 235.13 129.401 235.055 130.56 234.769C135.42 233.535 134.788 232.286 135.63 233.656Z" fill="#FFCCCE"/>
<path d="M130.77 216.532C130.77 217.39 130.77 217.555 130.003 217.571C128.373 217.761 126.778 218.176 125.263 218.804C124.721 218.97 124.857 219.03 124.661 217.661C124.622 217.217 124.735 216.773 124.981 216.401C125.227 216.03 125.591 215.752 126.015 215.614C131.898 213.192 130.454 213.102 130.77 216.532Z" fill="#FFCCCE"/>
<path d="M233.402 170.43C233.899 172.597 229.927 177.833 223.336 189.584C223.201 189.825 223.08 189.84 222.96 189.584C222.027 188.08 220.372 187.417 219.003 186.439C218.475 185.932 217.906 185.469 217.303 185.055C215.426 184.115 213.503 183.271 211.54 182.527C209.388 181.805 207.613 179.759 206.123 180.692C203.821 182.076 203.535 185.627 205.386 187.929C208.184 191.45 209.9 190.246 213.421 193.948C217.257 198.04 216.43 196.957 214.519 203.954C212.774 203.096 210.848 197.935 204.964 198.462C202.287 198.554 199.697 199.433 197.516 200.989C196.553 201.441 196.553 200.989 189.391 199.936C183.568 199.018 170.658 201.336 182.876 198.432C184.381 198.07 196.102 199.169 199.277 198.432C200.084 198.151 200.783 197.627 201.279 196.931C201.775 196.236 202.043 195.404 202.045 194.55C202.134 194.095 202.125 193.626 202.017 193.175C201.909 192.724 201.705 192.302 201.42 191.937C201.134 191.572 200.774 191.272 200.363 191.058C199.951 190.844 199.499 190.721 199.036 190.698C197.281 190.638 195.541 190.349 193.86 189.84C192.355 189.419 191.919 189.644 192.355 189.088C195.019 185.07 203.144 169.708 206.62 166.789C207.793 165.796 209.223 166.428 213.33 166.939C229.596 169 217.844 166.939 232.124 169.271C232.43 169.31 232.717 169.442 232.946 169.649C233.174 169.856 233.334 170.129 233.402 170.43ZM229.189 176.223C230.213 174.628 231.191 173.048 229.836 171.965C228.482 170.881 222.885 170.114 221.922 170.174C221.403 170.143 220.884 170.246 220.417 170.475C218.913 171.363 217.589 173.815 215.392 178.254C215.089 178.892 214.833 179.551 214.624 180.225C214.501 180.424 214.426 180.648 214.405 180.88C214.383 181.112 214.416 181.347 214.501 181.564C214.585 181.782 214.72 181.976 214.892 182.133C215.065 182.29 215.272 182.404 215.497 182.467C217.849 183.535 220.351 184.236 222.915 184.544C224.359 184.649 224.194 184.062 229.189 176.223Z" fill="#D4F2E2"/>
<path d="M233.944 164.818C234.378 165.142 234.738 165.555 234.997 166.031C235.257 166.506 235.411 167.032 235.449 167.572C235.362 168.257 235.126 168.914 234.757 169.498C234.396 167.993 233.342 167.497 229.942 167C225.217 166.323 218.461 165.601 214.233 164.969C204.859 163.464 205.882 163.84 202.407 168.791C191.769 183.927 191.468 189.645 188.759 189.314C186.848 189.088 186.939 190.112 192.13 180.858C193.996 177.518 200.375 166.142 203.024 162.802C203.471 162.181 204.095 161.709 204.814 161.448C206.932 161.165 209.082 161.231 211.179 161.644C223.457 163.238 231.943 163.675 233.944 164.818Z" fill="#D4F2E2"/>
<path d="M263.029 91.1794C250.766 93.7222 248.614 94.3391 248.118 92.684C247.621 91.0289 247.441 90.1562 249.622 89.5393C253.616 88.4303 257.691 87.6404 261.81 87.177C262.306 87.0882 262.811 87.0579 263.315 87.0867C263.782 87.2139 264.19 87.4991 264.47 87.8936C264.75 88.2881 264.885 88.7676 264.851 89.2503C264.818 89.7331 264.618 90.1892 264.285 90.5409C263.953 90.8927 263.509 91.1183 263.029 91.1794Z" fill="#ABE3FF"/>
<path d="M205.867 98.644C207.899 92.4297 217.333 95.8754 213.887 101.653C211.585 105.641 204.318 103.399 205.867 98.644Z" fill="#ABE3FF"/>
<path d="M266.896 26.8555C266.987 27.5744 266.922 28.3045 266.703 28.9955C266.485 29.6864 266.12 30.3219 265.632 30.8579C264.564 32.3626 263.36 33.8672 263.797 35.2214C265.723 41.4959 266.58 47.1383 265.076 52.3745C263.571 57.6107 261.178 61.914 254.618 67.6167C248.6 72.8529 235.69 75.3958 234.335 74.6886C233.824 74.4177 236.051 73.6955 237.345 72.8078C240.133 71.0635 242.338 68.5282 243.679 65.5252C244.116 64.2764 243.454 63.855 242.551 64.0958C239.256 64.9234 235.93 65.4199 233.267 63.3435C240.956 61.4326 240.911 58.7242 239.21 58.5135C239.21 58.5135 230.183 58.6489 226.797 54.481C228.618 54.2553 230.544 54.5713 232.65 53.6234C234.08 52.9764 235.268 51.9532 233.809 51.3363C230.213 49.8467 225.097 47.695 221.185 39.1185C219.367 34.8885 218.758 30.2374 219.424 25.6819C219.575 24.734 220.116 25.381 220.342 25.6819C220.767 26.2175 221.164 26.775 221.531 27.3521C226.607 34.263 234.213 38.883 242.686 40.2019C243.724 40.3523 243.709 39.8106 243.649 38.7875C243.258 32.9645 244.116 28.1044 249.758 25.9678C255.039 23.9817 255.777 26.9759 258.455 25.8324C260.607 24.9145 261.209 23.1842 261.961 22.3867C263.24 25.3058 261.073 29.0523 263.15 29.3834C264.022 29.4436 266.43 27.1715 266.896 26.8555Z" fill="#ABE3FF"/>
<path d="M278.362 119.829C278.678 121.996 279.445 124.9 274.57 126.389C269.695 127.879 259.915 128.375 247.486 130.482C215.572 135.869 235.103 130.753 220.493 150.042C218.326 152.886 214.218 155.143 214.805 154.135C217.447 149.545 218.935 144.381 219.138 139.089C219.063 131.671 219.469 135.523 209.328 135.252C207.402 135.252 206.319 134.048 205.536 132.107C204.378 129.203 203.851 124.042 202.015 114.126C200.27 104.662 198.51 98.8842 199.337 95.4535C200.842 89.1641 215.151 89.5252 266.565 80.0007C271.26 79.128 272.268 80.0007 273.05 81.5054C274.224 83.6721 274.555 87.9152 275.051 92.7903C275.127 94.4454 277.278 112.757 278.362 119.829ZM266.324 90.6687C266.623 89.8969 266.704 89.0578 266.558 88.2431C266.412 87.4284 266.045 86.6695 265.497 86.0494C264.308 84.8908 263.255 84.9059 260.02 85.4325C258.094 85.7485 254.092 86.2902 250.796 87.1478C249.376 87.3797 248.015 87.8911 246.794 88.6525C246.042 89.2393 245.936 89.6305 245.816 90.9697C245.752 91.7495 245.891 92.5326 246.221 93.2421C246.551 93.9517 247.059 94.5634 247.697 95.0172C249.427 95.935 250.616 95.273 254.543 94.6109C260.832 93.5426 263.736 93.031 265.271 92.0229C265.539 91.893 265.773 91.7033 265.956 91.4685C266.138 91.2337 266.264 90.9601 266.324 90.6687ZM257.959 109.146C259.915 108.559 260.697 108.604 260.441 107.265C260.351 106.738 259.553 106.407 258.621 106.693C258.621 106.693 211.796 115.857 210.953 115.962C208.922 116.233 208.154 115.962 207.944 117.106C207.944 117.632 207.944 118.339 209.012 118.4C209.89 118.535 210.783 118.535 211.66 118.4C223.246 116.383 256.815 109.507 258.019 109.146H257.959ZM251.579 122.327C251.758 122.178 251.887 121.977 251.946 121.752C252.006 121.527 251.993 121.289 251.91 121.071C251.827 120.854 251.678 120.667 251.483 120.539C251.289 120.411 251.059 120.347 250.826 120.356C235.78 122.838 219.695 126.374 212.488 127.367C211.51 127.488 209.975 127.518 210.05 128.616C210.05 129.113 210.05 129.82 210.757 129.895C213.225 130.166 231.823 126.179 241.753 124.192C244.477 123.651 251.037 122.959 251.579 122.327ZM250.766 103.699C250.842 103.278 250.51 103.112 250.194 102.947C249.268 102.627 248.266 102.596 247.321 102.856C244.928 103.218 211.42 110.034 209.494 110.38C207.568 110.726 207.086 110.921 207.056 111.884C207.026 112.847 207.733 113.118 210.261 112.742C213.27 112.276 246.794 105.414 247.877 105.219C250.104 104.903 250.51 105.128 250.766 103.699ZM242.385 117.858C243.995 117.587 244.131 117.316 243.664 116.128C243.424 115.526 242.43 115.751 241.588 115.857C240.189 116.037 210.863 121.273 210.321 121.499C209.779 121.725 209.554 123.425 210.532 123.47C213.029 123.621 239.842 118.279 242.385 117.858ZM216.355 99.802C217.393 91.4211 203.776 90.4882 203.806 100.043C203.836 106.633 215.241 108.935 216.355 99.8471V99.802Z" fill="white"/>
<path d="M144.026 90.8036C141.279 91.4696 138.437 91.6428 135.63 91.3152C130.92 90.8187 132.139 90.6832 128.106 89.2388C126.256 88.5767 134.712 88.035 134.892 88.02C136.924 88.035 138.895 87.704 144.026 90.8036Z" fill="white"/>
<path d="M177.956 23.0648C178.091 22.5231 178.212 22.1169 178.332 22.1169C178.452 22.1169 178.783 23.0498 178.783 23.8623C178.755 25.5013 178.605 27.136 178.332 28.7524C177.655 31.4608 176.286 33.8984 170.944 37.2838C169.304 38.322 168.356 38.7885 169.77 39.3753C171.185 39.9621 173.246 39.9922 174.284 43.5282C175.639 48.0421 170.763 53.5793 170.162 54.0607C169.364 50.2389 171.666 43.9344 164.143 35.1472C163.436 34.3046 165.648 33.6426 166.46 29.595C166.581 28.9932 165.888 28.5719 165.437 29.5198C164.757 31.0901 163.728 32.4847 162.428 33.5974C162.064 33.8176 161.645 33.9276 161.22 33.9143C160.796 33.9009 160.384 33.7647 160.035 33.5222C159.719 33.2814 159.795 33.131 159.915 32.9203C164.609 25.397 159.268 17.5879 159.373 16.4594C159.406 15.3568 159.336 14.2536 159.163 13.1642C161.57 14.1723 165.693 18.3703 166.686 24.9607C166.806 25.8936 167.092 26.5857 167.769 25.9237C168.883 24.8102 168.973 18.8819 169.018 18.8668C168.792 15.677 168.627 14.7892 169.018 15.3008C172.644 20.7477 172.027 26.4202 169.755 32.5893C169.439 33.4169 169.53 34.5604 170.207 34.094C172.384 32.8686 174.233 31.1339 175.593 29.0383C176.76 27.2188 177.562 25.1901 177.956 23.0648Z" fill="#E3B27D"/>
<path d="M159.719 26.3589C159.975 30.256 156.605 35.0709 154.95 32.6333C154.122 31.4146 154.844 31.2792 154.769 27.5476C154.573 18.2037 150.767 17.8125 149.789 15.2245C148.434 11.6885 146.147 10.3042 147.667 10.6202C156.906 12.501 159.9 22.1609 159.719 26.3589Z" fill="#E3B27D"/>
<path d="M119.997 10.652C124.39 10.8777 120.553 10.8025 131.236 10.7423C139.572 10.7423 143.274 14.203 146.193 15.7227C150.601 18.0399 153.355 22.614 152.708 30.348C152.557 32.0783 150.255 32.7103 148.976 32.4996C138.985 30.7994 140.505 27.444 126.136 25.849C123.939 25.6083 123.608 27.5042 125.594 27.775C132.756 28.7831 130.951 28.4521 133.839 29.4C138.263 30.9047 140.144 31.2207 139.316 31.6269C129.16 36.7428 120.839 31.988 118.251 34.1096C117.198 34.9522 117.679 35.3133 118.763 35.8099C119.274 36.0356 118.266 35.539 122.63 35.8099C124.736 35.9603 124.616 36.0055 124.45 36.3515C122.464 40.5646 110.231 41.1213 112.187 43.4836C112.261 43.5672 112.351 43.6345 112.452 43.6812C112.553 43.7278 112.663 43.7528 112.774 43.7545C114.083 43.7545 114.414 43.1827 114.399 44.1758C114.399 50.3298 110.472 52 111.601 57.2512C112.142 59.8242 112.052 59.7189 111.495 59.7339C107.463 59.7339 106.44 59.9897 105.702 59.0719C104.875 58.1368 103.846 57.4012 102.693 56.9202C102.347 56.8149 102.467 56.9202 101.188 52.9479C100.165 49.7279 100.135 50.1192 100.451 47.2001C100.541 46.3425 100.451 46.1469 100.993 46.2522C108.516 47.7568 110.367 45.1688 109.148 44.0554C107.929 42.9419 107.147 45.7857 100.225 43.6642C98.8788 43.1436 97.7168 42.2353 96.8865 41.0541C96.0562 39.873 95.5949 38.472 95.561 37.0286C95.561 35.8851 95.9974 36.2462 96.2682 36.4117C97.7108 37.1429 99.223 37.7277 100.782 38.1571C103.81 38.747 106.944 38.4545 109.81 37.3145C111.917 36.0958 111.495 34.9372 110.578 34.5911C110.171 34.4557 109.073 35.2682 107.779 35.5691C104.243 36.3816 97.472 30.5135 98.2544 25.1268C98.3898 24.2842 98.7058 25.7588 102.874 26.9474C107.959 28.4521 111.134 26.9474 115.904 26.797C119.365 26.7217 119.5 27.0829 119.831 25.9694C120.568 23.4566 112.714 24.9011 111.315 24.9162C106.214 24.9162 102.693 20.974 102.648 19.8003C104.845 20.3309 107.099 20.5886 109.359 20.5677C122.103 20.5677 126.226 19.063 137.646 24.2541C141.062 25.7588 146.283 30.694 147.156 29.8364C148.66 28.3317 140.55 23.3062 138.639 22.4184C124.721 15.9785 116.22 19.4091 111.661 17.7841C110.818 17.4681 109.599 16.9114 109.329 15.7979C111.924 16.0511 114.535 16.1014 117.138 15.9484C121.471 15.6324 126.722 15.482 129.431 15.5422C136.954 15.7077 143.545 19.1684 148.134 26.9023C148.931 28.2565 148.961 28.2866 149.849 28.407C152.226 28.5875 145.185 12.262 126.226 13.541C125.005 13.795 123.736 13.6636 122.593 13.165C121.45 12.6663 120.49 11.825 119.846 10.7573C119.726 10.6069 119.786 10.637 119.997 10.652Z" fill="#E3B27D"/>
<path d="M160.713 87.4038C161.886 87.1329 161.314 87.2834 160.953 89.6608C160.667 91.5717 158.772 94.0844 158.11 95.6794C157.011 98.2674 157.538 100.735 154.408 102.857C148.239 106.994 150.315 110.244 143.349 112.712C142.401 113.058 142.672 112.878 138.203 116.113C134.216 119.017 128.603 115.917 125.654 116.113C121.441 116.368 121.577 112.712 117.454 111.328C115.678 110.726 115.573 109.582 114.354 107.566C112.518 104.557 110.036 105.114 109.434 100.735C108.652 94.8669 107.583 96.853 107.433 92.8055C108.381 86.0044 106.199 86.9825 106.996 82.8146C107.428 81.6762 107.74 80.4963 107.929 79.2937C110.758 60.1845 104.303 62.3362 111.345 62.607C112.052 62.607 111.48 63.1337 111.495 66.0076C111.495 68.4 113.09 67.3467 112.428 75.2161C112.425 76.4258 112.787 77.6083 113.466 78.6094C114.145 79.6106 115.11 80.3839 116.235 80.8284C121.516 82.1977 122.494 78.8573 126.918 79.8203C131.011 80.7381 135.314 78.3156 137.571 79.8203C139.828 81.325 144.056 80.5125 147.517 82.9801C149.759 84.6051 150.526 85.6584 153.069 85.538C156.485 85.4327 156.801 88.2915 160.713 87.4038ZM128.227 91.3911C138.353 95.7245 151.64 92.2488 147.788 90.3679C133.373 83.3111 135.359 86.4257 123.563 87.4941C123.29 87.46 123.025 87.3785 122.78 87.2533C126.196 84.244 120.734 83.9732 120.493 88.758C120.552 89.219 120.658 89.6727 120.809 90.1122C121.11 90.8795 122.133 90.8043 122.419 89.6608C122.419 89.4802 122.419 89.3899 122.72 89.4652C124.604 89.9605 126.445 90.6045 128.227 91.3911ZM135.299 104.647C138.504 107.747 139.542 104.813 138.308 104.105C136.202 102.947 136.397 100.419 126.948 102.029C126.727 102.058 126.524 102.166 126.376 102.333C126.229 102.501 126.148 102.716 126.148 102.939C126.148 103.162 126.229 103.378 126.376 103.545C126.524 103.713 126.727 103.821 126.948 103.85C128.122 104.105 133.087 102.526 135.299 104.647ZM132.681 108.424C133.87 105.415 125.383 104.768 125.308 106.513C125.233 108.258 129.476 106.784 131.071 108.454C131.342 108.74 132.41 109.041 132.681 108.424Z" fill="#E3B27D"/>
<path d="M138.323 133.204C140.009 134.814 149.097 139.404 148.856 139.87C145.847 149.199 138.414 161.748 130.469 166.081C118.612 172.536 120.704 172.1 112.308 170.023C110.061 169 107.937 167.728 105.973 166.232C99.8344 161.718 96.5542 149.68 94.7035 142.293C93.0183 135.461 91.0321 132.452 90.6108 128.751C90.8064 127.863 91.002 126.689 91.303 126.78C92.1907 127.05 94.8389 125.892 95.4257 125.726C105.958 122.717 104.785 101.923 106.38 97.7698C106.846 98.4619 106.936 100.779 107.884 103.788C108.938 106.993 111.766 107.114 112.925 110.018C114.565 114.155 117.168 113.027 119.094 115.359C120.689 117.24 122.013 118.594 124.917 118.579C128.649 118.579 129.717 120.084 135.088 119.873C136.894 119.768 137.526 117.571 136.217 122.672C135.768 124.645 135.646 126.678 135.856 128.69C136.08 130.452 136.961 132.065 138.323 133.204Z" fill="#FFCEB6"/>
<path d="M196.268 220.73C194.176 220.609 187.706 220.835 185.028 220.82C184.291 220.82 184.411 220.338 184.306 220.308C187.736 218.247 206.093 222.61 207.282 215.99C207.434 215.173 207.34 214.33 207.011 213.567C206.65 212.68 205.266 212.288 202.783 212.063C191.152 211.28 188.955 210.814 183.222 211.31C182.47 211.31 182.47 211.04 182.651 210.468C183.673 210.045 184.737 209.733 185.826 209.535C194.282 208.527 191.408 209.43 201.384 209.535C206.56 209.625 210.998 207.428 207.869 203.215C207.086 202.162 202.302 202.252 201.053 201.711C202.046 200.673 205.311 200.582 206.003 200.522C208.546 200.266 211.239 203.035 212.548 205.232C213.857 207.428 215.332 208.933 215.979 208.753C216.626 208.572 216.731 208.422 216.701 207.564C216.596 202.734 217.318 203.862 218.206 198.115C218.447 196.61 217.965 195.767 213.827 191.449C211.42 188.951 205.311 187.943 206.304 183.58C206.5 182.782 207.162 182.346 207.733 182.767C210.743 184.964 214.549 185.175 217.333 187.868C218.943 189.373 220.342 188.996 221.847 191.554C223.352 194.112 224.856 194.819 224.751 196.354C223.623 207.744 221.742 203.471 222.268 212.108C222.479 215.614 220.041 219.526 219.124 223.423C217.619 229.517 218.04 247.227 206.349 265.343C201.564 272.866 196.494 272.535 193.304 272.776C189.639 272.816 186 272.168 182.575 270.865C179.668 269.772 177.081 267.966 175.052 265.614C174.45 264.951 174.691 261.325 174.766 260.453C175.308 253.441 172.705 250.958 172.193 245.301C171.832 241.494 173.352 240.606 172.434 229.712C172.314 228.208 172.75 230.013 184.863 228.81C186.367 228.659 184.516 229.968 187.721 233.128C190.926 236.288 190.731 233.384 185.78 237.356C181.853 240.546 179.25 248.445 181.552 248.099C182.756 248.009 181.552 246.805 185.434 241.509C188.052 237.913 191.874 237.311 192.958 236.529C194.041 235.746 194.267 236.529 196.659 237.898C197.953 238.68 193.996 238.5 202.151 251.921C202.482 252.463 203.656 252.463 203.957 251.801C204.393 250.657 204.408 251.048 201.248 245.391C199.744 242.592 199.217 242.457 198.931 239.523C198.888 239.129 199.001 238.735 199.247 238.424C201.369 236.348 193.966 233.429 192.612 233.098C191.598 232.819 190.652 232.339 189.829 231.684C189.007 231.03 188.326 230.216 187.827 229.291C187.436 227.892 188.248 228.298 190.731 228.268C197.742 228.163 200.045 226.282 200.15 224.205C200.255 222.129 199.924 220.955 196.268 220.73Z" fill="#FFCEB6"/>
<path d="M127.219 235.897C128.212 237.823 127.685 236.574 119.696 241.645C118.612 242.322 96.524 253.788 82.305 261.973C72.9912 267.344 59.9007 272.897 53.7165 274.356C46.1933 276.147 37.9929 275.861 31.8388 268.909C30.9059 267.871 30.2439 266.667 29.3261 265.75C26.4798 262.815 24.7316 258.989 24.3757 254.916C24.7519 241.931 24.9926 242.262 25.8804 235.867C26.6779 230.375 25.5193 230.902 28.6941 230.616C35.3296 230.044 40.2348 227.606 43.7407 228.013C53.4758 229.216 60.8486 226.99 60.8035 228.118C60.4724 235.355 61.3752 235.265 51.7003 238.214C51.1019 238.475 50.476 238.666 49.8345 238.786C48.8715 238.786 47.2616 239.057 46.8252 239.93C45.1249 243.165 54.9955 239.538 57.8694 239.012C99.413 231.489 77.4299 235.205 122.013 218.91C122.464 218.744 122.555 218.834 122.585 219.331C122.644 219.629 122.624 219.938 122.526 220.226C122.429 220.514 122.257 220.771 122.028 220.971C119.876 222.912 122.404 233.73 126.241 235.085C126.661 235.216 127.013 235.508 127.219 235.897Z" fill="#FFCEB6"/>
<path d="M206.033 205.173C206.89 206.045 206.349 207.55 202.933 207.64C200.629 207.797 198.315 207.717 196.027 207.399C182.876 206.482 185.825 207.791 176.211 209.235C172.991 209.717 170.403 209.912 170.764 211.492C171.004 212.515 171.185 212.666 173.999 212.997C176.557 213.268 179.13 213.388 181.703 213.358C188.052 213.283 188.669 212.515 198.645 213.614C200.558 213.656 202.465 213.853 204.348 214.2C205.642 214.501 205.672 216.172 204.348 216.834C200.827 218.534 190.806 216.834 185.675 217.511C183.042 217.827 183.042 218.684 174.51 219.286C172.614 219.422 170.794 221.257 172.554 221.949C174.315 222.642 182.319 222.852 188.774 222.672C193.183 222.536 196.298 222.175 197.366 222.822C197.526 222.963 197.654 223.137 197.742 223.332C197.83 223.526 197.875 223.737 197.875 223.951C197.875 224.164 197.83 224.375 197.742 224.57C197.654 224.764 197.526 224.938 197.366 225.079C195.861 226.328 187.646 226.584 181.221 226.99C177.712 227.23 174.188 227.175 170.688 226.825C167.6 227.185 164.588 228.033 161.766 229.337C153.024 232.347 153.596 231.023 149.051 231.745C138.519 233.43 138.519 235.145 137.33 232.076C137.029 231.293 138.067 230.014 137.33 226.99C135.916 220.971 135.645 219.331 133.403 217.782C132.756 217.345 132.726 216.864 132.801 214.261C132.801 213.042 140.565 209.626 141.829 208.784C147.005 205.458 143.575 206.858 148.57 204.134C154.935 200.659 159.268 197.213 165.633 195.182C177.805 191.27 172.389 192.413 178.001 191.164C181.928 190.292 183.568 191.375 188.669 191.586C194.507 191.826 195.726 192.804 198.434 192.729C199.518 192.729 199.819 193.918 199.728 194.836C199.63 195.382 199.354 195.88 198.943 196.253C198.532 196.626 198.009 196.852 197.456 196.897C192.807 197.529 183.508 195.723 179.777 197.183C173.758 199.53 174.239 198.687 170.342 200.734C169.44 201.215 168.627 201.441 168.838 202.148C169.394 203.472 170.719 202.013 186.412 202.148C189.271 202.436 192.11 202.898 194.913 203.532C197.486 203.803 205.416 204.541 206.033 205.173ZM167.017 218.263C166.882 216.397 168.206 215.148 167.86 213.042C167.408 210.228 165.874 210.123 166.355 208.227C166.774 207.384 166.951 206.441 166.867 205.504C166.581 203.186 164.911 202.87 164.82 200.297C164.82 199.244 165.136 198.326 164.309 198.206C162.804 197.995 162.894 200.493 163.135 201.922C163.571 204.526 165.407 204.646 164.549 206.978C163.692 209.31 164.354 210.409 165.527 212.621C166.325 214.125 164.745 215.209 164.85 218.113C164.952 219.699 165.292 221.262 165.858 222.747C165.909 222.988 166.052 223.2 166.256 223.337C166.46 223.475 166.709 223.528 166.952 223.485C167.194 223.442 167.41 223.307 167.554 223.107C167.699 222.907 167.76 222.66 167.724 222.416C167.589 221.182 167.017 219.181 167.017 218.263Z" fill="#FFCEB6"/>
<path d="M105.447 62.1094C107.914 67.0748 105.928 78.4952 105.657 79.3077C104.83 78.5704 104.784 78.1641 101.008 78.2544C97.2311 78.3447 94.7936 68.8804 95.5309 64.8479C95.8294 63.4629 96.3748 62.1428 97.1408 60.9509C97.558 60.2827 98.1427 59.7353 98.837 59.3631C99.5312 58.991 100.311 58.8069 101.098 58.8293C102.588 58.6788 104.89 60.981 105.447 62.1094ZM104.529 67.1049C103.611 63.6592 103.144 61.0863 100.496 61.312C99.9971 61.3318 99.5096 61.468 99.0724 61.7098C98.6353 61.9515 98.2608 62.2921 97.9786 62.7043C97.6965 63.1165 97.5147 63.5889 97.4476 64.0839C97.3805 64.5789 97.43 65.0827 97.5922 65.5551C97.8781 66.6535 98.8712 66.2322 98.9615 65.0435C99.0517 63.8549 100.286 62.8768 101.008 63.6592C101.73 64.4417 101.76 65.1639 102.512 67.1501C103.084 68.76 101.309 68.5795 100.466 71.1675C99.473 74.2972 102.136 76.3435 103.897 75.4257C104.694 75.0194 104.709 74.2671 103.551 73.921C102.392 73.5749 101.956 73.0784 102.151 72.3261C102.708 70.2195 105.146 69.5124 104.529 67.1049Z" fill="#FFCEB6"/>
<path d="M148.6 74.3719C164.61 80.0444 162.142 76.0872 162.533 79.1868C162.368 83.9415 162.533 82.9785 161.721 84.2123C160.006 86.8455 157.959 84.6637 154.754 83.5804C153.325 83.0989 151.745 83.8663 150.24 82.4369C148.951 81.2339 147.408 80.3343 145.726 79.8037C144.884 79.4877 146.629 78.9761 147.336 77.3662C148.45 74.6879 147.697 74.0559 148.6 74.3719Z" fill="#FFCEB6"/>
<path d="M145.004 65.3008C146.117 66.1885 146.042 66.8054 145.922 69.0323C145.922 70.1458 145.094 68.8819 143.063 69.0323C142.59 69.0843 142.114 68.9785 141.709 68.7314C141.272 68.4455 140.715 68.4606 140.565 69.3182C140.294 70.8981 141.754 71.1539 143.574 71.2893C146.147 71.4849 146.584 75.3218 144.312 77.1274C143.634 77.6691 142.897 78.4816 141.678 78.2107C140.174 77.8797 138.037 77.338 137.827 75.7581C137.676 74.5695 136.472 74.2535 136.141 75.1713C135.6 76.676 136.683 77.323 135.825 77.3079C132.289 77.2177 130.679 78.2408 128.302 77.8948C125.984 77.3645 123.556 77.5967 121.381 78.5568C119.758 79.2556 117.926 79.288 116.28 78.6471C114.565 75.9838 114.775 77.6089 114.775 74.1331C114.775 72.1771 115.046 68.9872 114.008 66.8957C113.692 65.7945 113.692 64.6265 114.008 63.5253C114.128 62.773 114.008 62.6526 117.273 63.3748C121.697 64.3829 115.257 69.3935 127.474 70.7476C131.988 71.2141 137.195 73.2002 138.624 69.7997C139.006 68.331 139.509 66.8966 140.129 65.5114C140.82 64.9769 141.66 64.6696 142.533 64.6319C143.406 64.5941 144.269 64.8278 145.004 65.3008Z" fill="#FFCEB6"/>
<path d="M159.494 59.629C160.547 59.8999 163.541 63.6013 163.902 60.4566C164.053 59.9149 163.902 59.7494 161.404 57.7783C159.764 56.4843 152.978 54.9345 151.805 53.9866C150.887 53.2343 150.405 54.4982 149.999 54.8292C148.871 55.7771 149.999 57.1464 151.233 57.5225C156.183 59.0723 153.054 57.9589 159.494 59.629ZM165.738 62.7587C165.377 63.8571 165.738 63.3155 159.208 61.2541C155.477 60.1067 151.649 59.3009 147.772 58.8466C146.915 58.636 146.93 58.8466 146.614 61.224C146.614 61.6302 147.065 61.8409 147.05 62.0515C146.674 65.4671 146.508 61.5249 141.814 62.0515C140.505 62.2171 140.204 62.7738 140.49 61.54C140.776 60.3061 141.107 61.1187 141.227 60.3061C141.603 57.8235 141.709 57.7934 141.001 57.5978C135.223 55.8848 129.292 54.7359 123.292 54.1671C118.778 53.6255 119.214 53.7308 119.063 54.453C118.552 56.7852 118.477 57.0711 119.063 57.1765C119.65 57.2818 119.304 57.357 119.229 59.3582C119.229 60.0203 118.958 59.8999 117.002 60.1105C114.128 59.93 114.098 60.1105 113.993 59.4334C113.466 56.0781 113.09 55.1753 113.872 53.4148C114.956 50.9321 117.002 46.7943 116.084 43.9505C115.934 43.454 116.084 43.3035 116.611 43.138C120.132 42.0246 125.398 40.1287 126.527 36.683C126.903 35.4944 127.911 37.5557 135.148 35.6599C141.272 34.0348 140.535 31.823 142.356 32.7559C144.898 34.095 150.736 35.374 152.602 33.5533C153.009 33.1471 154.002 35.8555 157.116 35.1784C157.733 35.043 158.335 34.3057 158.621 34.8022C160.126 37.3451 163.135 32.3045 166.987 44.748C167.675 47.2324 168.024 49.7986 168.025 52.3766C168.1 54.8593 167.574 56.9056 165.678 62.7587H165.738ZM136.051 50.0745C136.236 50.1671 136.445 50.2038 136.651 50.18C136.857 50.1563 137.051 50.0732 137.211 49.9408C137.37 49.8084 137.488 49.6325 137.549 49.4345C137.61 49.2365 137.613 49.0249 137.556 48.8256C137.3 47.9529 136.668 47.9529 136.698 47.2156C136.698 45.6357 132.771 45.0489 131.808 45.0038C128.422 44.8533 127.896 45.1392 124.706 46.6439C119.304 49.277 121.531 53.0838 123.081 50.8569C123.893 49.6833 123.337 50.8569 125.413 49.7284C128.257 48.1034 129.822 48.8858 132.831 49.0363C133.968 49.1385 135.068 49.4932 136.051 50.0745Z" fill="#FFCEB6"/>
<path d="M277.579 97.8018C275.563 74.3743 275.427 76.2702 258.53 79.1741C208.876 87.7055 204.152 89.0296 202.692 89.6014C200.27 90.5794 198.63 91.4521 197.742 93.4684C196.854 95.4846 196.628 97.6814 197.652 103.023C199.307 111.675 202.542 132.033 203.956 134.275C205.807 137.179 208.816 137.284 212.548 137.073C216.279 136.863 217.378 135.779 217.318 137.374C217.389 142.344 216.214 147.253 213.902 151.653C212.834 153.835 211.118 156.273 213.511 156.574C218.025 157.145 225.849 147.937 228.136 139.195C229.37 134.515 228.241 135.704 237.405 134.109C290.624 124.78 280.814 135.629 277.579 97.8018ZM274.57 126.39C269.469 127.895 259.914 128.376 247.486 130.483C215.572 135.87 235.103 130.754 220.492 150.043C218.326 152.887 214.218 155.144 214.805 154.136C217.447 149.546 218.934 144.382 219.138 139.09C219.063 131.672 219.469 135.524 209.328 135.253C207.402 135.253 206.318 134.049 205.536 132.108C204.377 129.204 203.851 124.043 202.015 114.127C200.27 104.663 198.509 98.8851 199.337 95.4545C200.842 89.1651 215.151 89.5262 266.565 80.0017C271.259 79.129 272.268 80.0017 273.05 81.5064C274.224 83.6731 274.555 87.9162 275.051 92.7913C275.247 94.5818 277.383 112.894 278.422 119.965C278.617 121.997 279.385 124.886 274.51 126.39H274.57Z" fill="#000001"/>
<path d="M229.189 51.6206C230.784 52.3429 230.348 52.4783 225.458 52.403C224.224 52.403 223.441 52.403 223.592 53.7873C224.182 55.1646 225.16 56.3407 226.406 57.1728C231.702 60.6787 235.539 60.0317 236.246 60.3928C235.494 61.2956 232.951 61.1752 230.98 61.747C229.791 62.093 230.453 63.8986 232.74 65.3732C235.052 66.8071 237.832 67.2822 240.489 66.6973C240.91 66.607 240.79 66.9832 240.173 67.57C238.863 68.9562 237.416 70.2064 235.855 71.3015C231.461 73.7842 230.423 73.6939 229.836 74.8826C229.505 75.6199 230.107 76.2067 231.476 76.3873C234.551 76.9623 237.712 76.8957 240.76 76.1917C259.252 72.4902 273.862 55.608 266.129 34.8287C265.918 34.2719 267.754 32.6168 268.671 29.5172C269.122 27.901 269.205 26.2041 268.912 24.5519C268.732 23.8597 268.416 22.7914 267.844 22.7914C266.956 22.7914 267.046 24.5519 264.398 26.222C264.843 23.9422 264.492 21.579 263.405 19.5263C262.803 18.6837 261.81 18.5031 261.238 19.3758C261.013 19.7219 260.862 20.1131 260.667 20.4742C259.343 22.9419 257.958 23.5889 257.176 23.634C255.942 23.634 252.15 21.2266 246.643 24.5519C239.496 28.8401 241.362 37.1157 240.715 36.9803C229.626 34.603 224.51 27.4558 221.816 24.1155C221.466 23.6335 221.144 23.131 220.853 22.6108C220.447 21.9789 219.74 21.0159 218.491 22.6108C216.64 24.9431 216.37 31.8344 218.296 37.8681C220.598 45.1356 225.217 49.815 229.189 51.6206ZM219.454 25.6653C219.605 24.7174 220.146 25.3644 220.372 25.6653C220.797 26.2009 221.194 26.7583 221.561 27.3355C226.637 34.2464 234.243 38.8663 242.716 40.1852C243.754 40.3357 243.739 39.794 243.679 38.7709C243.288 32.9478 244.146 28.0878 249.788 25.9512C255.069 23.965 255.807 26.9593 258.485 25.8158C260.637 24.8979 261.238 23.1676 261.991 22.3701C263.27 25.2891 261.103 29.0357 263.179 29.3668C264.007 29.5022 266.429 27.2301 266.896 26.9142C266.987 27.633 266.921 28.3631 266.703 29.0541C266.485 29.7451 266.12 30.3805 265.632 30.9165C264.564 32.4212 263.36 33.9259 263.796 35.2801C265.722 41.5545 266.58 47.1969 265.075 52.4331C263.571 57.6693 261.178 61.9727 254.618 67.6753C248.599 72.9115 235.689 75.4544 234.335 74.7472C233.824 74.4764 236.05 73.7541 237.344 72.8664C240.133 71.1221 242.338 68.5868 243.679 65.5838C244.115 64.335 243.453 63.9137 242.551 64.1544C239.255 64.982 235.93 65.4785 233.267 63.4021C240.956 61.4912 240.91 58.7828 239.21 58.5721C239.21 58.5721 230.182 58.7076 226.797 54.5397C228.617 54.314 230.543 54.6299 232.65 53.682C234.079 53.035 235.268 52.0118 233.809 51.3949C230.212 49.8451 225.097 47.6935 221.184 39.1169C219.374 34.8795 218.775 30.2229 219.454 25.6653Z" fill="#000001"/>
<path d="M260.08 85.4329C258.154 85.7489 254.152 86.2906 250.857 87.1483C249.436 87.3801 248.076 87.8915 246.854 88.6529C246.102 89.2397 245.997 89.6309 245.876 90.9701C245.812 91.7499 245.952 92.533 246.281 93.2426C246.611 93.9521 247.12 94.5638 247.757 95.0176C249.487 95.9355 250.676 95.2734 254.603 94.6114C260.893 93.5431 263.797 93.0315 265.331 92.0233C265.594 91.898 265.825 91.7153 266.007 91.4887C266.189 91.2621 266.318 90.9975 266.385 90.7143C266.684 89.9425 266.764 89.1033 266.618 88.2887C266.472 87.474 266.105 86.7151 265.557 86.095C264.353 84.8913 263.315 84.9063 260.08 85.4329ZM263.09 91.1807C250.827 93.7236 248.675 94.3405 248.178 92.6854C247.682 91.0303 247.501 90.1576 249.683 89.5407C253.657 88.4348 257.712 87.6449 261.811 87.1783C262.307 87.0896 262.812 87.0593 263.315 87.0881C263.782 87.2153 264.19 87.5004 264.471 87.895C264.751 88.2895 264.886 88.769 264.852 89.2517C264.818 89.7345 264.618 90.1905 264.286 90.5423C263.953 90.894 263.509 91.1197 263.029 91.1807H263.09Z" fill="#000001"/>
<path d="M258.681 106.694C258.681 106.694 211.856 115.857 211.013 115.962C208.982 116.233 208.215 115.962 208.004 117.106C208.004 117.632 208.004 118.34 209.072 118.4C209.95 118.535 210.843 118.535 211.72 118.4C223.171 116.384 256.74 109.507 257.943 109.146C259.899 108.559 260.682 108.604 260.426 107.265C260.411 106.739 259.614 106.423 258.681 106.694Z" fill="#000001"/>
<path d="M250.827 120.369C235.78 122.882 219.695 126.388 212.488 127.381C211.51 127.501 209.975 127.531 210.051 128.63C210.051 129.126 210.051 129.834 210.758 129.909C213.225 130.18 231.823 126.192 241.754 124.206C244.477 123.664 251.037 122.972 251.579 122.34C251.759 122.192 251.887 121.991 251.947 121.766C252.006 121.541 251.993 121.302 251.91 121.085C251.827 120.867 251.678 120.681 251.484 120.553C251.289 120.424 251.059 120.36 250.827 120.369Z" fill="#000001"/>
<path d="M210.261 112.848C213.27 112.381 246.794 105.52 247.877 105.324C250.104 104.963 250.495 105.189 250.766 103.82C250.841 103.398 250.51 103.233 250.194 103.067C249.267 102.748 248.266 102.717 247.32 102.977C244.928 103.338 211.419 110.154 209.493 110.5C207.567 110.846 207.086 111.042 207.056 112.005C207.026 112.968 207.733 113.148 210.261 112.848Z" fill="#000001"/>
<path d="M210.531 123.471C213.029 123.622 239.842 118.28 242.385 117.859C243.995 117.588 244.13 117.317 243.664 116.129C243.423 115.527 242.43 115.753 241.588 115.858C240.188 116.038 210.862 121.275 210.321 121.5C209.779 121.726 209.553 123.381 210.531 123.471Z" fill="#000001"/>
<path d="M231.853 162.08C227.339 161.222 208.215 159.161 208.185 159.161C201.278 159.161 202.993 158.439 192.551 176.148C192.31 176.54 192.431 176.51 190.249 170.13C189.316 167.361 189.421 165.285 187.857 162.907C186.954 161.523 186.939 160.304 185.449 158.544C185.118 158.138 185.449 158.725 183.719 155.399C182.319 152.796 180.409 151.803 178.543 149.757C174.736 145.574 173.231 148.252 165.001 143.437C160.487 140.729 158.802 141.526 153.836 137.84C153.177 137.359 152.421 137.028 151.62 136.87C150.82 136.711 149.995 136.729 149.202 136.922C148.435 137.073 148.344 136.772 146.599 135.779C139.542 131.761 140.46 132.273 140.294 132.107C136.488 128.315 138.263 124.704 139.211 119.002C139.467 117.497 140.716 117.738 142.115 116.293C144.191 114.172 145.937 115.15 149.548 111.779C151.414 110.049 152.241 107.1 154.619 105.761C155.9 105.12 157.005 104.177 157.839 103.013C158.672 101.849 159.21 100.499 159.404 99.0799C160.908 91.8576 164.685 93.9641 164.519 77.2022C164.519 76.5251 167.724 67.8433 167.769 67.8282C168.018 67.6266 168.221 67.3751 168.366 67.09C168.511 66.805 168.595 66.4926 168.612 66.1731C168.868 64.8039 169.169 64.834 167.785 64.3374C167.453 64.2321 167.378 64.0816 167.529 63.6904C169.575 58.1382 169.289 57.8373 169.996 57.1903C178.558 49.4112 177.52 40.8798 173.006 38.5025C172.705 38.352 172.539 38.5025 173.231 38.021C174.897 37.1063 176.353 35.8534 177.507 34.3427C178.66 32.8321 179.484 31.097 179.927 29.2488C181.341 23.8471 179.731 18.972 178.257 19.1074C177.038 19.2128 177.61 19.5889 176.752 22.5381C176 25.0057 175.022 28.0602 172.795 29.7002C172.795 28.7523 175.804 18.8517 168.055 11.208C167.393 10.576 165.889 10.8619 166.28 12.4268C167.785 18.1595 167.213 19.4686 166.942 18.8366C165.224 15.3075 162.447 12.4035 158.997 10.5309C157.688 9.55288 157.177 9.31213 156.439 9.6883C155.356 10.23 157.147 12.8631 157.207 13.796C155.702 12.8029 155.221 9.28204 143.454 7.59682C142.521 7.4614 142.175 7.92785 142.326 8.83064C142.476 9.73344 143.484 9.32718 146.84 13.3446C147.833 14.5784 143.439 11.6594 142.566 11.2983C131.598 6.85954 131.598 9.86886 118.492 8.28897C116.566 8.06327 116.671 10.0795 117.559 11.2983C120.162 14.7289 121.953 13.9766 114.068 14.3076C112.149 14.465 110.217 14.3383 108.336 13.9314C107.824 13.9314 107.658 14.112 107.598 14.4129C107.495 15.1784 107.608 15.9576 107.924 16.6623C108.24 17.367 108.748 17.969 109.389 18.4003C108.471 18.8366 104.393 18.1144 102.377 17.4222C100.361 16.7301 100.09 19.1827 100.556 20.2811C101.266 22.1131 102.515 23.6869 104.138 24.795C102.18 24.6008 100.351 23.7341 98.9615 22.3425C96.9152 19.5588 94.2218 27.2175 98.6455 33.1008C100.15 35.0869 101.655 36.2003 99.9094 35.6587C95.0494 34.154 94.5378 32.2732 94.0112 34.154C93.8487 34.6711 93.723 35.1991 93.635 35.7339C93.5017 37.2121 93.6689 38.702 94.1266 40.1139C94.5843 41.5258 95.323 42.8305 96.2983 43.9493C97.9835 45.6947 98.9465 45.2885 98.811 45.9355C97.9807 48.4344 98.0822 51.1493 99.0969 53.5791C99.7891 55.791 100.21 56.6787 99.9094 56.7239C91.9498 58.2285 91.4533 70.8526 96.9001 78.3458C99.2775 81.6711 103.491 80.1514 103.897 80.7382C104.303 81.325 104.995 82.0171 104.815 82.95C104.153 86.3505 106.124 87.8402 105.462 90.9548C103.957 98.2674 104.318 106.573 100.406 117.888C99.8004 120.019 98.4494 121.861 96.5992 123.079C95.6265 123.532 94.6205 123.909 93.5899 124.208C93.4629 124.23 93.3319 124.208 93.2194 124.145C93.1069 124.082 93.0198 123.982 92.973 123.862C92.8225 123.531 92.1153 123.305 91.2727 123.215C89.7588 123.12 88.2472 123.432 86.8942 124.117C85.0199 124.825 83.2205 125.717 81.5225 126.781C75.1578 130.708 73.7284 130.196 71.4564 131.295C63.9331 135.116 63.4667 134.033 61.0893 134.846C40.7764 141.827 39.8887 145.002 36.6236 153.955C23.3375 190.307 29.4464 188.983 25.8503 200.449C21.878 213.148 24.0146 211.779 22.1338 222.281C20.7645 229.925 20.2379 230.406 20.7495 231.881C21.9833 235.432 23.6685 234.093 23.5632 235.643C22.6963 241.956 22.2289 248.319 22.1638 254.692C22.3444 263.088 27.6257 267.21 29.8075 270.28C33.1478 274.974 38.5496 276.72 44.3124 277.427C45.1851 277.547 44.8842 277.427 44.7337 278.932C43.53 290.277 43.7406 289.735 43.229 291.044C42.251 294.053 46.3286 295.468 46.4189 286.049C46.4958 283.417 46.7471 280.793 47.1712 278.194C47.2465 277.728 47.427 277.622 47.8182 277.607C54.1829 277.307 52.1667 277.683 60.9238 274.478C76.181 268.88 87.7819 261.342 92.5216 258.739C141.995 231.475 124.977 240.488 132.876 239.51C134.727 239.284 139.377 237.659 139.993 235.823C140.174 235.296 157.192 233.22 157.854 233.009C170.252 228.887 170.026 228.33 170.162 230.256C170.548 233.569 170.487 236.919 169.981 240.217C168.943 250.614 172.073 252.675 171.937 255.82C171.351 269.362 173.216 269.061 175.052 274.779C180.017 290.247 179.566 290.984 181.387 290.743C182.545 290.593 182.335 288.922 182.049 288.215C180.544 284.589 179.671 280.842 178.618 277.322C175.022 265.36 174.721 270.867 182.094 273.274C186.111 274.583 190.234 276.133 194.131 275.305C195.47 275.019 197.622 275.727 201.564 273.5C210.667 268.384 214.188 255.354 215.106 252.735C220.959 236.5 220.071 231.971 220.447 228.857C221.546 219.949 224.961 216.037 224.39 210.485C224.287 209.033 224.424 207.574 224.796 206.166C226.993 199.847 225.879 201.953 226.707 196.672C227.038 194.52 226.09 193.226 224.615 191.767C224.42 191.571 233.643 175.968 233.643 175.938C235.93 172.146 237.856 169.724 237.796 167.286C237.727 166.256 237.35 165.27 236.713 164.457C235.253 162.381 234.095 162.501 231.853 162.08ZM160.999 89.6608C160.713 91.5717 158.817 94.0845 158.155 95.6794C157.056 98.2674 157.583 100.735 154.453 102.857C148.284 106.994 150.361 110.244 143.394 112.712C142.446 113.058 142.717 112.878 138.248 116.113C134.261 119.017 128.648 115.917 125.699 116.113C121.486 116.368 121.622 112.712 117.499 111.328C115.723 110.726 115.618 109.582 114.399 107.566C112.564 104.557 110.081 105.114 109.479 100.735C108.697 94.8669 107.628 96.8531 107.478 92.8055C108.426 86.0045 106.244 86.9825 107.042 82.8146C107.473 81.6762 107.785 80.4963 107.974 79.2937C110.758 60.1846 104.303 62.3362 111.345 62.6071C112.052 62.6071 111.48 63.1337 111.495 66.0076C111.495 68.4 113.09 67.3467 112.428 75.2161C112.425 76.4258 112.787 77.6083 113.466 78.6095C114.145 79.6106 115.11 80.3839 116.235 80.8285C121.516 82.1977 122.494 78.8574 126.918 79.8203C131.011 80.7382 135.314 78.3157 137.571 79.8203C139.828 81.325 144.056 80.5125 147.517 82.9801C149.759 84.6051 150.526 85.6584 153.069 85.538C156.424 85.3876 156.77 88.2314 160.683 87.3587C161.886 87.133 161.314 87.2684 160.999 89.6608ZM127.249 70.7172C131.763 71.1836 136.969 73.1698 138.399 69.7692C138.78 68.3005 139.283 66.8661 139.903 65.481C140.629 64.9032 141.524 64.5798 142.451 64.5608C143.378 64.5418 144.286 64.8281 145.034 65.3756C146.148 66.2634 146.072 66.8803 145.952 69.1072C145.952 70.2206 145.124 68.9567 143.093 69.1072C142.621 69.1591 142.145 69.0533 141.739 68.8063C141.303 68.5204 140.746 68.5354 140.595 69.3931C140.325 70.973 141.784 71.2287 143.605 71.3642C146.178 71.5598 146.614 75.3967 144.342 77.2022C143.665 77.7439 142.928 78.5564 141.709 78.2856C140.204 77.9546 138.068 77.4129 137.857 75.833C137.706 74.6443 136.503 74.3283 136.172 75.2462C135.63 76.7508 136.713 77.3978 135.856 77.3828C132.32 77.2925 130.71 78.3157 128.332 77.9696C126.014 77.4394 123.587 77.6715 121.411 78.6317C119.789 79.3304 117.956 79.3629 116.31 78.7219C114.595 76.0587 114.806 77.6837 114.806 74.208C114.806 72.2519 115.076 69.062 114.038 66.9706C113.722 65.8693 113.722 64.7014 114.038 63.6001C114.159 62.8478 114.038 62.7274 117.303 63.4497C121.471 64.2772 115.031 69.3479 127.249 70.7172ZM121.306 57.9276C121.306 57.3558 120.93 56.9947 125.925 57.732C129.993 58.18 134.018 58.9549 137.962 60.0491C138.775 60.2448 138.534 60.0491 137.074 67.0007C136.743 68.6407 136.999 69.2877 135.57 69.5586C130.986 69.3289 126.444 68.5819 122.028 67.3317C120.448 66.7148 120.914 62.4265 121.306 57.9276ZM161.721 84.2591C159.99 86.8922 157.959 84.7105 154.754 83.6271C153.325 83.1456 151.745 83.913 150.24 82.4836C148.95 81.2807 147.408 80.381 145.726 79.8504C144.884 79.5345 146.629 79.0229 147.336 77.4129C148.51 74.7346 147.758 74.1026 148.66 74.4036C164.67 80.0611 162.202 76.1189 162.593 79.2185C162.368 83.9431 162.503 82.9801 161.721 84.2591ZM163.677 73.3955C163.225 74.9001 163.316 75.8781 161.254 75.8029C156.938 74.9417 152.707 73.6928 148.615 72.0714C147.442 71.5447 147.878 69.062 148.043 67.9035C148.931 61.4184 149.097 62.0804 149.729 62.2008C155.08 63.188 160.322 64.7 165.377 66.7148C166.039 66.8352 165.859 66.6245 163.677 73.3503V73.3955ZM165.678 62.8629C165.317 63.9613 165.678 63.4196 159.148 61.3582C155.417 60.2108 151.589 59.405 147.712 58.9508C146.855 58.7401 146.855 58.9507 146.554 61.3281C146.554 61.7344 147.005 61.945 146.99 62.1557C146.614 65.5712 146.448 61.629 141.754 62.1557C140.445 62.3212 140.144 62.8779 140.43 61.6441C140.716 60.4103 141.062 61.2228 141.167 60.4103C141.543 57.9276 141.649 57.8975 140.941 57.7019C135.186 55.9571 129.275 54.7729 123.292 54.1659C118.778 53.6243 119.214 53.7296 119.064 54.4518C118.552 56.784 118.477 57.0699 119.064 57.1753C119.651 57.2806 119.304 57.3558 119.229 59.357C119.229 60.0191 118.958 59.8987 117.002 60.1093C114.128 59.9288 114.098 60.1093 113.993 59.4322C113.466 56.0769 113.09 55.1741 113.873 53.4136C114.956 50.9309 117.002 46.7931 116.085 43.9493C115.934 43.4528 116.084 43.3023 116.611 43.1368C120.132 42.0234 125.398 40.1275 126.527 36.6818C126.903 35.4932 127.911 37.5545 135.148 35.6587C141.272 34.0336 140.535 31.8218 142.356 32.7547C144.899 34.0938 150.737 35.3728 152.603 33.5521C153.009 33.1459 154.002 35.8543 157.116 35.1772C157.733 35.0418 158.335 34.3045 158.621 34.801C160.126 37.3439 163.135 32.3033 166.987 44.7468C167.675 47.2312 168.025 49.7974 168.025 52.3754C168.1 54.8581 167.574 56.9044 165.678 62.7575V62.8629ZM159.088 13.1941C161.495 14.2023 165.618 18.4003 166.611 24.9907C166.731 25.9235 167.017 26.6157 167.694 25.9536C168.808 24.8402 168.898 18.9118 168.943 18.8968C168.717 15.7069 168.552 14.8192 168.943 15.3308C172.569 20.7776 171.952 26.4502 169.68 32.6193C169.364 33.4468 169.455 34.5904 170.132 34.1239C172.309 32.8985 174.158 31.1638 175.518 29.0683C176.749 27.2479 177.608 25.2026 178.046 23.0496C178.182 22.508 178.302 22.1017 178.422 22.1017C178.543 22.1017 178.874 23.0346 178.874 23.8471C178.846 25.4862 178.695 27.1208 178.422 28.7372C177.745 31.4456 176.376 33.8832 171.035 37.2687C169.394 38.3069 168.447 38.7733 169.861 39.3601C171.275 39.9469 173.337 39.977 174.375 43.513C175.729 48.0269 170.854 53.5641 170.252 54.0456C169.455 50.2237 171.757 43.9192 164.234 35.132C163.526 34.2894 165.738 33.6274 166.551 29.5799C166.671 28.978 165.979 28.5567 165.528 29.5046C164.847 31.0749 163.818 32.4695 162.518 33.5822C162.155 33.8024 161.735 33.9124 161.311 33.8991C160.886 33.8857 160.475 33.7495 160.126 33.507C159.81 33.2663 159.885 33.1158 160.005 32.9051C164.7 25.3819 159.358 17.5727 159.464 16.4442C159.439 15.3515 159.313 14.2635 159.088 13.1941ZM147.667 10.6212C156.891 12.502 159.9 22.1619 159.704 26.3599C159.96 30.257 156.59 35.0719 154.935 32.6343C154.107 31.4155 154.829 31.2801 154.754 27.5486C154.559 18.2047 150.752 17.8134 149.774 15.2254C148.435 11.6895 146.148 10.3052 147.667 10.6212ZM95.5911 37.0881C95.5911 35.9446 96.0274 36.3057 96.2983 36.4712C97.7408 37.2024 99.253 37.7871 100.812 38.2166C103.84 38.8064 106.974 38.5139 109.84 37.374C111.947 36.1552 111.525 34.9966 110.608 34.6505C110.201 34.5151 109.103 35.3276 107.809 35.6286C104.273 36.4411 97.502 30.5729 98.2844 25.1863C98.4198 24.3437 98.7358 25.8182 102.904 27.0069C107.989 28.5116 111.164 27.0069 115.934 26.8564C119.395 26.7812 119.53 27.1423 119.861 26.0289C120.598 23.5161 112.744 24.9606 111.345 24.9756C106.244 24.9756 102.723 21.0334 102.678 19.8598C104.875 20.3903 107.129 20.648 109.389 20.6271C122.133 20.6271 126.256 19.1225 137.676 24.3136C141.092 25.8182 146.313 30.7535 147.186 29.8958C148.69 28.3912 140.58 23.3656 138.669 22.4779C124.751 16.0379 116.25 19.4686 111.691 17.8435C110.848 17.5276 109.63 16.9708 109.359 15.8574C111.954 16.1105 114.565 16.1609 117.168 16.0079C121.501 15.6919 126.753 15.5414 129.461 15.6016C136.984 15.7671 143.575 19.2278 148.164 26.9618C148.961 28.3159 148.991 28.346 149.879 28.4664C152.226 28.5868 145.185 12.2613 126.226 13.5402C125.005 13.7942 123.736 13.6629 122.593 13.1642C121.45 12.6656 120.49 11.8243 119.846 10.7566C119.726 10.576 119.846 10.6061 119.997 10.6212C124.39 10.8168 120.553 10.7716 131.236 10.7115C139.572 10.7115 143.274 14.1722 146.193 15.6919C150.601 18.009 153.355 22.5832 152.708 30.3171C152.557 32.0475 150.255 32.6794 148.976 32.4688C138.985 30.7685 140.505 27.4131 126.136 25.8182C123.939 25.5775 123.608 27.4733 125.594 27.7442C132.756 28.7523 130.951 28.4213 133.839 29.3692C138.263 30.8739 140.144 31.1898 139.316 31.5961C129.16 36.7119 120.839 31.9572 118.251 34.0788C117.198 34.9214 117.679 35.2825 118.763 35.779C119.274 36.0047 118.266 35.5082 122.63 35.779C124.736 35.9295 124.616 35.9746 124.45 36.3207C122.825 39.7513 114.143 40.8347 112.293 42.3393C112.17 42.4411 112.081 42.5779 112.039 42.7315C111.996 42.885 112.001 43.0479 112.053 43.1985C112.106 43.349 112.203 43.4799 112.332 43.5738C112.461 43.6676 112.615 43.7199 112.774 43.7236C114.083 43.7236 114.414 43.1519 114.399 44.1449C114.399 50.299 110.472 51.9691 111.601 57.2204C112.142 59.7934 112.052 59.688 111.495 59.7031C109.907 59.7957 108.314 59.7957 106.726 59.7031C106.324 59.6195 105.964 59.402 105.702 59.0862C104.874 58.1511 103.846 57.4155 102.693 56.9345C102.347 56.8292 102.467 56.9345 101.188 52.9622C100.165 49.7423 100.135 50.1335 100.451 47.2144C100.541 46.3568 100.451 46.1612 100.993 46.2665C108.516 47.7712 110.367 45.1831 109.148 44.0697C107.929 42.9563 107.147 45.8001 100.225 43.6785C98.8902 43.1579 97.7383 42.2548 96.9139 41.0825C96.0895 39.9102 95.6294 38.5207 95.5911 37.0881ZM101.008 78.2404C97.2462 78.3307 94.7786 68.8664 95.5309 64.834C95.8295 63.4489 96.3748 62.1288 97.1409 60.9369C97.558 60.2687 98.1428 59.7214 98.837 59.3492C99.5312 58.977 100.311 58.7929 101.098 58.8153C102.603 58.71 104.89 60.967 105.447 62.0955C107.914 67.0609 105.928 78.4812 105.657 79.2937C104.83 78.5715 104.785 78.2404 101.008 78.2404ZM91.378 126.751C92.2658 127.006 94.914 125.863 95.5008 125.697C106.033 122.688 104.86 101.894 106.455 97.7408C106.921 98.4329 107.011 100.75 107.959 103.759C109.013 106.964 111.841 107.085 113 109.989C114.64 114.127 117.243 112.998 119.169 115.33C120.764 117.211 122.088 118.565 124.992 118.55C128.724 118.55 129.792 120.055 135.164 119.844C136.969 119.739 137.601 117.542 136.292 122.643C135.843 124.616 135.721 126.649 135.931 128.661C136.095 130.46 136.947 132.125 138.308 133.311C139.993 134.921 149.082 139.51 148.841 139.977C145.832 149.305 138.399 161.854 130.454 166.188C118.597 172.643 120.689 172.206 112.293 170.13C110.046 169.107 107.921 167.835 105.958 166.338C99.8192 161.824 96.539 149.787 94.6883 142.399C93.0031 135.568 91.0169 132.559 90.5956 128.857C90.8815 127.894 91.0771 126.675 91.378 126.766V126.751ZM25.3688 212.967C25.459 208.95 28.4834 200.178 29.1906 195.303C29.7925 191.135 28.8445 189.374 31.2821 178.044C33.8851 165.902 34.7729 165.811 37.9778 156.693C39.0762 153.533 39.4824 146.386 49.8044 141.948C65.6334 135.177 62.2178 137.885 66.9123 135.929C69.6959 134.785 78.9496 131.34 81.1464 129.504C81.658 129.068 89.4972 124.644 89.1662 125.908C87.5713 132.122 90.2044 133.431 92.657 143.302C96.87 160.335 99.9395 170.13 117.123 173.907C123.683 175.396 139.933 164.006 142.943 157.611C143.635 156.106 146.614 151.592 147.983 148.914C153.099 138.788 149.488 137.704 154.002 140.458C155.118 141.313 156.336 142.026 157.628 142.58C163.993 144.912 165.031 146.266 169.44 147.936C172.449 149.065 174.224 148.779 175.774 150.253C178.979 153.263 181.01 154.948 181.928 156.994C182.59 158.499 186.713 164.848 186.954 166.594C187.605 169.598 188.49 172.546 189.602 175.411C190.034 176.327 190.352 177.292 190.55 178.285C190.586 179.033 190.392 179.773 189.993 180.407C189.174 181.795 188.43 183.226 187.766 184.695C187.24 185.643 185.675 187.358 185.088 188.592C184.862 189.058 184.847 188.833 182.666 188.592C177.49 188.126 174.631 189.525 169.966 191.361C168.552 191.902 170.568 186.696 170.252 180.331C170.252 179.519 169.891 174.854 169.68 174.087C169.47 173.32 168.176 173.094 168.055 174.087C168.018 175.98 168.088 177.874 168.266 179.76C168.266 184.274 167.348 189.043 167.393 191.105C167.393 192.068 167.303 192.188 166.927 192.324C162.289 193.826 157.864 195.92 153.761 198.553C148.57 202.179 147.547 201.562 143.62 204.948C140.475 207.716 141.077 206.332 134.17 210.665C133.569 211.041 133.343 211.658 131.913 211.282C130.484 210.906 123.217 214.291 122.886 215.42C122.555 216.548 124.541 215.766 94.9441 227.156C81.1313 232.483 83.0573 231.309 79.2806 232.423L62.8498 235.582C62.5037 235.582 62.3683 234.619 62.4134 234.243C62.7595 231.655 62.1727 231.068 63.0604 230.798C78.7841 226.284 70.3881 227.578 72.5698 208.619C74.0745 195.288 70.042 194.28 70.9147 185.206C71.1042 180.933 71.0288 176.651 70.689 172.387C70.4941 167.243 69.4782 162.163 67.6797 157.34C67.5142 156.829 67.138 156.784 66.7468 156.784C64.8509 156.784 68.0709 162.607 68.4019 172.176C69.1543 194.37 67.3938 185.823 69.9066 196.868C71.2457 202.51 69.711 210.936 69.9066 215.871C69.9969 218.098 70.4784 218.655 69.6057 218.625C64.1738 218.505 62.9551 219.257 52.8588 220.476C48.3449 221.032 46.0277 218.459 33.0877 221.845C31.8971 222.284 30.6811 222.651 29.4464 222.943C28.1825 223.229 29.2809 222.943 24.481 224.027C23.3375 224.312 25.1581 222.793 25.3688 212.967ZM125.263 218.805C124.721 218.971 124.857 219.031 124.661 217.662C124.622 217.218 124.735 216.774 124.981 216.402C125.227 216.031 125.591 215.753 126.015 215.616C131.898 213.193 130.529 213.103 130.77 216.533C130.77 217.391 130.77 217.557 130.003 217.572C128.373 217.76 126.778 218.175 125.263 218.805ZM127.52 223.319C127.4 226.419 124.165 225.411 124.315 223.59C124.271 223.165 124.398 222.74 124.667 222.409C124.937 222.077 125.327 221.866 125.752 221.822C126.177 221.778 126.602 221.905 126.934 222.175C127.265 222.444 127.476 222.834 127.52 223.259V223.319ZM132.229 221.153C132.229 222.582 129.852 222.657 129.822 220.912C129.792 219.167 132.26 219.362 132.229 221.093V221.153ZM23.4428 229.458C22.8861 229.699 22.9312 229.669 23.7437 225.922C23.9092 225.155 29.5968 225.2 31.5379 224.313C35.9031 222.747 40.5024 221.933 45.1399 221.905C51.1586 222.04 48.5104 223.199 60.0661 221.333C63.3505 220.649 66.7035 220.351 70.0571 220.446C70.4483 220.446 70.358 220.536 70.689 223.455C70.5837 224.96 70.8696 224.884 69.5304 224.719C67.5894 224.478 66.1149 225.08 63.1507 225.215C59.697 225.226 56.2464 225.422 52.8137 225.802C48.1041 226.765 44.4027 223.846 34.4418 227.156C30.7705 228.375 26.6778 228.014 23.4428 229.398V229.458ZM119.635 241.706C118.552 242.383 96.4638 253.849 82.2448 262.034C72.931 267.406 59.8404 272.958 53.6563 274.418C46.133 276.208 37.9326 275.922 31.7786 268.971C30.8457 267.932 30.1837 266.729 29.2658 265.811C26.4196 262.876 24.6714 259.05 24.3155 254.977C24.6917 241.992 24.9324 242.323 25.8202 235.928C26.6176 230.436 25.459 230.963 28.6339 230.677C35.2694 230.105 40.1746 227.668 43.6804 228.074C53.4156 229.278 60.7884 227.051 60.7432 228.179C60.4122 235.417 61.315 235.327 51.6401 238.276C51.0417 238.536 50.4158 238.728 49.7743 238.848C48.8113 238.848 47.2013 239.118 46.765 239.991C45.0647 243.226 54.9353 239.6 57.8092 239.073C99.3527 231.55 77.3697 235.266 121.953 218.971C122.404 218.805 122.494 218.896 122.524 219.392C122.584 219.69 122.564 219.999 122.466 220.287C122.368 220.575 122.196 220.832 121.968 221.032C119.816 222.973 122.344 233.792 126.181 235.146C126.392 235.209 126.588 235.314 126.758 235.453C126.929 235.593 127.07 235.764 127.174 235.959C128.227 237.824 127.685 236.575 119.635 241.646V241.706ZM126.753 231.49C124.616 231.49 124.345 228.164 126.527 228.179C128.438 228.134 128.483 231.46 126.753 231.43V231.49ZM131.266 224.057C132.44 224.057 133.433 225.561 133.448 226.299C133.417 226.914 133.164 227.498 132.735 227.941C132.306 228.384 131.731 228.656 131.116 228.706C130.522 228.642 129.975 228.356 129.583 227.905C129.192 227.454 128.986 226.871 129.007 226.274C129.028 225.677 129.274 225.111 129.696 224.688C130.118 224.265 130.685 224.018 131.282 223.997L131.266 224.057ZM132.455 231.279C132.455 232.784 130.243 232.362 130.409 231.279C130.454 229.534 132.41 230.211 132.41 231.219L132.455 231.279ZM132.229 237.403C131.131 237.403 130.364 237.207 129.927 236.199C129.491 235.191 129.386 235.116 130.544 234.83C135.449 233.596 134.772 232.347 135.615 233.717C136.924 235.853 138.534 235.522 132.245 237.343L132.229 237.403ZM170.719 226.87C167.63 227.23 164.618 228.079 161.796 229.383C153.054 232.393 153.626 231.068 149.082 231.791C138.549 233.476 138.549 235.191 137.36 232.122C137.059 231.339 138.098 230.06 137.36 227.036C135.946 221.017 135.675 219.377 133.433 217.827C132.786 217.391 132.756 216.91 132.831 214.307C132.831 213.088 140.595 209.672 141.859 208.83C147.035 205.504 143.605 206.904 148.6 204.18C154.965 200.704 159.298 197.259 165.663 195.227C177.836 191.315 172.419 192.459 178.031 191.21C181.958 190.337 183.598 191.421 188.699 191.631C194.537 191.872 195.756 192.85 198.464 192.775C199.548 192.775 199.849 193.964 199.758 194.881C199.661 195.428 199.385 195.926 198.974 196.299C198.563 196.672 198.04 196.898 197.486 196.943C192.852 197.575 183.538 195.769 179.807 197.229C173.788 199.576 174.27 198.733 170.373 200.78C169.47 201.261 168.657 201.487 168.868 202.194C169.425 203.518 170.749 202.059 186.442 202.194C189.302 202.482 192.141 202.944 194.944 203.578C197.306 203.894 205.235 204.632 205.852 205.264C206.71 206.136 206.168 207.641 202.753 207.731C200.448 207.888 198.134 207.808 195.846 207.49C182.696 206.573 185.645 207.882 176.03 209.326C172.81 209.808 170.222 210.003 170.583 211.583C170.824 212.606 171.004 212.757 173.818 213.088C176.377 213.359 178.949 213.479 181.522 213.449C187.872 213.374 188.489 212.606 198.464 213.705C200.378 213.747 202.285 213.944 204.167 214.291C205.461 214.592 205.506 216.263 204.167 216.925C200.661 218.625 190.625 216.925 185.494 217.602C182.861 217.918 182.861 218.775 174.33 219.377C172.434 219.513 170.613 221.348 172.374 222.04C174.134 222.733 182.139 222.943 188.594 222.763C193.003 222.627 196.117 222.266 197.185 222.913C197.346 223.054 197.474 223.228 197.562 223.423C197.649 223.617 197.695 223.828 197.695 224.042C197.695 224.255 197.649 224.466 197.562 224.661C197.474 224.855 197.346 225.029 197.185 225.17C195.681 226.419 187.48 226.675 181.041 227.081C177.602 227.264 174.155 227.163 170.734 226.78L170.719 226.87ZM224.721 196.506C223.592 207.897 221.711 203.623 222.238 212.26C222.449 215.766 220.011 219.678 219.093 223.575C217.589 229.669 218.01 247.379 206.319 265.495C201.534 273.018 196.463 272.687 193.273 272.928C189.609 272.969 185.97 272.32 182.545 271.017C179.637 269.924 177.05 268.118 175.022 265.766C174.42 265.104 174.661 261.478 174.736 260.605C175.278 253.593 172.675 251.11 172.163 245.453C171.802 241.646 173.322 240.758 172.404 229.865C172.283 228.36 172.72 230.166 184.832 228.962C186.337 228.811 184.486 230.12 187.691 233.28C190.896 236.44 190.7 233.536 185.75 237.508C181.823 240.698 179.22 248.598 181.522 248.252C182.726 248.161 181.522 246.958 185.404 241.661C188.022 238.065 191.844 237.463 192.927 236.681C194.011 235.898 194.236 236.681 196.629 238.05C197.923 238.832 193.966 238.652 202.121 252.073C202.437 252.615 203.625 252.615 203.926 251.953C204.363 250.81 204.378 251.201 201.218 245.543C199.713 242.745 199.187 242.609 198.901 239.675C198.858 239.282 198.971 238.887 199.217 238.577C201.338 236.5 193.935 233.581 192.581 233.25C191.568 232.972 190.622 232.491 189.799 231.837C188.977 231.182 188.295 230.368 187.796 229.443C187.405 228.044 188.218 228.45 190.7 228.42C197.712 228.315 200.014 226.434 200.12 224.358C200.12 223.47 200.225 222.191 199.397 221.589C197.562 220.28 193.379 220.972 185.118 220.912C184.381 220.912 184.501 220.43 184.396 220.4C187.827 218.339 206.183 222.703 207.372 216.082C207.524 215.266 207.43 214.422 207.101 213.66C206.74 212.772 205.356 212.381 202.873 212.155C191.242 211.372 189.045 210.906 183.313 211.403C182.56 211.403 182.56 211.132 182.741 210.56C183.763 210.137 184.827 209.825 185.916 209.627C194.372 208.619 191.498 209.522 201.474 209.627C206.65 209.717 211.089 207.521 207.959 203.307C207.176 202.254 202.407 202.345 201.143 201.803C202.136 200.765 205.401 200.674 206.093 200.614C208.636 200.358 211.329 203.127 212.638 205.324C213.947 207.521 215.437 209.025 216.069 208.845C216.701 208.664 216.821 208.514 216.791 207.656C216.686 202.826 217.408 203.954 218.296 198.207C218.537 196.702 218.055 195.859 213.917 191.541C211.51 189.043 205.401 188.035 206.394 183.672C206.59 182.874 207.252 182.438 207.823 182.859C210.833 185.056 214.639 185.267 217.423 187.96C219.033 189.465 220.432 189.089 221.937 191.646C223.442 194.204 224.886 194.881 224.736 196.416L224.721 196.506ZM223.321 189.675C223.186 189.916 223.066 189.931 222.945 189.675C222.012 188.171 220.357 187.509 218.988 186.531C218.46 186.024 217.891 185.561 217.288 185.146C215.413 184.203 213.489 183.359 211.525 182.618C209.373 181.896 207.598 179.85 206.108 180.783C203.806 182.167 203.52 185.718 205.371 188.02C208.169 191.541 209.885 190.337 213.406 194.039C217.243 198.131 216.415 197.048 214.504 204.045C212.759 203.187 210.833 198.026 204.95 198.553C202.271 198.64 199.679 199.52 197.501 201.081C196.538 201.532 196.538 201.081 189.376 200.027C183.553 199.11 170.643 201.427 182.861 198.523C184.366 198.162 196.087 199.26 199.262 198.523C200.069 198.242 200.768 197.718 201.264 197.023C201.76 196.327 202.028 195.495 202.03 194.641C202.119 194.186 202.11 193.717 202.002 193.266C201.894 192.816 201.69 192.393 201.405 192.028C201.12 191.663 200.759 191.363 200.348 191.149C199.936 190.935 199.484 190.812 199.021 190.789C197.266 190.729 195.526 190.44 193.845 189.931C192.34 189.51 191.904 189.736 192.34 189.179C195.004 185.161 203.129 169.799 206.605 166.88C207.778 165.887 209.208 166.519 213.315 167.03C229.581 169.092 217.829 167.03 232.109 169.362C232.418 169.398 232.708 169.529 232.94 169.736C233.171 169.944 233.333 170.218 233.403 170.521C233.914 172.582 229.882 177.894 223.336 189.585L223.321 189.675ZM235.479 167.662C235.408 168.351 235.171 169.012 234.787 169.588C234.426 168.083 233.372 167.587 229.972 167.09C225.247 166.413 218.491 165.691 214.263 165.059C204.889 163.554 205.912 163.931 202.437 168.881C191.799 184.018 191.498 189.735 188.79 189.404C186.879 189.179 186.969 190.202 192.16 180.948C194.026 177.608 200.405 166.233 203.054 162.892C203.501 162.271 204.125 161.799 204.844 161.538C206.962 161.255 209.112 161.321 211.209 161.734C223.457 163.344 231.928 163.78 233.929 164.924C234.366 165.226 234.732 165.619 235.002 166.076C235.272 166.533 235.44 167.044 235.494 167.572L235.479 167.662Z" fill="#000001"/>
<path d="M229.836 171.967C228.482 170.899 222.885 170.116 221.922 170.177C221.402 170.145 220.884 170.249 220.417 170.477C218.912 171.365 217.588 173.818 215.391 178.257C215.089 178.894 214.833 179.553 214.624 180.228C214.501 180.426 214.426 180.65 214.404 180.883C214.383 181.115 214.416 181.349 214.5 181.567C214.585 181.784 214.719 181.979 214.892 182.136C215.065 182.292 215.272 182.407 215.497 182.47C217.848 183.538 220.35 184.238 222.915 184.546C224.419 184.651 224.163 184.019 229.189 176.225C230.212 174.63 231.205 173.035 229.836 171.967ZM228.241 174.66C226.888 177.256 225.381 179.768 223.727 182.184C222.915 183.342 221.982 182.786 220.131 182.409C219.002 182.174 217.902 181.816 216.851 181.341C216.354 181.115 215.542 180.875 216.52 179.174C219.243 174.48 220.251 172.057 221.56 171.786C223.697 171.833 225.811 172.23 227.82 172.96C228.708 173.276 228.858 173.577 228.241 174.66Z" fill="#000001"/>
<path d="M223.968 176.419C223.727 176.424 223.49 176.487 223.279 176.603C223.067 176.718 222.886 176.882 222.751 177.082C222.616 177.282 222.531 177.512 222.504 177.751C222.476 177.991 222.507 178.234 222.592 178.459C222.678 178.684 222.817 178.886 222.997 179.047C223.177 179.207 223.393 179.322 223.626 179.382C223.86 179.441 224.105 179.444 224.34 179.389C224.574 179.335 224.793 179.224 224.976 179.068C225.698 178.165 225.533 176.495 223.968 176.419Z" fill="#000001"/>
<path d="M223.833 174.328C224.013 173.199 223.126 172.718 222.328 172.687C222.078 172.672 221.828 172.716 221.598 172.815C221.368 172.914 221.164 173.067 221.004 173.259C220.77 173.486 220.607 173.778 220.538 174.097C220.469 174.416 220.495 174.748 220.614 175.052C220.733 175.356 220.939 175.618 221.207 175.805C221.474 175.992 221.791 176.096 222.118 176.103C223.201 176.043 223.667 175.456 223.833 174.328Z" fill="#000001"/>
<path d="M218.883 177.546C217.002 178.509 217.845 181.805 220.117 181.007C220.623 180.783 221.02 180.368 221.223 179.853C221.426 179.337 221.418 178.763 221.2 178.254C221.106 178.044 220.968 177.858 220.796 177.706C220.624 177.554 220.421 177.441 220.202 177.374C219.982 177.307 219.751 177.288 219.524 177.318C219.296 177.347 219.078 177.425 218.883 177.546Z" fill="#000001"/>
<path d="M216.355 99.8472C217.393 91.4663 203.776 90.5334 203.806 100.088C203.836 106.633 215.241 108.935 216.355 99.8472ZM205.822 98.6435C207.853 92.4292 217.287 95.8749 213.842 101.653C211.585 105.64 204.317 103.398 205.867 98.6435H205.822Z" fill="#000001"/>
<path d="M167.845 213.043C167.393 210.229 165.858 210.124 166.34 208.228C166.759 207.385 166.936 206.442 166.852 205.505C166.566 203.188 164.895 202.872 164.805 200.299C164.805 199.245 165.121 198.327 164.294 198.207C162.789 197.996 162.879 200.494 163.12 201.924C163.556 204.527 165.392 204.647 164.534 206.979C163.677 209.311 164.339 210.41 165.512 212.622C166.31 214.126 164.73 215.21 164.835 218.114C164.937 219.7 165.277 221.263 165.843 222.748C165.894 222.989 166.037 223.201 166.241 223.339C166.445 223.476 166.694 223.529 166.937 223.486C167.179 223.443 167.395 223.308 167.539 223.108C167.684 222.909 167.744 222.661 167.709 222.417C167.619 221.138 167.107 219.182 167.032 218.264C166.867 216.398 168.191 215.165 167.845 213.043Z" fill="#000001"/>
<path d="M164.083 188.26C164.745 188.11 164.925 187.779 164.865 186.515C162.984 175.41 162.804 174.989 161.751 175.17C160.697 175.35 160.637 175.17 162.939 187.417C163.075 188.17 163.406 188.411 164.083 188.26Z" fill="#000001"/>
<path d="M161.344 57.7748C159.704 56.4807 152.918 54.931 151.745 53.983C150.827 53.2307 150.345 54.4946 149.939 54.8256C148.81 55.7736 149.939 57.1428 151.173 57.519C156.183 59.0236 153.054 57.9553 159.433 59.6255C160.487 59.8963 163.481 63.5978 163.842 60.453C164.007 59.9114 163.857 59.7459 161.344 57.7748Z" fill="#000001"/>
<path d="M152.226 64.4717C151.952 64.502 151.69 64.5966 151.46 64.7478C151.229 64.8989 151.038 65.1024 150.902 65.3416C150.765 65.5808 150.687 65.8489 150.674 66.124C150.661 66.3991 150.714 66.6733 150.827 66.9243C150.893 67.1586 151.027 67.3683 151.211 67.5275C151.396 67.6868 151.623 67.7887 151.864 67.8207C152.105 67.8527 152.351 67.8133 152.57 67.7075C152.79 67.6018 152.973 67.4341 153.099 67.2253C153.761 66.3225 153.686 64.3965 152.226 64.4717Z" fill="#000001"/>
<path d="M147.802 90.3685C133.388 83.3117 135.374 86.4263 123.577 87.4946C123.304 87.4605 123.04 87.379 122.795 87.2539C126.21 84.2446 120.749 83.9737 120.508 88.7585C120.567 89.2195 120.673 89.6733 120.824 90.1127C121.125 90.8801 122.148 90.8049 122.434 89.6613C122.434 89.4808 122.434 89.3905 122.735 89.4657C124.607 89.9511 126.442 90.5696 128.227 91.3164C138.308 95.8455 151.639 92.2493 147.802 90.3685ZM135.63 91.3164C130.92 90.8199 132.139 90.6845 128.106 89.24C126.256 88.578 134.712 88.0363 134.892 88.0212C136.909 88.0212 138.895 87.7053 144.026 90.8049C141.279 91.4708 138.436 91.6441 135.63 91.3164Z" fill="#000001"/>
<path d="M138.263 104.106C136.156 102.947 136.352 100.42 126.903 102.03C126.682 102.058 126.478 102.166 126.331 102.334C126.184 102.501 126.102 102.717 126.102 102.94C126.102 103.163 126.184 103.379 126.331 103.546C126.478 103.714 126.682 103.822 126.903 103.85C128.182 104.106 133.147 102.526 135.359 104.648C138.504 107.747 139.542 104.813 138.263 104.106Z" fill="#000001"/>
<path d="M136.744 47.2158C136.744 45.636 132.816 45.0491 131.853 45.004C128.423 44.8535 127.896 45.1394 124.706 46.6441C119.305 49.2772 121.532 53.084 123.081 50.8571C123.894 49.6835 123.337 50.8571 125.414 49.7286C128.257 48.1036 129.822 48.886 132.832 49.0365C133.966 49.1295 135.066 49.4738 136.051 50.0446C136.237 50.1372 136.445 50.1739 136.651 50.1502C136.857 50.1264 137.052 50.0433 137.211 49.9109C137.371 49.7785 137.488 49.6026 137.549 49.4046C137.611 49.2066 137.613 48.9951 137.556 48.7957C137.345 47.9531 136.714 47.9531 136.744 47.2158Z" fill="#000001"/>
<path d="M125.308 106.515C125.308 108.26 129.476 106.786 131.071 108.456C131.342 108.742 132.44 109.043 132.681 108.456C133.914 105.492 125.383 104.769 125.308 106.515Z" fill="#000001"/>
<path d="M126.978 62.067C129.07 61.6006 128.994 58.8019 127.339 58.6364C125.037 58.3957 124.751 62.5635 126.978 62.067Z" fill="#000001"/>
<path d="M104.529 67.1065C103.611 63.6608 103.144 61.0879 100.496 61.3136C99.997 61.3334 99.5095 61.4696 99.0723 61.7114C98.6352 61.9531 98.2607 62.2937 97.9786 62.7059C97.6964 63.1181 97.5146 63.5905 97.4475 64.0855C97.3804 64.5805 97.4299 65.0843 97.5921 65.5567C97.878 66.6551 98.8711 66.2338 98.9614 65.0451C99.0517 63.8565 100.285 62.8784 101.008 63.6609C101.73 64.4433 101.76 65.1655 102.512 67.1517C103.084 68.7616 101.309 68.5811 100.466 71.1691C99.473 74.2988 102.136 76.3451 103.897 75.4273C104.694 75.021 104.709 74.2687 103.551 73.9226C102.392 73.5765 101.956 73.08 102.151 72.3277C102.708 70.2212 105.146 69.514 104.529 67.1065Z" fill="#000001"/>
<path d="M74.4356 190.11C75.2932 190.833 76.2111 190.291 76.1208 189.463C76.0004 188.215 81.2216 152.058 75.549 153.954C74.571 154.285 76.8882 156.135 75.8198 167.496C75.0976 175.214 75.6995 173.92 75.3534 178.028C75.0374 181.85 73.2168 189.072 74.4356 190.11Z" fill="#000001"/>
</svg>
