<svg width="334" height="334" viewBox="0 0 334 334" fill="none" xmlns="http://www.w3.org/2000/svg">
<path d="M134.018 300.15L130.428 321.86C137.155 323.88 144.206 324.6 151.202 323.98C161.089 322.912 172.528 324.999 243.186 324.999C248.831 324.999 255.761 324.749 255.761 323.713C255.761 322.678 253.206 316.666 252.688 312.942C252.171 309.218 249.983 297.411 248.33 294.087C246.676 290.764 198.931 267.017 178.19 277.538C157.448 288.059 134.018 300.15 134.018 300.15Z" fill="#FF9C9F"/>
<path d="M208.049 231.024C208.179 231.616 208.241 232.222 208.233 232.828C208.233 233.112 207.749 233.396 207.381 233.629C206.029 234.514 174.633 256.091 174.549 255.824C173.798 252.851 171.777 256.024 191.383 242.18C201.586 234.999 205.795 232.277 207.147 231.375C207.515 231.124 207.966 230.891 208.049 231.024Z" fill="#D9D9D9"/>
<path d="M191.766 235.852C193.586 234.733 193.737 234.082 190.096 233.764C188.927 233.664 171.592 232.696 168.386 232.696C166.332 232.696 166.549 231.977 165.764 229.806C165.53 229.189 165.764 229.339 169.822 229.472C175.216 229.656 201.101 230.157 205.36 230.725C204.625 231.393 173.446 252.285 173.363 252.017C172.11 248.06 171.893 248.076 172.427 248.06C174.699 248.06 174.682 248.293 176.719 246.657C178.072 245.488 190.38 236.67 191.766 235.852Z" fill="#D9D9D9"/>
<path d="M189.847 234.998C188.962 236.033 175.368 245.686 174.7 246.087C173.581 246.738 171.36 246.755 171.043 245.953C169.909 243.309 168.971 240.585 168.237 237.804C166.968 233.862 167.085 234.029 168.721 234.029C175.886 234.38 187.86 234.647 189.847 234.998Z" fill="#D9D9D9"/>
<path d="M114.362 217.697C114.245 223.108 109.486 225.463 105.795 222.941C100.785 219.601 100.785 213.572 103.774 210.767C106.764 207.961 113.561 209.998 114.362 217.697Z" fill="#D9D9D9"/>
<path d="M171.141 252.365C172.711 256.841 172.711 256.657 171.776 256.707L154.107 256.607C154.797 255.861 155.597 255.225 156.478 254.72C157.381 254.236 158.241 253.677 159.05 253.05C159.307 252.809 159.492 252.503 159.586 252.164C159.68 251.826 159.68 251.468 159.585 251.129C159.401 250.194 160.002 250.378 161.889 249.459C162.215 249.304 162.492 249.063 162.691 248.762C162.89 248.461 163.003 248.112 163.019 247.751C163.034 247.391 162.951 247.033 162.779 246.716C162.606 246.399 162.351 246.135 162.04 245.952C155.827 242.278 141.582 254.219 136.205 250.962C137.708 249.459 139.695 249.009 142.885 245.952C145.98 243.234 148.866 240.287 151.519 237.135C153.189 234.93 150.55 233.311 147.911 234.012C145.391 234.727 143.134 236.16 141.415 238.137C139.996 240.191 137.791 240.458 134.151 242.329C131.295 243.815 126.535 247.739 121.041 244.483C118.503 242.963 120.306 240.625 122.11 238.27C128.439 229.92 123.179 226.196 120.006 230.438C115.614 236.3 118.87 231.791 112.641 239.022C111.071 240.859 111.639 241.527 109.635 247.99C106.98 256.574 113.526 254.87 97.277 254.069C97.277 254.069 84.8856 252.966 81.7961 252.566C80.7774 252.432 80.1261 252.115 77.7547 244.834C77.4374 243.865 75.2497 238.788 74.2644 236.15C71.9765 230.138 66.5991 213.387 60.0026 196.37C57.0133 188.655 59.1676 186.751 64.8122 185.682C74.565 183.845 119.054 185.064 128.99 185.866C157.146 188.187 145.991 180.956 171.141 252.365ZM100.199 217.629C101.869 227.9 115.68 229.035 116.198 217.98C115.714 204.319 98.0953 204.42 100.199 217.629Z" fill="#D9D9D9"/>
<path d="M207.448 43.5006C208.668 44.8199 210.221 44.4525 209.803 45.1706C207.332 49.7297 209.052 51.6669 205.845 49.1953C204.559 48.2601 206.847 42.8326 207.448 43.5006Z" fill="#FF9C9F"/>
<path d="M107.934 256.829C108.802 256.946 108.802 256.946 108.802 258.015C108.506 259.67 108.478 261.361 108.719 263.025C107.822 262.459 107.159 261.588 106.853 260.573C106.546 259.557 106.616 258.466 107.049 257.497C107.182 256.746 107.216 256.729 107.934 256.829Z" fill="#FFC280"/>
<path d="M127.271 266.097C128.239 265.128 134.468 264.894 133.667 265.78C123.229 277.47 110.454 273.779 106.947 270.172C103.791 266.832 102.538 267.182 100.651 264.844C98.3798 262.022 97.4112 261.187 97.0104 259.55C96.1587 256.21 95.6076 255.927 96.7098 256.06C106.279 257.246 104.759 255.593 104.459 259.667C104.342 261.22 105.344 262.306 107.799 265.212C108.845 266.168 109.961 267.044 111.139 267.834C113.792 269.539 116.904 270.39 120.056 270.272C122.328 270.155 125.434 267.967 127.271 266.097Z" fill="#FFC280"/>
<path d="M179.592 255.025C184.268 252.035 184.118 251.017 183.75 253.271C182.531 260.736 185.42 271.641 183.517 285.853C182.893 288.879 182.758 291.986 183.116 295.055C183.65 297.777 182.915 300.415 182.615 304.507C182.615 304.908 182.498 305.158 182.13 305.242C181.365 305.461 180.561 305.507 179.776 305.375C174.076 304.251 168.262 303.813 162.458 304.073C152.004 304.073 152.805 302.152 143.236 300.182C139.412 299.397 140.831 300.666 128.356 297.743C126.97 297.426 129.225 292.266 131.162 280.776C133.266 268.168 134.352 268.201 135.972 266.03C136.84 264.878 138.076 266.865 143.386 264.961C147.411 263.525 150.885 263.425 152.889 261.621C153.59 260.987 154.859 260.586 154.909 259.517C154.909 259.15 155.06 259.016 155.711 258.966C156.362 258.916 172.945 259.083 173.313 258.966C174.816 258.682 175.768 257.463 179.592 255.025Z" fill="#FFC280"/>
<path d="M230.461 187.507C230.678 190.747 231.513 194.438 228.14 195.356C224.349 196.16 220.468 196.452 216.6 196.225C213.84 195.784 211.036 195.678 208.25 195.908C205.678 196.024 202.188 196.208 202.622 193.469C203.591 187.24 202.405 173.747 202.388 173.429C202.388 172.027 202.555 171.459 203.674 171.609C204.785 171.727 205.904 171.727 207.014 171.609C209.235 171.409 213.043 171.325 214.73 172.795C215.782 173.713 216.934 174.214 218.07 173.363C219.209 172.503 220.537 171.931 221.944 171.693C224.814 171.275 227.712 171.091 230.611 171.141C230.199 176.587 230.149 182.055 230.461 187.507ZM220.324 193.202C220.525 194.238 222.094 194.304 221.994 192.885C220.942 183.95 222.829 174.214 220.809 174.198C220.007 174.198 219.94 186.672 220.024 188.159C219.937 189.843 220.015 191.533 220.257 193.202H220.324ZM211.406 193.369C211.724 188.175 211.173 190.363 211.089 175.901C211.089 175.216 211.089 174.231 210.488 174.081C209.887 173.93 209.653 174.398 209.62 174.932C209.281 181.128 209.387 187.339 209.937 193.519C209.92 194.405 211.29 194.371 211.34 193.369H211.406Z" fill="#FFC280"/>
<path d="M232.029 161.004C232.241 163.546 231.952 166.105 231.178 168.536C230.51 170.59 227.036 168.536 221.776 169.738C220.046 169.959 218.399 170.608 216.983 171.625C216.014 172.327 216.599 170.724 212.524 170.056C208.048 169.337 205.176 170.056 203.038 169.588C199.999 168.87 201.034 164.895 201.068 164.895C200.734 158.098 199.498 159.585 217.651 159.1C231.328 158.733 231.846 158.75 232.029 161.004ZM218.185 167.484C218.369 165.563 215.062 165.53 215.396 167.768C215.447 168.126 215.635 168.451 215.921 168.674C216.206 168.897 216.567 169.002 216.927 168.965C217.287 168.928 217.62 168.754 217.854 168.478C218.089 168.201 218.207 167.845 218.185 167.484Z" fill="#FFC280"/>
<path d="M179.191 123.576C179.376 124.62 179.272 125.694 178.891 126.683C177.788 120.938 172.778 125.58 171.81 131.359C170.407 139.575 170.674 140.243 170.24 139.592C164.896 131.492 166.533 137.471 163.861 128.252C163.072 126.267 161.529 124.676 159.569 123.827C158.567 123.309 157.414 121.622 157.732 121.138C159.669 118.282 158.149 117.531 161.523 113.389C162.222 112.508 163.018 111.707 163.894 111.001C163.561 112.246 163.67 113.567 164.203 114.74C164.737 115.912 165.66 116.863 166.816 117.431C168.937 118.733 168.269 120.604 172.144 121.305C176.669 122.157 178.857 122.174 179.191 123.576ZM167.501 133.73C167.501 135.767 170.273 135.4 169.605 133.413C169.355 132.644 169.038 132.444 168.236 132.561C167.768 132.678 167.568 133.012 167.568 133.763L167.501 133.73Z" fill="#FFC280"/>
<path d="M294.554 62.3736C301.602 62.908 307.246 64.6114 307.046 71.8258C306.912 76.6354 307.797 74.5479 302.687 73.2453C297.577 71.9427 294.12 71.5753 284.1 75.433C281.612 76.4016 274.598 79.3241 271.625 82.3969C271.494 82.5272 271.399 82.6905 271.352 82.8697C271.305 83.0489 271.307 83.2374 271.358 83.4156C271.358 83.6995 271.659 84.0335 272.377 83.6494C277.554 80.8104 292.15 71.5753 303.105 75.767C312.24 79.2406 307.564 86.7723 306.161 85.787C300.232 81.8291 284.05 84.451 276.602 85.6033C275.199 85.8204 275.767 86.8224 276.602 86.8892C282.731 87.3902 307.213 82.3802 306.278 90.8638C304.958 102.821 287.574 116.064 278.372 125.65C274.097 130.092 269.271 139.361 261.071 148.295C253.272 156.795 250.884 164.494 247.978 162.139C231.979 149.197 229.842 129.758 228.372 129.09C228.255 129.031 228.122 129.006 227.991 129.018C227.86 129.031 227.735 129.08 227.63 129.16C227.526 129.24 227.446 129.348 227.4 129.472C227.354 129.595 227.344 129.729 227.37 129.858C228.723 144.137 246.308 167.584 250.283 164.411C250.322 178.26 249.491 192.098 247.794 205.843C245.623 221.057 243.319 225.883 243.703 231.595C245.506 258.749 247.494 252.503 249.381 265.663C251.134 277.854 250.934 272.343 255.393 288.174C257.063 294.119 256.729 293.585 256.128 293.986C248.262 299.18 249.899 298.244 241.716 299.614C232.848 301.117 235.687 305.893 215.163 304.173C206.562 303.455 212.574 302.503 200.133 305.058C196.575 305.793 197.561 305.876 195.006 305.86C193.185 305.86 192.785 306.01 192.484 305.041C188.643 292.199 192.033 299.263 186.522 281.528C185.37 277.854 186.522 275.015 186.088 271.24C186.004 270.556 185.587 264.393 185.553 262.757C185.236 249.864 186.138 250.232 187.541 249.23C212.591 231.361 209.618 235.152 209.535 230.609C209.535 228.539 204.525 229.607 189.127 228.472C187.591 228.355 187.457 228.655 187.357 227.787C186.672 213.843 187.808 210.586 187.724 205.877C187.624 198.462 184.501 197.627 185.119 187.857C185.821 176.568 186.088 181.294 185.203 169.254C185.069 167.45 185.052 163.459 184.919 161.471C184.422 158 184.11 154.505 183.984 151C183.984 144.805 185.654 126.602 190.513 122.61C195.373 118.619 195.707 121.158 200.016 116.949C205.026 111.939 205.877 111.238 208.098 107.497C209.117 105.827 208.265 105.192 207.33 104.157C208.023 103.792 208.789 103.59 209.572 103.566C210.354 103.542 211.132 103.697 211.846 104.019C212.559 104.341 213.19 104.822 213.689 105.425C214.189 106.027 214.544 106.736 214.728 107.497C215.48 110.186 216.398 110.47 217.617 113.592C221.058 122.911 209.869 125.7 208.265 131.578C207.611 133.649 206.404 135.503 204.775 136.939C204.174 137.624 203.105 134.551 202.972 133.599C202.629 132.419 202.01 131.337 201.168 130.443C197.561 125.934 196.826 120.206 190.647 125.065C188.977 126.335 186.873 132.664 188.376 133.031C189.879 133.399 190.046 127.437 192.233 126.351C193.553 125.7 194.171 124.381 195.29 125.6C197.594 128.071 198.212 130.176 200.3 132.747C200.851 133.399 203.038 142.2 205.56 138.926C206.228 138.058 207.063 137.256 207.764 136.471C210.603 132.981 209.434 131.628 211.789 129.474C215.814 125.95 219.12 122.928 220.139 118.569C220.356 117.867 220.407 117.124 220.289 116.398C220.072 115.446 220.006 114.478 219.788 113.509C219.571 112.54 218.503 111.421 219.571 111.455C225.934 111.622 225.951 112.256 228.823 110.82C239.945 105.293 232.163 107.313 250.45 99.1303C259.15 95.2726 261.037 89.5445 262.941 90.1624C264.845 90.7803 266.281 90.1624 270.456 88.9266C270.924 88.793 271.425 88.7429 271.692 88.0248C271.732 87.9218 271.752 87.8118 271.749 87.7013C271.746 87.5907 271.722 87.4818 271.677 87.3808C271.632 87.2798 271.567 87.1888 271.487 87.113C271.406 87.0372 271.311 86.9781 271.208 86.9393C269.838 86.4383 264.327 90.2793 263.075 87.5906C261.989 85.2192 261.271 84.0001 262.39 82.4637C267.951 74.932 266.298 78.6895 272.026 71.4417C274.76 68.2109 278.241 65.6963 282.166 64.116C286.092 62.5357 290.345 61.9376 294.554 62.3736ZM235.169 119.938C236.839 154.073 248.696 149.464 244.922 146.959C236.572 141.365 237.758 117.985 235.854 114.11C235.587 113.576 234.668 113.225 234.451 114.411C234.334 115.095 235.002 116.582 235.169 119.938ZM232.514 169.888C233.566 168.218 233.917 164.127 233.883 162.039C233.883 156.712 234.401 156.595 208.416 157.447C200.567 157.697 198.63 156.294 199.164 167.266C199.298 170.155 200.934 170.239 200.734 171.191C200.016 174.765 200.901 175.917 200.934 177.42C201.101 190.062 201.302 190.446 200.817 193.101C200.683 193.568 200.647 194.057 200.712 194.538C200.777 195.019 200.941 195.481 201.194 195.896C201.446 196.31 201.782 196.668 202.18 196.946C202.578 197.223 203.03 197.416 203.506 197.51C207.865 198.696 208.015 196.892 216.499 198.195C217.701 198.395 227.587 197.677 227.721 197.66C233.95 196.558 232.197 189.628 232.18 189.31C231.814 184.56 231.736 179.792 231.946 175.032C232.13 172.31 231.562 171.408 232.514 169.888ZM204.124 132.981C204.525 134.133 206.312 133.649 206.278 132.48C205.727 129.758 203.539 131.044 204.191 132.981H204.124ZM191.783 290.045C190.847 292.7 194.488 293.385 194.321 290.445C194.304 289.076 192.451 288.341 191.849 290.045H191.783ZM189.712 205.025C189.734 205.362 189.889 205.676 190.143 205.898C190.396 206.12 190.728 206.233 191.064 206.211C191.401 206.189 191.715 206.034 191.937 205.78C192.16 205.526 192.272 205.195 192.25 204.858C192.279 204.67 192.265 204.478 192.21 204.296C192.155 204.114 192.059 203.947 191.93 203.807C191.802 203.667 191.643 203.557 191.467 203.487C191.29 203.416 191.1 203.386 190.91 203.399C190.72 203.412 190.536 203.467 190.37 203.561C190.205 203.654 190.063 203.784 189.954 203.94C189.845 204.096 189.773 204.275 189.743 204.463C189.712 204.65 189.725 204.843 189.779 205.025H189.712ZM191.799 223.128C192.083 221.575 190.129 221.14 189.662 221.758C187.958 224.313 191.382 225.766 191.866 223.128H191.799ZM189.628 272.693C189.816 272.705 190.004 272.678 190.182 272.616C190.359 272.554 190.523 272.457 190.663 272.332C190.803 272.206 190.916 272.053 190.997 271.883C191.077 271.713 191.123 271.529 191.131 271.341C191.145 270.961 191.009 270.591 190.753 270.31C190.497 270.029 190.141 269.859 189.762 269.838C188.376 269.771 187.775 272.71 189.695 272.693H189.628ZM189.745 254.323C189.745 253.538 189.411 253.188 188.409 253.021C186.739 253.472 186.906 255.876 188.409 255.943C189.261 256.043 189.728 255.509 189.812 254.39L189.745 254.323ZM189.745 186.722C189.745 185.837 189.394 185.436 188.443 185.336C187.791 185.336 187.24 185.519 187.14 186.805C187.04 188.592 189.612 188.909 189.728 186.789L189.745 186.722ZM189.361 168.786C189.361 166.932 186.639 166.515 186.589 168.686C186.551 169.053 186.66 169.42 186.891 169.708C187.123 169.995 187.458 170.18 187.825 170.222C188.016 170.241 188.209 170.219 188.392 170.159C188.575 170.099 188.743 170.001 188.886 169.872C189.029 169.743 189.144 169.586 189.223 169.411C189.301 169.235 189.343 169.045 189.344 168.853L189.361 168.786ZM185.737 151.802C185.737 153.656 188.493 153.372 188.376 151.351C188.292 150.015 185.654 150.032 185.737 151.802Z" fill="#FFC280"/>
<path d="M185.37 224.495C185.554 229.672 187.207 228.587 175.35 228.203C164.696 227.835 165.33 228.036 164.946 226.984C153.841 195.254 153.657 188.407 147.444 186.185C141.9 184.198 137.424 185.05 137.241 183.814C136.205 171.707 138.56 170.103 137.241 162.538C137.241 162.004 136.005 161.486 136.055 163.023C136.168 166.373 135.972 169.728 135.471 173.043C134.435 180.775 136.072 184.215 134.819 184.198C130.811 184.198 118.771 183.246 103.908 182.795C103.473 182.795 103.624 182.662 103.724 182.495C105.594 179.756 106.413 177.702 108.383 178.587C110.076 179.155 111.911 179.135 113.591 178.528C115.27 177.922 116.696 176.766 117.635 175.247C117.635 175.13 118.921 171.773 118.938 171.74C119.255 170.805 119.155 171.74 125.334 171.74C129.325 171.74 133.5 165.06 132.832 160.818C132.298 157.261 133.5 155.441 130.36 151.984C124.816 145.872 119.856 149.612 119.422 155.558C119.422 156.343 118.57 156.176 118.386 155.758C117.885 154.589 117.435 153.053 115.631 152.936C114.996 152.936 114.879 152.752 116.633 149.696C118.386 146.64 119.806 145.621 121.643 145.003C124.616 144.001 124.432 141.663 126.386 140.928C137.04 137.004 133.066 132.896 154.091 124.446C155.878 123.744 156.078 123.11 156.396 123.677C158.066 126.466 161.406 125.731 162.374 130.675C162.598 133.101 163.717 135.358 165.514 137.004C168.57 139.609 169.355 144.803 171.526 142.181C173.697 139.559 172.211 128.22 176.536 126.182C177.488 128.788 176.386 136.202 180.828 139.409C183.7 141.53 181.396 145.204 182.732 160.768C185.003 187.121 181.379 188.39 183.85 197.324C187.675 210.651 184.602 203.119 185.37 224.495Z" fill="#FFC280"/>
<path d="M191.2 108.7C193.187 108.466 193.371 109.852 193.037 110.871C193.008 111.077 192.93 111.273 192.809 111.441C192.688 111.61 192.528 111.747 192.342 111.841C192.157 111.935 191.951 111.982 191.744 111.979C191.536 111.976 191.332 111.922 191.15 111.823C190.615 111.623 190.164 111.238 189.997 111.823C189.83 112.407 190.632 113.593 189.463 114.428C188.895 114.829 187.893 114.862 187.142 113.293C187.067 113.128 186.944 112.99 186.789 112.898C186.633 112.805 186.453 112.762 186.273 112.775C185.221 112.775 185.956 114.545 184.236 115.146C182.883 115.631 182.148 114.946 181.697 113.476C181.397 112.508 180.478 112.608 180.128 113.393C179.627 114.545 177.289 115.063 176.971 113.192C176.721 111.723 177.172 111.172 175.652 110.971C175.309 110.995 174.97 110.893 174.696 110.686C174.422 110.478 174.233 110.178 174.164 109.842C174.095 109.505 174.15 109.155 174.319 108.856C174.488 108.557 174.76 108.33 175.084 108.216C175.919 107.865 177.055 109.652 178.157 108.049C178.36 107.663 178.706 107.371 179.121 107.237C179.536 107.103 179.987 107.137 180.378 107.331C180.937 107.68 181.402 108.162 181.731 108.733C181.948 109.101 182.299 109.168 182.482 108.9C182.726 108.492 182.88 108.037 182.933 107.565C183.234 106.462 184.436 105.711 185.288 106.613C186.14 107.514 186.039 108.416 186.808 108.5C187.576 108.583 187.459 108.199 188.01 107.331C189.029 105.661 190.164 105.828 190.315 107.498C190.381 108.55 190.381 108.8 191.2 108.7Z" fill="#585858"/>
<path d="M212.207 29.274C220.992 27.604 220.374 39.4275 218.67 38.4088C218.103 38.0749 217.668 38.3087 217.635 37.5739C217.552 36.6737 217.249 35.8079 216.752 35.0531C216.254 34.2983 215.578 33.6778 214.784 33.2467C213.99 32.8156 213.101 32.5872 212.197 32.5817C211.293 32.5762 210.402 32.7938 209.602 33.2152C208.316 33.9667 199.582 25.4163 190.765 21.9928C186.322 20.3228 184.235 19.3041 183.033 18.8365C182.512 18.5926 181.947 18.4579 181.373 18.4406C180.798 18.4234 180.227 18.524 179.693 18.7363C178.656 19.049 177.719 19.6243 176.97 20.4063C176.319 21.3415 175.067 19.8051 172.846 21.4083C172.445 21.6922 171.576 22.0763 171.51 22.8779C171.443 23.6795 170.591 23.6628 169.973 24.0135C168.053 25.0155 164.796 27.3535 164.078 29.441C163.661 30.6624 162.943 31.7592 161.991 32.6307C160.554 34.5512 163.343 35.9707 165.18 35.2526C166.894 34.5092 168.356 33.2853 169.389 31.7289C170.04 30.9106 170.741 30.9607 173.096 30.9273C173.864 30.9273 173.914 31.1277 174.482 31.6287C172.545 33.2987 167.418 32.998 165.113 37.3902C164.095 39.3106 163.577 39.0602 161.673 41.8657C161.089 42.7341 161.356 44.2873 163.844 44.4709C164.634 44.5592 165.433 44.4532 166.172 44.1621C166.912 43.8711 167.569 43.4038 168.086 42.8009C171.61 39.8116 169.756 39.7449 173.096 39.8618C175.079 39.8108 177.039 39.4211 178.891 38.7095C179.425 38.5592 187.742 44.4375 192.251 45.5231C195.289 46.2062 198.389 46.5756 201.503 46.6253C202.204 46.6253 204.292 47.6606 203.874 48.1115C201.035 51.3346 199.215 48.8296 197.311 48.6626C195.407 48.4956 194.789 49.6479 192.585 48.6626C191.65 48.2618 192.167 46.1576 190.598 47.3934C189.909 47.8499 189.082 48.0497 188.261 47.9582C187.439 47.8666 186.677 47.4894 186.105 46.8924C185.538 46.2579 184.435 45.9739 184.435 46.9926C184.547 47.423 184.539 47.8758 184.41 48.3016C184.282 48.7273 184.039 49.1095 183.708 49.4062C183.376 49.7029 182.97 49.9026 182.533 49.9836C182.095 50.0645 181.644 50.0235 181.229 49.8651C180.327 49.6313 180.31 48.195 179.559 48.3287C178.357 48.6126 180.077 52.9879 175.668 51.6687C175.283 51.5229 174.932 51.2997 174.638 51.013C174.343 50.7263 174.11 50.382 173.953 50.0016C173.797 49.6212 173.72 49.2127 173.727 48.8014C173.735 48.3902 173.827 47.9848 173.998 47.6105C174.349 47.0928 174.516 46.4249 173.998 46.0742C172.745 45.2225 172.328 48.7962 169.639 46.3414C168.888 45.6567 168.604 46.1576 168.27 47.1095C167.966 47.9703 167.36 48.6917 166.564 49.14C165.769 49.5884 164.838 49.7332 163.944 49.5477C162.274 49.1971 161.206 46.6253 160.204 47.31C158.667 48.362 163.644 52.7207 158.534 56.9291C154.91 59.9017 155.194 54.6245 155.194 54.5745C155.178 54.452 155.129 54.3364 155.05 54.2412C154.972 54.1459 154.868 54.0749 154.751 54.0364C154.633 53.9979 154.508 53.9935 154.388 54.0237C154.268 54.0539 154.16 54.1175 154.075 54.207C153.54 54.6579 153.457 55.7602 151.703 56.5785C149.015 57.8143 146.376 53.2384 149.299 51.3848C151.336 50.1156 150.969 50.0321 149.616 49.3974C149.262 49.2631 148.949 49.0406 148.705 48.7512C148.462 48.4618 148.296 48.115 148.225 47.7437C148.153 47.3724 148.177 46.9889 148.295 46.6295C148.412 46.2701 148.62 45.9467 148.898 45.6901C149.132 45.4396 149.683 45.0888 149.399 44.521C149.115 43.9533 148.764 43.8363 148.213 43.8698C145.424 44.0535 143.203 39.5779 146.025 36.3715C146.347 35.9525 146.796 35.6495 147.305 35.5079C147.814 35.3663 148.356 35.3939 148.848 35.5866C149.633 35.6868 150.083 35.119 149.716 34.4009C147.261 29.7082 152.605 25.1658 156.396 28.94C156.78 29.3408 156.914 29.9253 157.832 29.608C158.751 29.2907 158.367 28.5392 158.083 27.6875C157.676 26.6451 157.681 25.4871 158.097 24.4483C158.512 23.4094 159.307 22.5674 160.321 22.093C162.091 21.5252 165.331 24.3141 164.345 21.1912C161.874 13.743 172.695 8.43235 175.534 15.5633C175.885 16.4818 176.52 16.9661 176.954 16.1645C177.922 14.4945 177.922 12.6742 180.194 11.4718C182.465 10.2694 183.701 9.68485 185.371 11.3883C187.041 13.0917 186.874 15.8305 188.343 14.3442C192.034 10.6535 192.618 16.9828 194.138 16.9828C195.658 16.9828 194.556 15.0289 197.729 13.1251C200.117 11.7056 202.087 11.0543 204.058 12.9915C206.964 15.8639 205.026 18.8198 205.628 20.1057C206.529 22.0262 208.283 17.1999 210.537 18.4357C211.24 18.9103 211.806 19.5612 212.178 20.3232C212.55 21.0852 212.716 21.9316 212.658 22.7777C212.942 26.4016 206.897 30.2593 212.207 29.274Z" fill="#585858"/>
<path d="M160.455 247.025C161.591 247.827 160.722 248.227 159.002 248.862C150.535 252.052 148.982 253.872 141.784 257.112C140.315 257.763 139.947 257.93 140.265 258.548C141.4 260.819 156.113 251.367 157.783 251.367C158.167 251.367 158.334 251.584 158.201 251.952C157.933 252.703 157.048 252.987 156.03 253.505C151.754 255.742 150.368 258.982 143.254 260.285C142.294 260.465 141.346 260.705 140.415 261.003C140.064 261.12 140.048 261.437 140.098 261.771C140.148 262.105 140.315 262.306 142.436 261.921C149.8 260.569 146.945 259.166 152.873 258.982C153.942 258.982 153.324 259.884 151.738 260.652C150.298 261.233 148.826 261.729 147.329 262.139C137.626 265.479 134.286 262.84 129.076 263.675C123.481 264.543 122.646 270.255 115.916 267.382C107.9 264.042 111.29 258.598 110.739 255.108C110.288 252.319 110.956 251.334 112.192 246.173C113.428 241.013 111.374 242.549 121.962 230.793C123.331 229.273 124.851 232.229 120.024 238.441C118.471 240.445 117.185 242.182 118.638 244.487C120.091 246.791 125.769 249.63 133.084 245.021C137.676 242.115 139.764 242.934 142.853 239.46C145.609 236.27 150.969 234.784 149.734 236.387C147.529 239.26 145.676 240.028 143.571 242.499C139.346 247.426 135.221 247.777 133.969 250.415C133.217 251.952 136.34 254.941 143.538 252.586C147.913 251.15 154.493 247.109 158.334 246.724C159.055 246.636 159.787 246.74 160.455 247.025Z" fill="#C49E91"/>
<path d="M280.561 56.1928C282.615 56.8775 291.115 59.9503 288.911 60.2843C271.994 63.0064 271.977 70.6216 264.813 76.4499C261.857 78.838 261.607 80.9589 260.538 80.3744C244.94 72.0244 249.866 72.993 233.033 63.1233C207.983 48.3939 209.653 49.6464 209.97 48.611C211.507 43.0499 212.859 45.8555 215.782 42.6491C218.971 39.1588 213.527 38.6244 228.44 43.5175C249.048 50.281 266.533 51.6003 280.561 56.1928Z" fill="#C49E91"/>
<path d="M214.395 54.6743C214.828 57.9707 214.721 61.3156 214.078 64.5774C213.794 66.0136 213.243 63.8092 212.191 64.7277C211.989 64.9391 211.876 65.2202 211.876 65.5126C211.876 65.8051 211.989 66.0862 212.191 66.2975C212.541 66.7317 212.541 66.7317 212.09 67.0323C211.038 67.717 211.506 68.0844 209.235 68.5019C204.876 69.3035 204.993 69.6375 204.809 68.9528C203.139 63.0744 185.32 63.041 182.882 69.6375C182.348 71.1071 180.828 68.7357 177.655 70.8566C176.503 71.6248 177.655 65.3456 165.965 67.1993C161.139 67.9675 162.107 70.5393 159.452 59.3503C159.168 58.1312 159.853 58.198 160.02 57.9976C165.03 51.7017 160.354 50.2655 163.694 51.1673C164.731 51.4141 165.82 51.3237 166.802 50.9092C167.784 50.4948 168.608 49.7779 169.155 48.8627C169.372 48.4786 169.539 48.3617 169.99 48.5955C171.66 49.4472 172.378 48.2448 172.278 49.1633C171.843 53.0043 177.638 55.4926 179.976 52.0357C180.36 51.4846 180.327 51.4846 180.962 51.6015C181.789 51.7978 182.655 51.7527 183.457 51.4715C184.259 51.1903 184.964 50.6848 185.487 50.015C186.072 49.2802 185.688 48.7959 186.556 49.2802C188.877 50.6162 189.896 49.2802 190.831 49.7645C191.613 50.2786 192.499 50.6153 193.425 50.7509C194.351 50.8865 195.295 50.8177 196.192 50.5494C197.545 49.9649 198.764 51.4846 200.567 51.518C204.008 51.518 203.907 49.5474 204.909 50.4826C207.966 53.2381 209.719 51.7017 210.237 51.6182C210.471 51.6182 211.456 52.0858 211.506 52.3196C211.556 52.5534 211.506 52.854 211.69 53.3049C211.821 53.51 212.025 53.6572 212.261 53.7162C212.497 53.7752 212.747 53.7416 212.959 53.6222C213.76 53.2548 214.211 53.5721 214.395 54.6743ZM211.422 56.7785C211.405 56.9084 211.415 57.0405 211.453 57.1661C211.49 57.2916 211.555 57.4076 211.641 57.5063C211.727 57.605 211.833 57.6841 211.953 57.7383C212.072 57.7926 212.202 57.8206 212.333 57.8206C212.464 57.8206 212.593 57.7926 212.712 57.7383C212.832 57.6841 212.938 57.605 213.024 57.5063C213.111 57.4076 213.175 57.2916 213.212 57.1661C213.25 57.0405 213.26 56.9084 213.243 56.7785C213.209 55.3256 211.456 55.4592 211.422 56.7785ZM211.506 61.4545C211.51 61.6775 211.602 61.8899 211.761 62.046C211.92 62.2021 212.135 62.2896 212.358 62.2895C212.522 62.2862 212.682 62.2345 212.817 62.1408C212.952 62.047 213.056 61.9155 213.117 61.7627C213.178 61.6098 213.192 61.4425 213.158 61.2816C213.124 61.1208 213.043 60.9736 212.925 60.8584C212.808 60.7433 212.659 60.6655 212.498 60.6346C212.336 60.6037 212.169 60.6212 212.018 60.6848C211.866 60.7485 211.737 60.8555 211.646 60.9924C211.555 61.1293 211.506 61.2901 211.506 61.4545ZM210.855 63.9762C210.866 63.8643 210.855 63.7512 210.823 63.6434C210.79 63.5357 210.737 63.4354 210.666 63.3485C210.594 63.2615 210.506 63.1895 210.407 63.1368C210.307 63.084 210.198 63.0515 210.086 63.041C209.86 63.0268 209.636 63.1003 209.462 63.2464C209.288 63.3925 209.176 63.6 209.151 63.8259C209.119 63.9489 209.114 64.0776 209.136 64.2028C209.159 64.328 209.209 64.4467 209.282 64.5504C209.356 64.6542 209.452 64.7406 209.562 64.8033C209.673 64.8661 209.796 64.9038 209.923 64.9138C210.05 64.9237 210.177 64.9057 210.296 64.8609C210.415 64.8161 210.523 64.7458 210.612 64.6547C210.701 64.5637 210.769 64.4542 210.811 64.3341C210.853 64.214 210.868 64.0861 210.855 63.9595V63.9762ZM208.3 54.3236C208.3 55.7264 210.27 55.6596 210.253 54.3236C210.224 54.0862 210.11 53.8674 209.932 53.7081C209.753 53.5488 209.523 53.4598 209.284 53.4577C209.045 53.4557 208.813 53.5407 208.632 53.697C208.451 53.8532 208.333 54.07 208.3 54.3069V54.3236ZM209.469 60.035C209.598 60.0527 209.731 60.0423 209.856 60.0046C209.982 59.967 210.098 59.9029 210.196 59.8167C210.295 59.7305 210.374 59.6241 210.428 59.5048C210.483 59.3855 210.511 59.2559 210.511 59.1249C210.511 58.9938 210.483 58.8643 210.428 58.745C210.374 58.6256 210.295 58.5193 210.196 58.4331C210.098 58.3469 209.982 58.2828 209.856 58.2451C209.731 58.2075 209.598 58.1971 209.469 58.2147C209.336 58.189 209.199 58.193 209.067 58.2265C208.936 58.2599 208.814 58.3219 208.71 58.4081C208.605 58.4943 208.521 58.6025 208.463 58.7249C208.406 58.8474 208.376 58.9811 208.376 59.1165C208.376 59.2519 208.406 59.3857 208.463 59.5081C208.521 59.6306 208.605 59.7388 208.71 59.825C208.814 59.9112 208.936 59.9732 209.067 60.0066C209.199 60.04 209.336 60.044 209.469 60.0183V60.035ZM208.75 66.7985C208.699 66.6171 208.589 66.4574 208.438 66.3438C208.288 66.2301 208.104 66.1687 207.915 66.1687C207.727 66.1687 207.543 66.2301 207.392 66.3438C207.242 66.4574 207.132 66.6171 207.08 66.7985C207.044 66.9278 207.037 67.0638 207.062 67.196C207.086 67.3281 207.141 67.4527 207.222 67.56C207.303 67.6673 207.408 67.7544 207.528 67.8143C207.648 67.8743 207.781 67.9055 207.915 67.9055C208.05 67.9055 208.182 67.8743 208.303 67.8143C208.423 67.7544 208.528 67.6673 208.609 67.56C208.69 67.4527 208.745 67.3281 208.769 67.196C208.794 67.0638 208.787 66.9278 208.75 66.7985ZM207.665 61.7885C207.678 61.602 207.635 61.4158 207.542 61.2539C207.448 61.092 207.308 60.9619 207.14 60.8803C206.972 60.7988 206.783 60.7696 206.598 60.7964C206.413 60.8233 206.24 60.905 206.102 61.031C205.964 61.1571 205.866 61.3216 205.823 61.5034C205.779 61.6852 205.791 61.876 205.857 62.051C205.923 62.226 206.039 62.3773 206.192 62.4853C206.345 62.5933 206.526 62.6531 206.713 62.6569C206.838 62.6708 206.964 62.6589 207.084 62.6221C207.204 62.5853 207.315 62.5244 207.41 62.443C207.506 62.3617 207.583 62.2616 207.639 62.1491C207.694 62.0365 207.726 61.9138 207.732 61.7885H207.665ZM205.828 58.0477C206.964 58.0477 207.247 56.027 205.828 56.0437C205.696 56.0481 205.567 56.0784 205.447 56.1328C205.327 56.1872 205.219 56.2647 205.129 56.3608C205.039 56.457 204.969 56.5699 204.923 56.6931C204.877 56.8164 204.855 56.9475 204.859 57.0791C204.864 57.2107 204.894 57.3402 204.948 57.46C205.003 57.5799 205.08 57.6879 205.176 57.7779C205.273 57.8678 205.385 57.9379 205.509 57.9842C205.632 58.0305 205.763 58.0521 205.895 58.0477H205.828ZM205.678 53.1713C205.678 52.9144 205.576 52.6681 205.394 52.4864C205.212 52.3048 204.966 52.2027 204.709 52.2027C204.452 52.2027 204.206 52.3048 204.024 52.4864C203.842 52.6681 203.74 52.9144 203.74 53.1713C203.74 53.4371 203.846 53.6919 204.034 53.8799C204.222 54.0678 204.477 54.1733 204.742 54.1733C205.008 54.1733 205.263 54.0678 205.451 53.8799C205.639 53.6919 205.744 53.4371 205.744 53.1713H205.678ZM198.33 63.9762C199.131 63.9762 200.417 62.8072 198.897 62.0223C196.226 60.8221 193.468 59.8228 190.648 59.033C189.518 58.9812 188.402 59.2855 187.455 59.9027C186.508 60.52 185.779 61.4192 185.37 62.4732C184.97 63.8259 186.924 63.6923 187.274 62.6569C187.732 61.9008 188.441 61.3294 189.278 61.0425C190.114 60.7556 191.024 60.7714 191.85 61.0871C195.39 62.3563 197.478 63.8927 198.396 63.9762H198.33ZM173.23 60.1185C176.286 61.2708 176.269 57.864 171.56 57.9308C168.737 57.9308 166.55 59.2835 162.308 63.4585C162.058 63.7101 161.905 64.0409 161.874 64.3937C161.874 64.7945 162.324 64.878 162.642 64.9448C164.579 65.3456 168.053 58.1646 173.23 60.1185Z" fill="#C49E91"/>
<path d="M196.711 26.7194C208.618 35.0694 208.033 34.368 207.532 34.9358C206.743 35.7771 206.185 36.8084 205.913 37.9293C205.641 39.0502 205.664 40.2224 205.979 41.3319C206.43 42.217 205.979 42.551 204.51 45.6572C204.075 46.5757 204.259 45.39 201.487 45.1395C195.391 44.5884 192.92 44.8389 188.027 42.1001C178.758 36.9231 179.677 36.8396 176.337 37.875C172.997 38.9104 170.976 37.6746 169.373 39.545C167.152 42.1335 166.233 43.5697 163.812 43.2524C162.81 43.1188 162.826 42.6345 163.144 42.2003C163.545 41.6496 163.974 41.1201 164.43 40.6138C167.085 37.8416 166.1 37.541 168.371 36.0046C172.145 33.4662 173.214 35.036 175.585 32.865C176.955 31.6125 176.203 29.1075 172.061 29.4248C168.154 29.4248 169.757 30.4769 165.381 33.6666C164.513 34.3012 163.01 33.9505 163.478 33.3159C167.152 28.3059 164.079 30.3767 169.623 26.1182C170.449 25.6092 171.369 25.274 172.329 25.1329C173.13 24.9158 173.097 25.1329 178.591 27.3039C180.261 27.9552 182.282 27.187 177.673 25.2331C176.166 24.5684 174.615 24.0104 173.03 23.5631C172.596 23.4462 173.147 22.8951 173.882 22.4943C174.436 22.2036 175.073 22.115 175.685 22.2438C176.598 22.369 177.487 22.6279 178.324 23.012C179.994 23.6633 181.363 23.8971 183.434 24.682C184.336 25.016 184.987 24.181 184.102 23.5631C182.816 22.6446 181.28 22.8784 178.157 21.3086C178.685 20.778 179.338 20.3884 180.056 20.1754C180.773 19.9624 181.533 19.9329 182.265 20.0895C184.77 20.7575 185.989 21.9599 189.947 23.4295C192.343 24.2083 194.619 25.3155 196.711 26.7194Z" fill="#C49E91"/>
<path d="M205.493 107.796C205.978 108.781 198.162 116.413 196.091 117.565C195.473 117.932 194.087 118.183 193.519 118.467C185.904 122.258 186.639 125.247 184.618 131.827C183.817 134.482 183.967 139.592 183.232 138.858C179.892 135.518 178.773 135.434 180.41 128.554C181.596 123.544 181.946 120.788 176.836 120.053C168.486 118.834 170.674 119.152 170.657 114.843C170.657 114.492 170.908 106.142 170.958 105.808C171.737 106.398 172.371 107.157 172.811 108.029C172.995 108.464 172.811 108.781 172.644 109.599C172.554 109.976 172.546 110.369 172.62 110.749C172.694 111.13 172.848 111.491 173.073 111.807C173.297 112.123 173.587 112.388 173.922 112.583C174.257 112.778 174.63 112.9 175.016 112.939C176.018 112.939 174.899 116.162 178.189 116.279C180.093 116.48 180.477 114.876 181.061 115.695C181.34 116.116 181.71 116.468 182.145 116.725C182.579 116.982 183.066 117.137 183.569 117.179C184.073 117.221 184.579 117.148 185.049 116.966C185.52 116.784 185.944 116.498 186.288 116.129C186.99 115.444 187.006 116.129 188.66 116.463C189.29 116.555 189.931 116.407 190.457 116.048C190.983 115.689 191.355 115.146 191.499 114.526C191.535 114.325 191.643 114.145 191.803 114.019C191.963 113.893 192.164 113.83 192.367 113.841C194.304 113.59 194.538 111.353 194.521 111.052C194.521 109.532 199.398 109.015 203.756 104.99C205.827 103.069 205.343 103.32 205.326 104.756C205.147 105.769 205.204 106.809 205.493 107.796Z" fill="#C49E91"/>
<path d="M218.772 74.312C218.772 73.1263 219.006 70.2038 216.801 68.4169C216.148 68.0257 215.389 67.8462 214.63 67.903C213.87 67.9598 213.147 68.2501 212.559 68.7342C211.86 69.4236 211.309 70.249 210.942 71.1596C210.574 72.0701 210.397 73.0464 210.422 74.0281C210.422 74.7629 209.453 75.5144 209.153 74.7629C208.852 74.0114 208.969 73.6774 209.286 71.4229C209.403 70.6046 209.002 71.1223 206.931 71.8404C202.89 73.2599 208.401 80.8751 196.243 82.7455C193.335 83.0486 190.396 82.7762 187.593 81.9439C182.165 79.823 183.835 72.9092 181.481 72.2913C179.811 71.8237 177.957 72.8424 178.241 73.8611C178.652 74.8313 178.789 75.8961 178.636 76.9388C178.483 77.9815 178.045 78.9619 177.372 79.7729C175.352 81.827 173.815 83.3801 175.352 85.668C175.838 86.3483 176.501 86.8823 177.27 87.212C178.038 87.5418 178.882 87.6546 179.71 87.5384C183.167 87.5384 183.201 84.7495 184.72 86.0354C186.24 87.3213 188.795 86.5698 187.726 84.5157C187.309 83.7141 186.891 83.5638 187.309 82.9793C188.328 81.5765 191.2 85.3674 188.895 87.5217C187.075 89.1917 185.322 88.3233 183.885 87.7555C179.928 91.4796 172.346 89.0247 172.98 83.6473C173.097 82.6453 169.173 85.7682 163.845 84.4489C162.944 84.2318 162.86 84.2986 162.86 85.1837C163.131 89.2194 164.109 93.1762 165.749 96.8737C167.837 100.915 172.429 104.556 173.648 106.626C174.183 107.612 174.684 106.142 176.521 107.027C176.871 107.194 177.222 107.461 177.406 107.211C177.59 106.96 177.807 106.343 178.775 106.009C179.195 105.864 179.645 105.831 180.081 105.913C180.518 105.995 180.925 106.189 181.264 106.476C181.631 106.727 181.781 106.593 182.249 106.092C182.546 105.701 182.943 105.396 183.399 105.211C183.854 105.026 184.351 104.967 184.837 105.04C185.706 105.19 186.107 105.992 186.507 106.56C186.641 106.793 186.691 107.228 187.109 106.56C187.402 106.023 187.82 105.565 188.328 105.224C188.915 104.95 189.585 104.914 190.198 105.123C191.384 105.608 191.317 106.793 191.534 107.345C191.534 107.528 191.935 107.144 192.686 107.345C195.108 107.929 192.686 109.599 199.016 106.059C212.609 98.3934 207.149 82.2111 211.875 84.1316C212.594 84.5229 213.422 84.6694 214.232 84.5489C215.043 84.4284 215.792 84.0475 216.367 83.4636C218.354 81.2425 219.022 77.3347 218.772 74.312ZM188.912 96.9739C177.322 96.0721 176.972 98.2264 175.051 98.0093C173.732 97.859 174.934 95.8717 182.099 94.853C185.205 94.9365 187.109 94.5524 189.313 95.521C190.048 95.855 189.58 97.024 188.912 96.9739ZM190.348 99.9465C189.747 99.7795 188.829 99.7461 189.062 98.8109C189.094 98.6741 189.179 98.5553 189.298 98.4803C189.416 98.4053 189.56 98.3801 189.697 98.4101C192.486 98.7441 192.302 94.4188 193.588 96.4729C194.056 97.2244 192.052 100.197 190.382 99.9465H190.348ZM216.801 72.2913C215.983 72.5919 215.131 70.4376 214.43 72.3748C213.842 73.7068 213.668 75.1844 213.929 76.6166C214.296 77.4683 216.116 77.151 216.501 78.8878C216.601 79.3481 216.542 79.8289 216.332 80.251C216.123 80.673 215.776 81.011 215.348 81.2091C214.747 81.493 213.895 81.7769 213.778 81.0755C213.611 80.0902 215.298 80.4242 215.248 79.3053C215.198 78.1864 210.789 79.5391 212.877 72.4917C214.43 67.2145 217.92 71.807 216.801 72.2913Z" fill="#C49E91"/>
<path d="M309.067 77.2356C309.943 78.2955 310.511 79.5757 310.708 80.9365C310.906 82.2972 310.725 83.686 310.186 84.951C309.351 87.5061 307.498 87.122 308.082 88.291C310.62 93.7352 300.918 106.127 296.81 110.552C290.881 116.982 285.42 120.572 280.51 126.484C269.973 139.042 271.392 140.245 263.81 148.394C258.182 154.39 257.648 155.392 252.955 162.857C251.77 164.727 252.855 184.717 250.033 204.607C245.507 236.487 242.301 222.475 251.035 262.155C252.137 267.165 251.82 271.189 254.375 277.185C255.126 278.938 255.227 279.423 257.448 287.355C259.569 294.987 259.953 294.035 252.755 298.594C250.35 300.114 251.302 298.293 253.089 309.466C254.993 321.423 257.097 321.84 256.93 324.178C256.83 325.531 255.377 325.464 254.959 324.462C250.367 313.123 251.202 307.529 249.064 300.748C248.897 300.231 249.281 300.748 241.883 301.75C238.543 302.201 235.404 304.339 232.314 305.575C228.34 307.245 226.469 306.56 217.284 306.226C215.363 306.412 213.424 306.293 211.539 305.875C208.45 305.007 206.062 305.975 202.655 306.744C186.64 310.317 192.084 307.295 186.489 288.157C185.471 284.683 185.704 284.449 185.22 287.939C184.875 290.744 184.931 293.584 185.387 296.373C185.282 299.028 185.042 301.675 184.669 304.306C184.502 309.549 176.319 305.975 166.032 305.875C156.713 305.875 158.934 307.111 147.662 303.487C141.099 301.383 140.715 302.168 135.371 301.316C134.569 301.183 134.352 302.686 134.035 305.942C133.417 312.121 132.148 314.509 131.596 319.102C131.573 320.047 131.381 320.98 131.029 321.857C130.925 322.031 130.773 322.171 130.59 322.26C130.408 322.348 130.203 322.381 130.002 322.354C129.802 322.328 129.613 322.243 129.46 322.11C129.307 321.977 129.196 321.802 129.142 321.607C128.858 319.937 133.517 300.782 132.632 300.598C123.714 298.661 125.2 302.435 130.177 276.333C131.112 271.323 131.363 271.106 130.878 271.323C126.887 273.561 122.745 276.199 117.752 275.782C113.477 275.414 108.484 274.83 105.461 271.573C102.121 267.966 96.1424 266.43 94.4891 256.193C94.4891 255.675 94.7062 255.525 87.5252 255.057C82.6989 254.74 79.6929 255.191 78.1899 251.266C75.9855 245.572 57.8827 198.411 56.9976 192.416C56.1125 186.42 58.8179 184.066 66.6335 183.448C84.1017 182.045 90.0135 183.231 88.8111 182.446C87.8626 181.741 86.8161 181.178 85.7049 180.776C84.3689 180.308 84.3188 179.54 83.584 178.838C82.3649 177.653 82.1812 180.124 78.0229 179.172C77.2768 178.904 76.6166 178.44 76.1113 177.829C75.606 177.218 75.2742 176.482 75.1505 175.699C74.9167 172.76 74.6996 173.11 74.4324 172.593C73.9815 171.758 73.2133 174.647 68.4872 172.96C65.4812 171.908 65.9822 169.453 65.6482 167.683C65.4311 166.531 63.1599 167.516 62.3082 168.468C61.8666 169.089 61.2971 169.607 60.6379 169.989C59.9788 170.371 59.2454 170.607 58.4872 170.682C57.7291 170.756 56.9638 170.667 56.243 170.421C55.5222 170.174 54.8627 169.776 54.3089 169.253C51.4532 166.614 53.9582 163.892 51.8206 162.673C48.7812 161.003 48.5641 158.815 48.7144 155.108C48.8981 151.083 50.3844 150.549 51.6536 149.714C52.6705 149.581 53.7045 149.702 54.6632 150.067C55.6219 150.431 56.4755 151.027 57.1479 151.801C58.4672 153.321 55.0771 147.877 59.703 145.572C62.9094 143.902 64.1619 144.386 65.4311 144.871C68.0196 145.856 67.9862 147.442 69.5393 151.551C70.6582 154.507 67.5019 154.79 71.2093 157.028C71.6435 157.279 73.9314 157.746 75.6181 158.281C79.5927 159.533 75.4344 165.846 79.1084 165.629C80.3641 165.6 81.598 165.96 82.6412 166.66C83.6845 167.359 84.4862 168.364 84.9367 169.537C86.6067 174.981 88.5272 175.782 88.1598 174.864C87.9185 173.574 87.9929 172.244 88.3769 170.989C89.6795 168.317 86.4731 165.462 84.0516 164.309C81.6301 163.157 82.2647 159.684 83.8846 158.398C84.0182 158.297 84.0516 158.03 84.085 157.83C84.1184 157.629 84.085 157.596 83.9681 157.479C83.5005 155.408 82.6655 156.544 77.9227 154.623C77.2889 154.372 76.7154 153.99 76.2396 153.502C75.7638 153.013 75.3964 152.43 75.1615 151.79C74.9266 151.15 74.8295 150.468 74.8765 149.788C74.9236 149.107 75.1136 148.445 75.4344 147.843C76.6201 145.672 77.3549 145.455 76.7871 145.155C74.1485 143.718 76.0189 140.312 73.6976 141.096C70.6081 142.132 66.0657 140.562 65.5814 137.756C65.4478 136.938 64.5961 136.22 63.7778 136.888C62.9595 137.556 62.709 139.092 60.8052 139.209C60.2207 139.209 58.4171 140.879 56.697 139.644C49.4826 134.333 57.7992 127.954 55.862 127.235C52.7725 126.15 53.9248 132.245 49.7498 131.945C42.6189 131.461 47.7959 126.4 42.8861 128.354C39.5461 129.724 35.989 125.332 34.3858 121.975C33.8558 120.993 33.58 119.895 33.5837 118.779C33.5873 117.664 33.8702 116.567 34.4065 115.589C34.9429 114.611 35.7156 113.783 36.6542 113.18C37.5928 112.577 38.6673 112.219 39.7799 112.139C40.2642 112.139 40.7485 112.272 40.4312 111.788C35.5715 104.073 40.5648 103.805 44.673 101.902C46.6937 100.95 46.844 99.981 46.343 97.7432C46.315 97.6201 46.2577 97.5055 46.176 97.4092C45.2241 95.8394 45.1907 98.2943 42.1346 98.6116C39.5962 98.8955 39.5461 97.8434 38.4773 96.3237C35.7552 98.645 37.7258 100.098 35.1373 103.638C34.5194 104.523 33.8347 108.181 28.1066 106.127C27.2547 105.746 26.5757 105.061 26.2028 104.206C22.8628 98.0104 26.3364 96.5074 25.3678 94.6036C24.967 93.8187 24.4326 92.0485 24.0151 91.3972C23.3213 90.2204 22.975 88.8712 23.0164 87.5057C23.0578 86.1403 23.4851 84.8145 24.2489 83.6818C25.134 82.7299 28.6577 79.8575 29.4593 79.2229C31.1293 77.9036 32.3818 78.2042 36.9242 77.9537C37.4753 77.9537 37.7592 78.1541 37.5755 75.9163C37.3918 73.6785 39.5628 74.1461 38.5441 73.5449C33.8347 70.7393 34.4359 67.1154 36.8741 62.2724C37.3417 61.3539 37.7926 60.9364 39.8801 61.2537C41.4332 61.5042 41.834 60.8863 44.3056 59.5837C44.6563 59.4 44.6062 59.2497 44.1887 58.5149C42.669 55.726 44.0384 51.8349 45.5414 51.217C47.9796 50.0981 51.186 49.0627 53.4405 50.0981C58.6342 52.5363 58.9682 53.0039 59.7364 54.5403C60.1873 55.4755 60.1038 54.2564 62.4585 54.1562C65.9655 54.0226 67.6689 62.3726 63.21 66.6478C61.8573 67.9504 61.0056 67.5663 60.8553 69.1027C60.5881 71.9751 62.2247 72.7433 61.206 75.7827C60.8887 76.7012 61.3563 77.4527 59.8032 78.5048C54.7932 81.7112 55.6115 83.3144 55.6616 86.0866C55.6616 86.3872 55.6616 86.6878 56.1125 86.7212C56.5634 86.7546 57.031 86.7212 57.0811 86.2703C57.365 84.3498 60.5714 82.7299 62.0911 82.7967C62.8259 82.7967 61.0891 78.9557 63.7611 76.6845C66.9174 73.9791 67.9695 73.1942 72.7958 74.3966C78.2734 75.766 76.6034 80.943 76.7704 83.9156C76.7704 85.0512 77.6889 85.1013 78.7243 85.1013C79.7597 85.1013 79.7597 85.4019 82.3315 86.4874C85.8552 87.957 86.3729 90.8795 85.3709 92.7165C83.7009 95.7058 82.0309 101.501 77.6889 102.135C76.6034 102.302 77.1211 102.603 76.5867 104.607C76.0788 105.9 75.2651 107.052 74.2152 107.962C73.1652 108.872 71.9104 109.515 70.558 109.834C67.552 110.118 67.5353 109.45 67.3349 110.686C67.2717 111.935 67.0414 113.171 66.6502 114.36C66.0991 115.796 65.1138 116.03 65.9989 117.516C67.2848 119.553 69.3389 114.877 72.7958 115.378C78.7243 116.264 77.5052 122.175 78.0563 122.793C78.6074 123.411 80.2774 122.326 81.3963 124.062C81.9975 124.981 83.4671 125.732 82.6488 128.438C81.6802 131.611 80.6448 132.262 81.5967 134.851C82.4317 137.105 88.9614 135.819 89.9467 143.201C89.9432 143.687 89.9767 144.172 90.0469 144.654C90.8819 143.919 90.9821 141.581 96.5599 142.566C96.6935 140.779 96.8939 139.226 97.0275 138.291C97.5285 134.951 103.707 134.951 101.82 131.243C100.401 128.538 92.2513 126.05 99.616 112.122C100.05 111.32 98.4804 110.452 97.4784 106.845C95.9754 101.317 100.601 101.484 97.6287 96.8247C95.9257 95.0293 94.9703 92.6527 94.9567 90.1781C94.6758 88.3999 94.7495 86.5837 95.1738 84.8341C95.5245 83.4146 98.7476 83.1641 99.5325 83.1641C99.9834 83.1641 100.167 83.1641 100.284 81.2102C100.568 76.6678 93.7042 71.758 99.6327 64.3933C100.835 62.907 103.056 62.7233 104.927 62.4728C106.797 62.2223 107.849 63.4581 109.285 64.7607C109.97 63.6084 110.471 62.4728 111.607 62.0052C113.126 61.3873 113.761 60.1682 116.617 60.2183C120.19 60.2183 119.405 66.6144 119.673 66.8983C121.576 69.4033 125.2 63.6585 128.774 66.8983C131.463 69.2864 132.348 69.5369 132.665 72.5763C133.033 76.0332 130.845 77.7032 131.73 79.3899C132.565 81.5691 132.624 83.9693 131.897 86.1868C131.296 87.5896 130.912 88.2075 126.136 91.0632C122.796 93.1173 118.136 91.0632 117.652 92.7332C117.168 94.4032 118.403 94.6704 117.869 97.476C117.418 99.8975 115.681 99.3965 115.464 101.651C115.364 102.753 117.535 103.221 119.021 103.037C121.593 102.703 122.963 102.302 124.031 104.073C130.194 114.543 112.842 115.529 115.581 118.551C116.867 119.954 119.188 121.891 119.205 125.231C119.305 126.369 119.156 127.514 118.771 128.588C116.316 133.364 115.581 133.932 113.878 134.934C112.513 135.79 111.077 136.528 109.586 137.139C108.648 137.406 107.799 137.924 107.132 138.635C106.464 139.347 106.002 140.226 105.795 141.18C105.411 144.036 106.496 144.67 105.227 145.789C104.561 146.698 103.774 147.513 102.889 148.211C100.985 149.647 100.468 151.684 99.115 152.252C95.1738 153.922 101.119 155.592 98.6307 158.565C96.1424 161.537 94.3388 161.905 94.0215 162.94C93.5539 164.46 93.1531 165.211 94.2219 166.28C95.3546 167.447 96.0303 168.982 96.1257 170.605C97.0609 173.144 92.7857 175.064 94.8398 177.703C96.1257 179.373 95.441 181.043 96.5098 180.258C97.5786 179.473 97.4283 179.139 98.0629 177.753C99.9667 173.645 98.0629 174.563 101.403 167.733C102.405 165.696 105.16 164.827 104.743 162.055C104.192 158.214 104.559 154.757 108.183 153.705C109.669 153.221 110.671 152.753 111.924 153.705C113.176 154.657 112.642 153.488 113.811 151.083C115.481 147.743 117.719 143.852 121.543 143.034C123.213 142.65 123.497 140.679 125.434 139.527C130.761 136.37 125.918 140.712 136.222 132.212C145.324 124.714 151.536 123.862 155.16 122.192C155.862 121.891 155.444 121.424 156.246 120.071C158.2 116.731 156.847 116.347 159.97 112.573C163.31 108.531 164.111 108.498 168.32 107.229C169.238 106.962 169.188 107.58 169.255 106.06C169.439 102.169 165.648 103.388 162.308 93.2175C161.474 90.3045 161.107 87.2775 161.222 84.2496C161.456 83.2142 160.838 83.615 159.051 81.0432C157.328 78.4527 156.593 75.3293 156.98 72.2423C157.481 70.2383 158.283 69.9878 160.137 68.9023C156.797 59.0994 158.333 59.4501 156.98 59.5336C153.874 59.7173 154.542 56.9117 153.206 57.7467C149.866 59.8509 145.691 57.3459 146.526 52.5196C146.86 50.5991 148.43 50.9331 147.829 50.3152C145.123 47.5597 147.996 45.7895 146.643 45.3052C141.633 43.3847 142.502 34.9011 147.161 34.016C148.664 33.7321 146.192 31.2772 149.131 27.8203C151.152 25.4155 153.991 25.9165 156.229 26.6179C156.363 24.0127 156.93 21.9419 159.385 20.7562C161.439 19.7542 162.725 21.1904 162.592 20.155C161.99 11.4042 171.66 7.59663 176.135 13.3581C176.904 14.3267 176.453 10.5024 181.847 9.01614C186.606 7.69684 187.558 12.6567 188.326 12.1223C189.019 11.6958 189.834 11.5135 190.642 11.6043C191.45 11.6951 192.205 12.0538 192.785 12.6233C193.904 13.9092 193.971 14.477 194.355 13.976C199.098 7.86383 207.064 9.48373 207.298 16.5979C207.298 16.8651 207.298 17.7669 207.715 17.4162C211.172 14.8277 215.931 19.7375 213.794 25.7662C213.51 26.6346 212.508 27.4362 213.677 27.4362C215.47 27.4251 217.207 28.0552 218.576 29.2128C219.945 30.3704 220.855 31.9792 221.142 33.7488C221.96 37.857 219.939 38.8924 220.975 39.2932C240.08 46.6245 257.965 48.3947 275.166 52.8202C286.405 55.7093 289.478 57.4795 291.048 58.5817C292.15 59.5682 293.577 60.1151 295.056 60.1181C302.254 60.8195 307.832 62.3058 308.917 69.5202C309.802 75.3986 308.099 75.7827 309.067 77.2356ZM307.047 71.8081C307.247 64.5937 301.602 62.8903 294.555 62.3559C290.333 61.9378 286.072 62.5593 282.146 64.1662C278.219 65.773 274.745 68.3163 272.027 71.5743C266.299 78.8221 267.952 75.0813 262.391 82.5963C261.272 84.1327 261.99 85.3518 263.076 87.7232C264.161 90.0946 269.488 86.9216 270.941 87.0218C271.075 87.0262 271.205 87.0624 271.321 87.1274C271.438 87.1924 271.537 87.2844 271.61 87.3956C271.684 87.5067 271.73 87.6339 271.744 87.7665C271.758 87.899 271.741 88.0331 271.693 88.1574C271.426 88.8755 270.925 88.9256 270.457 89.0592C266.349 90.2783 264.629 90.8461 262.942 90.295C261.255 89.7439 259.151 95.4052 250.45 99.2629C232.08 107.396 239.946 105.375 228.824 110.953C225.951 112.389 225.935 111.755 219.572 111.588C218.503 111.588 219.572 112.523 219.789 113.642C220.006 114.761 220.073 115.579 220.29 116.531C220.408 117.256 220.356 117.999 220.14 118.702C219.188 123.06 215.881 126.083 211.79 129.607C209.352 131.761 210.604 133.114 207.765 136.604C207.064 137.456 206.229 138.274 205.561 139.059C203.039 142.399 200.835 133.531 200.3 132.88C198.146 130.308 197.528 128.204 195.29 125.732C194.171 124.513 193.62 125.833 192.234 126.484C190.046 127.586 189.93 133.548 188.376 133.164C186.823 132.78 189.028 126.484 190.648 125.198C196.827 120.338 197.578 126.066 201.169 130.575C202.011 131.47 202.629 132.552 202.972 133.732C203.156 134.617 204.175 137.69 204.776 137.072C206.421 135.608 207.628 133.718 208.266 131.611C209.936 125.732 221.058 122.944 217.618 113.625C216.466 110.502 215.481 110.285 214.729 107.529C214.545 106.769 214.189 106.06 213.69 105.457C213.19 104.854 212.56 104.374 211.846 104.051C211.133 103.729 210.355 103.574 209.573 103.598C208.79 103.622 208.023 103.824 207.331 104.189C208.266 105.208 209.118 105.859 208.099 107.529C205.878 111.27 205.06 112.038 200.016 116.982C195.708 121.19 195.257 118.652 190.514 122.643C185.771 126.634 184.051 144.871 183.984 151.033C184.111 154.537 184.423 158.033 184.92 161.504C185.053 163.491 185.07 167.482 185.203 169.286C186.089 181.327 185.821 176.601 185.12 187.89C184.502 197.659 187.625 198.494 187.725 205.909C187.725 210.619 186.673 213.875 187.358 227.82C187.358 228.688 187.592 228.387 189.128 228.504C204.509 229.64 209.485 228.504 209.535 230.642C209.535 235.201 212.625 231.393 187.541 249.262C186.139 250.264 185.237 249.897 185.554 262.789C185.554 264.459 186.005 270.588 186.089 271.273C186.539 275.047 185.37 277.953 186.523 281.56C192.034 299.296 188.644 292.231 192.485 305.074C192.785 306.042 193.186 305.875 195.006 305.892C197.561 305.892 196.576 305.892 200.133 305.09C212.608 302.502 206.596 303.42 215.163 304.205C235.688 305.875 232.849 301.149 241.716 299.646C249.899 298.277 248.263 299.212 256.128 294.018C256.73 293.617 257.047 294.152 255.394 288.207C250.935 272.308 251.135 277.886 249.382 265.695C247.494 252.536 245.507 258.781 243.704 231.627C243.319 225.966 245.624 221.089 247.795 205.876C249.491 192.131 250.322 178.292 250.283 164.443C246.309 167.616 228.724 144.169 227.371 129.891C227.344 129.762 227.355 129.628 227.401 129.504C227.447 129.381 227.527 129.273 227.631 129.193C227.736 129.112 227.861 129.063 227.992 129.051C228.123 129.039 228.255 129.063 228.373 129.123C229.843 129.791 231.98 149.163 247.979 162.172C250.885 164.527 253.273 156.828 261.072 148.328C269.271 139.393 274.098 130.125 278.373 125.682C287.574 116.097 304.959 102.853 306.278 90.8962C307.214 82.4126 282.731 87.4226 276.603 86.9216C275.734 86.9216 275.166 85.8528 276.603 85.6357C284.051 84.4834 300.233 81.8615 306.162 85.8194C307.564 86.7713 312.24 79.2396 303.105 75.7994C292.15 71.6077 277.554 80.8094 272.377 83.6818C271.659 84.0659 271.442 83.6818 271.359 83.448C271.308 83.2699 271.306 83.0813 271.353 82.9022C271.4 82.723 271.494 82.5597 271.626 82.4293C274.599 79.3565 281.646 76.434 284.101 75.4654C294.121 71.5242 297.461 71.9584 302.688 73.2777C307.915 74.597 306.913 76.6344 307.047 71.8081ZM288.994 60.2851C291.132 59.9511 282.631 56.9451 280.644 56.1936C266.616 51.5844 249.114 50.2818 228.59 43.5183C213.677 38.6252 219.121 39.1596 215.931 42.6499C213.009 45.8563 211.656 43.0507 210.12 48.6118C209.836 49.6472 208.099 48.3947 233.183 63.1241C250.016 72.9938 245.09 71.9584 260.687 80.3752C261.756 80.9597 262.007 78.8388 264.963 76.4507C272.06 70.6224 272.077 63.0072 288.994 60.2851ZM260.42 89.5101C261.339 88.6584 261.439 89.2262 260.838 87.7399C260.108 86.243 259.879 84.5506 260.186 82.9136C260.404 81.9617 259.051 82.613 248.597 75.5656C246.927 74.4133 215.798 53.4381 216.199 55.5256C216.374 58.0746 216.256 60.6353 215.848 63.1575C215.447 65.8462 215.063 66.1802 215.848 66.3138C222.528 67.4828 220.524 77.3859 219.188 81.7613C219.019 82.7198 218.604 83.6178 217.983 84.3674C217.363 85.1169 216.558 85.6921 215.648 86.0365C214.55 86.3055 213.405 86.3055 212.308 86.0365C211.673 86.0365 211.406 86.6043 211.339 87.1387C209.769 98.8287 204.96 102.653 208.784 101.985C209.681 101.796 210.609 101.804 211.503 102.009C212.397 102.213 213.235 102.61 213.961 103.171C216.299 104.724 217.017 109.684 218.436 109.65C222.662 109.55 225.801 110.135 227.388 109.4C235.086 105.859 236.422 103.705 240.414 101.618C251.836 95.6223 249.331 99.8975 260.42 89.5101ZM218.67 38.4081C220.34 39.4268 220.992 27.6366 212.207 29.2732C206.897 30.2585 212.942 26.4008 212.658 22.827C212.716 21.981 212.55 21.1346 212.178 20.3726C211.806 19.6106 211.24 18.9597 210.537 18.485C208.283 17.1991 206.529 22.0254 205.628 20.155C205.026 18.8691 206.964 15.9132 204.058 13.0408C202.087 11.1036 200.117 11.7549 197.728 13.1744C194.555 15.0448 195.557 17.0154 194.188 17.0321C192.819 17.0488 192.05 10.6527 188.393 14.3434C186.924 15.8297 187.374 13.2245 185.421 11.3875C183.467 9.55054 182.348 10.3187 180.177 11.3875C178.006 12.4563 177.906 14.4436 177.02 16.1637C176.586 16.9653 175.952 16.481 175.601 15.5625C172.845 8.43163 161.94 13.7422 164.412 21.1904C165.431 24.3133 162.157 21.5244 160.387 22.0922C159.357 22.5582 158.544 23.401 158.115 24.4476C157.687 25.4942 157.675 26.6652 158.083 27.7201C158.367 28.5718 158.701 29.3901 157.832 29.6406C156.964 29.8911 156.78 29.3734 156.396 28.9726C152.655 25.1984 147.311 29.7408 149.716 34.4335C150.083 35.1516 149.716 35.7194 148.848 35.6192C148.356 35.4266 147.814 35.399 147.305 35.5406C146.796 35.6821 146.347 35.9852 146.025 36.4041C143.153 39.6105 145.424 44.0861 148.213 43.9024C148.764 43.9024 149.098 43.9024 149.399 44.5537C149.699 45.205 149.131 45.4722 148.898 45.7227C148.62 45.9794 148.412 46.3028 148.294 46.6622C148.177 47.0215 148.153 47.4051 148.224 47.7764C148.296 48.1477 148.462 48.4945 148.705 48.7839C148.949 49.0733 149.262 49.2957 149.616 49.4301C150.952 50.0647 151.286 50.1482 149.298 51.4174C146.376 53.2377 149.015 57.8469 151.703 56.6111C153.457 55.7928 153.54 54.6906 154.075 54.2397C154.16 54.1502 154.268 54.0866 154.388 54.0564C154.507 54.0262 154.633 54.0306 154.75 54.0691C154.868 54.1076 154.972 54.1786 155.05 54.2738C155.128 54.3691 155.178 54.4847 155.194 54.6071C155.194 54.6071 154.943 59.9344 158.534 56.9618C163.544 52.7534 158.65 48.3947 160.204 47.3426C161.206 46.6579 162.208 49.2297 163.944 49.5804C164.838 49.7659 165.769 49.621 166.564 49.1727C167.36 48.7244 167.966 48.003 168.27 47.1422C168.604 46.1903 168.888 45.6893 169.639 46.374C172.294 48.8289 172.745 45.2551 173.998 46.1068C174.515 46.4575 174.348 47.1255 173.998 47.6432C173.827 48.0175 173.735 48.4228 173.727 48.8341C173.72 49.2454 173.796 49.6539 173.953 50.0343C174.11 50.4147 174.343 50.7589 174.637 51.0457C174.932 51.3324 175.283 51.5556 175.668 51.7013C180.077 53.054 178.356 48.6786 179.559 48.3613C180.31 48.1943 180.327 49.6639 181.229 49.8977C181.644 50.0562 182.095 50.0972 182.533 50.0163C182.97 49.9353 183.376 49.7355 183.708 49.4388C184.039 49.1421 184.282 48.76 184.41 48.3342C184.539 47.9085 184.547 47.4557 184.435 47.0253C184.302 46.0066 185.487 46.2905 186.105 46.9251C186.677 47.5221 187.439 47.8993 188.26 47.9908C189.082 48.0824 189.909 47.8825 190.598 47.4261C192.167 46.1903 191.65 48.2945 192.585 48.6953C194.789 49.6138 195.524 48.4782 197.311 48.6953C199.098 48.9124 201.035 51.3673 203.874 48.1442C204.292 47.6933 202.204 46.6913 201.503 46.6579C198.389 46.6083 195.289 46.2389 192.251 45.5557C187.825 44.4702 179.509 38.5918 178.891 38.7421C177.039 39.4537 175.079 39.8435 173.096 39.8944C169.756 39.7775 171.61 39.8944 168.086 42.8336C167.568 43.4365 166.911 43.9038 166.172 44.1948C165.433 44.4859 164.634 44.5919 163.844 44.5036C161.356 44.3199 161.089 42.8336 161.673 41.8984C163.577 39.026 164.095 39.3433 165.113 37.4228C167.418 33.0307 172.545 33.3313 174.482 31.6613C173.914 31.1603 173.864 30.9432 173.096 30.9599C170.741 30.9599 170.04 30.9599 169.389 31.7615C168.371 33.3167 166.928 34.5459 165.23 35.3019C163.393 35.9532 160.604 34.6005 162.041 32.68C162.952 31.8067 163.634 30.7228 164.028 29.5237C164.746 27.4863 168.002 25.0982 169.923 24.0962C170.541 23.7455 171.393 23.7288 171.459 22.9606C171.526 22.1924 172.395 21.7749 172.795 21.491C175.016 19.821 176.269 21.491 176.92 20.489C177.669 19.7071 178.606 19.1318 179.642 18.819C180.176 18.6068 180.748 18.5062 181.323 18.5234C181.897 18.5407 182.462 18.6754 182.982 18.9192C184.185 19.3868 186.322 20.3554 190.714 22.0755C199.465 25.4155 208.3 34.0327 209.552 33.2979C210.352 32.8765 211.243 32.659 212.147 32.6645C213.051 32.67 213.939 32.8984 214.734 33.3295C215.528 33.7606 216.204 34.381 216.701 35.1359C217.199 35.8907 217.502 36.7565 217.585 37.6566C217.668 38.3079 218.102 38.0741 218.67 38.4081ZM216.366 83.3979C218.353 81.2436 219.021 77.3358 218.837 74.3131C218.837 73.1274 219.071 70.2049 216.867 68.418C216.213 68.0268 215.455 67.8473 214.695 67.9041C213.936 67.9609 213.213 68.2513 212.625 68.7353C211.913 69.419 211.351 70.2419 210.971 71.1527C210.592 72.0635 210.405 73.0427 210.42 74.0292C210.42 74.764 209.452 75.5155 209.151 74.764C208.851 74.0125 208.968 73.6785 209.285 71.424C209.402 70.6057 209.001 71.1234 206.93 71.8415C202.889 73.261 208.4 80.8762 196.242 82.7466C193.59 82.9847 190.917 82.793 188.326 82.1788C182.197 80.6591 183.834 72.9103 181.479 72.2924C179.809 71.8248 177.956 72.8435 178.24 73.8622C178.651 74.8325 178.788 75.8972 178.634 76.9399C178.481 77.9826 178.044 78.9631 177.371 79.774C175.35 81.8281 173.814 83.3812 175.35 85.6691C175.837 86.3494 176.5 86.8834 177.269 87.2132C178.037 87.5429 178.881 87.6558 179.709 87.5395C183.166 87.5395 183.216 84.7506 184.719 86.0365C186.222 87.3224 188.794 86.5709 187.725 84.5168C187.308 83.7152 186.873 83.5482 187.308 82.9804C188.293 81.5609 191.215 85.3518 188.894 87.5228C187.074 89.1928 185.32 88.3244 183.884 87.7566C179.926 91.4807 172.344 89.0258 172.979 83.6484C173.096 82.6464 169.171 85.7693 163.844 84.45C162.942 84.2329 162.859 84.2997 162.859 85.1848C163.13 89.2206 164.108 93.1773 165.748 96.8748C167.835 100.916 172.428 104.557 173.647 106.628C174.181 107.613 174.682 106.143 176.519 107.028C176.87 107.195 177.221 107.463 177.405 107.212C177.588 106.962 177.805 106.344 178.774 106.01C179.194 105.865 179.644 105.832 180.08 105.914C180.516 105.996 180.924 106.19 181.262 106.477C181.63 106.728 181.78 106.594 182.248 106.093C182.545 105.702 182.942 105.397 183.398 105.212C183.853 105.027 184.35 104.968 184.836 105.041C185.704 105.191 186.105 105.993 186.506 106.561C186.64 106.795 186.69 107.229 187.107 106.561C187.396 106.021 187.815 105.562 188.326 105.225C188.616 105.085 188.93 105.004 189.251 104.987C189.573 104.969 189.894 105.016 190.197 105.125C191.382 105.609 191.316 106.795 191.533 107.346C191.533 107.529 191.934 107.162 192.685 107.346C195.107 107.93 192.685 109.6 199.014 106.06C212.608 98.3945 207.147 82.2122 211.873 84.1327C212.6 84.5159 213.432 84.6514 214.243 84.5188C215.054 84.3862 215.799 83.9926 216.366 83.3979ZM214.078 64.577C214.721 61.3152 214.828 57.9703 214.395 54.6739C214.211 53.5717 213.777 53.2544 212.992 53.6218C212.78 53.7412 212.531 53.7748 212.295 53.7158C212.058 53.6568 211.854 53.5096 211.723 53.3045C211.489 52.8536 211.723 52.6866 211.539 52.3192C211.356 51.9518 210.504 51.5844 210.27 51.6178C209.752 51.7013 207.999 53.2878 204.943 50.4822C203.891 49.547 204.041 51.551 200.601 51.5176C198.797 51.5176 197.578 49.9645 196.225 50.549C195.329 50.8173 194.384 50.8861 193.458 50.7505C192.532 50.6149 191.647 50.2782 190.865 49.7641C189.963 49.2464 188.911 50.6158 186.59 49.2798C185.721 48.7955 186.105 49.2798 185.521 50.0146C184.997 50.6844 184.293 51.1899 183.49 51.4711C182.688 51.7523 181.822 51.7974 180.995 51.6011C180.36 51.4842 180.394 51.4842 180.01 52.0353C177.672 55.4922 171.877 53.0039 172.311 49.1629C172.411 48.2444 171.676 49.4468 170.023 48.5951C169.572 48.3613 169.405 48.4782 169.188 48.8623C168.638 49.7905 167.803 50.5162 166.807 50.9315C165.811 51.3467 164.707 51.4293 163.66 51.1669C160.32 50.2651 165.03 51.7013 159.986 57.9972C159.819 58.1976 159.135 58.1308 159.419 59.3499C162.074 70.5723 161.089 67.9671 165.932 67.1989C177.622 65.3452 176.436 71.6244 177.622 70.8562C180.795 68.7353 182.314 71.1067 182.849 69.6371C185.287 62.9571 203.106 63.074 204.776 68.9524C204.96 69.6371 204.776 69.3031 209.201 68.5015C211.473 68.084 211.005 67.7166 212.057 67.0319C212.508 66.7313 212.508 66.7313 212.157 66.2971C211.955 66.0858 211.842 65.8046 211.842 65.5122C211.842 65.2198 211.955 64.9387 212.157 64.7273C213.243 63.8088 213.76 66.0132 214.078 64.577ZM212.976 42.6833C216.633 41.2137 217.267 35.7027 213.51 34.4836C212.771 34.2956 212 34.2786 211.253 34.4339C210.507 34.5892 209.806 34.9126 209.204 35.3796C208.602 35.8466 208.114 36.4449 207.778 37.1289C207.442 37.8128 207.266 38.5645 207.264 39.3266C207.164 37.9739 206.98 45.0881 212.976 42.6833ZM209.803 45.2217C210.22 44.4535 208.667 44.8209 207.448 43.5517C206.847 42.8837 204.559 48.3112 205.778 49.2965C209.051 51.7681 207.331 49.7808 209.803 45.2217ZM208.233 232.829C208.241 232.223 208.18 231.618 208.049 231.026C208.049 230.892 207.515 231.126 207.147 231.377C205.795 232.278 201.586 235.001 191.382 242.182C171.777 256.026 173.797 252.853 174.549 255.825C174.549 256.093 206.028 234.516 207.381 233.631C207.748 233.397 208.216 233.113 208.233 232.829ZM207.531 34.8677C208.032 34.2999 208.617 34.9679 196.71 26.6513C194.585 25.2201 192.268 24.0957 189.829 23.3113C185.871 21.8083 184.652 20.6059 182.147 19.9713C181.415 19.8147 180.656 19.8443 179.938 20.0572C179.22 20.2702 178.567 20.6598 178.039 21.1904C181.162 22.7602 182.698 22.5264 183.984 23.4449C184.869 24.0628 184.218 24.8978 183.316 24.5638C181.246 23.7789 179.976 23.5451 178.206 22.8938C177.369 22.5097 176.48 22.2508 175.568 22.1256C174.956 21.9968 174.318 22.0854 173.764 22.3761C173.029 22.7769 172.478 23.328 172.912 23.4449C174.497 23.8922 176.048 24.4503 177.555 25.1149C182.164 27.0688 180.127 27.837 178.473 27.1857C172.979 25.0314 173.012 24.7976 172.211 25.0147C171.251 25.1558 170.331 25.4911 169.505 26C163.961 30.2585 167.034 28.171 163.36 33.1977C162.892 33.8323 164.395 34.183 165.264 33.5484C169.689 30.3587 168.086 29.3066 171.944 29.3066C176.085 28.9893 176.837 31.4943 175.467 32.7468C173.096 34.9178 172.027 33.348 168.253 35.8864C165.948 37.4228 166.967 37.7234 164.312 40.4956C163.856 41.0019 163.427 41.5315 163.026 42.0821C162.709 42.5163 162.692 43.0006 163.694 43.1342C166.115 43.4515 167.034 42.0153 169.255 39.4268C170.925 37.5731 172.695 38.859 176.219 37.7568C179.743 36.6546 178.707 36.8049 187.909 41.9819C192.802 44.7207 195.274 44.4702 201.369 45.0213C204.141 45.2718 203.958 46.4575 204.392 45.539C205.861 42.4328 206.312 42.0988 205.861 41.2137C205.57 40.1017 205.571 38.9333 205.863 37.8215C206.156 36.7098 206.73 35.6924 207.531 34.8677ZM196.092 117.566C198.163 116.414 205.978 108.782 205.494 107.797C205.187 106.773 205.129 105.691 205.327 104.64C205.327 103.187 205.828 102.97 203.757 104.874C199.398 108.899 194.455 109.417 194.522 110.936C194.522 111.237 194.305 113.475 192.368 113.725C192.164 113.714 191.964 113.777 191.804 113.903C191.644 114.029 191.536 114.209 191.499 114.41C191.355 115.03 190.983 115.573 190.458 115.932C189.932 116.291 189.29 116.439 188.66 116.347C186.99 116.046 186.99 115.328 186.289 116.013C185.945 116.382 185.521 116.668 185.05 116.85C184.579 117.032 184.073 117.105 183.57 117.063C183.067 117.021 182.58 116.866 182.146 116.609C181.711 116.352 181.341 116 181.062 115.579C180.477 114.761 180.093 116.364 178.189 116.163C174.849 116.046 176.018 112.823 175.016 112.823C174.302 112.747 173.647 112.392 173.194 111.836C172.74 111.279 172.525 110.565 172.595 109.851C172.678 108.982 173.029 108.481 172.812 107.98C172.371 107.108 171.737 106.349 170.958 105.759C170.958 106.093 170.658 114.443 170.658 114.794C170.658 119.103 168.42 118.785 176.837 120.004C182.03 120.739 181.596 123.578 180.36 128.588C178.69 135.469 179.926 135.619 183.183 138.892C183.918 139.627 183.767 134.517 184.569 131.861C186.59 125.332 185.855 122.342 193.47 118.501C194.088 118.184 195.474 117.934 196.092 117.566ZM202.772 77.1521C203.376 75.7907 203.653 74.3067 203.581 72.819C203.508 71.3313 203.088 69.8812 202.354 68.585C200.684 66.1635 194.205 66.0132 189.813 66.915C184.936 67.8669 181.88 69.8375 185.905 78.4213C187.708 82.279 200.801 82.446 202.738 77.1521H202.772ZM193.069 110.869C193.403 109.851 193.219 108.465 191.232 108.698C190.447 108.799 190.447 108.481 190.347 107.596C190.197 105.926 189.044 105.826 188.042 107.429C187.491 108.298 187.475 108.665 186.84 108.598C186.205 108.531 186.139 107.563 185.32 106.711C184.502 105.859 183.266 106.561 182.966 107.663C182.912 108.135 182.758 108.591 182.515 108.999C182.331 109.266 181.98 109.199 181.763 108.832C181.434 108.261 180.97 107.779 180.411 107.429C180.02 107.235 179.569 107.202 179.154 107.336C178.739 107.47 178.393 107.761 178.189 108.147C177.087 109.817 175.952 107.964 175.117 108.314C174.793 108.428 174.521 108.656 174.351 108.955C174.182 109.254 174.127 109.604 174.197 109.94C174.266 110.277 174.455 110.577 174.729 110.784C175.002 110.992 175.342 111.093 175.684 111.07C177.204 111.27 176.753 111.821 177.004 113.291C177.338 115.095 179.659 114.644 180.16 113.491C180.511 112.706 181.429 112.606 181.73 113.575C182.181 115.011 182.916 115.696 184.268 115.245C185.938 114.644 185.254 112.907 186.306 112.873C186.486 112.861 186.666 112.904 186.821 112.996C186.976 113.089 187.099 113.226 187.174 113.391C187.926 114.961 188.844 114.928 189.495 114.527C190.664 113.692 189.863 112.539 190.03 111.922C190.197 111.304 190.648 111.654 191.182 111.922C191.371 112.015 191.579 112.061 191.789 112.055C192 112.049 192.205 111.992 192.388 111.888C192.571 111.784 192.726 111.637 192.839 111.459C192.952 111.282 193.019 111.079 193.036 110.869H193.069ZM190.046 233.798C193.737 234.115 193.587 234.767 191.716 235.886C190.38 236.704 178.022 245.555 176.586 246.691C174.549 248.361 174.566 248.01 172.294 248.093C171.76 248.093 171.977 248.093 173.23 252.051C173.23 252.318 204.492 231.427 205.227 230.759C200.968 230.191 175.167 229.69 169.689 229.506C165.698 229.373 165.397 229.222 165.631 229.84C166.416 232.011 166.199 232.729 168.253 232.729C171.543 232.696 188.877 233.665 190.046 233.798ZM175.35 228.204C187.174 228.588 185.521 229.673 185.37 224.496C184.636 203.12 187.692 210.652 184.018 197.342C181.546 188.408 185.17 187.138 182.899 160.786C181.563 145.221 183.867 141.547 180.995 139.426C176.553 136.086 177.655 128.805 176.703 126.2C172.311 128.237 173.764 139.56 171.693 142.199C169.622 144.837 168.737 139.627 165.681 137.022C163.884 135.375 162.765 133.119 162.542 130.692C161.573 125.682 158.149 126.484 156.563 123.695C156.246 123.127 156.045 123.695 154.258 124.463C133.166 132.913 137.208 137.022 126.553 140.946C124.599 141.681 124.783 144.019 121.81 145.021C119.957 145.639 118.621 146.591 116.8 149.714C114.98 152.837 115.13 152.92 115.798 152.953C117.602 153.07 118.053 154.623 118.554 155.776C118.737 156.193 119.539 156.36 119.589 155.575C120.023 149.63 124.983 145.889 130.528 152.002C133.667 155.458 132.465 157.279 132.999 160.836C133.667 165.111 129.492 171.674 125.501 171.758C119.322 171.891 119.422 170.889 119.105 171.758C119.105 171.758 117.869 175.098 117.802 175.265C116.863 176.783 115.438 177.94 113.758 178.546C112.079 179.152 110.243 179.173 108.55 178.605C106.58 177.703 105.762 179.774 103.891 182.512C103.791 182.679 103.641 182.796 104.075 182.813C117.051 183.214 129.125 184.199 134.987 184.216C136.239 184.216 134.602 180.876 135.638 173.06C136.14 169.745 136.335 166.391 136.222 163.04C136.222 161.504 137.325 162.022 137.408 162.556C138.677 170.121 136.323 171.724 137.408 183.832C137.525 185.068 142.067 184.216 147.612 186.203C153.824 188.424 154.008 195.238 165.113 227.001C165.33 228.037 164.713 227.836 175.35 228.204ZM183.7 253.254C184.068 250.999 184.218 252.018 179.542 255.007C175.718 257.445 174.766 258.664 173.263 258.982C172.896 258.982 156.246 258.898 155.661 258.982C155.077 259.065 154.876 259.165 154.86 259.533C154.86 260.602 153.54 261.002 152.839 261.637C150.835 263.457 147.361 263.557 143.337 264.977C138.026 266.881 136.79 264.977 135.922 266.046C134.252 268.217 133.216 268.183 131.112 280.792C129.192 292.281 126.92 297.492 128.307 297.759C140.781 300.682 139.362 299.429 143.186 300.197C152.755 302.168 151.954 304.088 162.408 304.088C168.212 303.829 174.026 304.266 179.726 305.391C180.511 305.522 181.315 305.477 182.081 305.257C182.448 305.174 182.548 304.923 182.565 304.523C182.865 300.431 183.6 297.843 183.066 295.07C182.708 292.001 182.843 288.895 183.467 285.869C185.37 271.707 182.531 260.735 183.7 253.27V253.254ZM174.649 246.073C175.317 245.672 188.911 236.053 189.796 234.984C187.809 234.633 175.835 234.366 168.67 234.015C167 234.015 167 233.848 168.186 237.789C168.92 240.571 169.858 243.295 170.992 245.939C171.443 246.757 173.58 246.741 174.699 246.089L174.649 246.073ZM178.841 126.701C179.242 125.712 179.364 124.632 179.191 123.578C178.857 122.142 176.67 122.125 172.144 121.307C168.27 120.606 168.938 118.735 166.817 117.433C165.66 116.865 164.737 115.914 164.204 114.741C163.671 113.569 163.561 112.247 163.894 111.003C163.018 111.709 162.223 112.51 161.523 113.391C158.183 117.533 159.669 118.284 157.732 121.14C157.415 121.624 158.567 123.311 159.569 123.829C161.529 124.677 163.073 126.269 163.861 128.254C166.533 137.473 164.896 131.494 170.24 139.593C170.674 140.245 170.407 139.593 171.81 131.36C172.779 125.616 177.789 120.973 178.891 126.718L178.841 126.701ZM176.085 77.3692C177.572 68.3011 171.326 66.9651 162.625 69.6705C163.689 72.2433 163.962 75.0747 163.41 77.8034C163.21 79.1227 163.41 80.5088 163.026 81.8448C162.425 84.45 175.15 83.3478 176.135 77.3859L176.085 77.3692ZM171.727 256.694C172.662 256.694 172.662 256.827 171.092 252.352C146.042 180.926 157.097 188.174 128.941 185.886C119.005 185.084 74.5159 183.865 64.7631 185.702C59.1185 186.771 56.9642 188.675 59.9535 196.39C66.6335 213.407 71.9274 230.158 74.2153 236.17C75.2006 238.808 77.3883 243.885 77.7056 244.854C80.1605 252.168 80.7784 252.469 81.8305 252.602C84.92 253.003 97.278 254.089 97.3114 254.105C113.56 254.907 107.014 256.61 109.669 248.027C111.673 241.564 111.106 240.896 112.675 239.059C118.904 231.827 115.648 236.337 120.04 230.475C123.213 226.233 128.39 230.007 122.144 238.307C120.341 240.662 118.537 243 121.075 244.52C126.57 247.859 131.329 243.852 134.185 242.365C137.826 240.495 140.03 240.228 141.449 238.173C143.169 236.197 145.426 234.764 147.946 234.049C150.584 233.347 153.19 234.984 151.553 237.172C148.883 240.36 145.974 243.342 142.852 246.089C139.729 249.095 137.742 249.546 136.172 251.099C141.55 254.306 155.795 242.365 162.007 246.089C162.318 246.272 162.574 246.536 162.746 246.853C162.919 247.17 163.002 247.528 162.986 247.888C162.971 248.248 162.857 248.598 162.659 248.899C162.46 249.2 162.182 249.441 161.857 249.596C159.97 250.448 159.369 250.264 159.552 251.266C159.647 251.605 159.648 251.963 159.554 252.301C159.46 252.64 159.274 252.946 159.018 253.187C158.209 253.814 157.348 254.373 156.446 254.857C155.564 255.362 154.765 255.998 154.075 256.744L171.727 256.694ZM161.339 81.3438C162.341 79.273 162.041 69.9377 160.337 70.6391C155.928 72.4594 159.719 80.2416 161.389 81.3605L161.339 81.3438ZM159.001 248.828C160.671 248.194 161.59 247.793 160.454 246.991C159.781 246.723 159.05 246.636 158.333 246.741C154.492 247.125 147.912 251.166 143.537 252.602C136.339 254.957 133.216 251.968 133.968 250.431C135.27 247.793 139.345 247.442 143.57 242.516C145.675 240.044 147.528 239.276 149.733 236.403C150.968 234.733 145.608 236.286 142.852 239.476C139.83 242.95 137.675 242.131 133.083 245.037C125.768 249.646 120.107 246.791 118.637 244.503C117.168 242.215 118.47 240.461 120.023 238.457C124.85 232.245 123.363 229.289 121.961 230.809C111.373 242.499 113.393 241.163 112.191 246.189C110.989 251.216 110.287 252.335 110.738 255.124C111.289 258.614 107.899 263.975 115.915 267.398C122.595 270.271 123.48 264.559 129.075 263.691C134.285 262.856 137.625 265.478 147.328 262.155C148.825 261.745 150.297 261.249 151.737 260.668C153.407 259.85 153.941 258.915 152.872 258.998C147.094 259.182 149.632 260.668 142.435 261.938C140.314 262.322 140.13 262.188 140.097 261.787C140.063 261.386 140.097 261.136 140.414 261.019C141.345 260.721 142.293 260.481 143.253 260.301C150.401 258.998 151.737 255.775 156.029 253.521C157.047 253.003 157.932 252.719 158.2 251.968C158.333 251.6 158.2 251.383 157.782 251.383C156.112 251.383 141.399 260.835 140.264 258.564C139.946 257.946 140.264 257.779 141.783 257.128C149.031 253.838 150.534 252.068 159.001 248.828ZM133.6 265.779C134.402 264.893 128.173 265.127 127.204 266.096C125.367 267.966 122.194 270.154 119.973 270.271C116.821 270.389 113.709 269.538 111.055 267.833C109.878 267.043 108.762 266.167 107.715 265.211C105.277 262.305 104.275 261.22 104.375 259.666C104.676 255.592 106.196 257.245 96.6267 256.059C95.5245 255.926 96.0756 256.059 96.9273 259.549C97.3281 261.219 98.2967 262.021 100.568 264.843C102.455 267.181 103.707 266.881 106.864 270.171C110.454 273.778 123.246 277.535 133.6 265.779ZM130.027 165.579C131.88 162.539 131.079 161.754 130.928 157.229C130.795 153.404 124.248 147.726 121.91 152.803C120.357 156.143 122.027 157.379 119.723 157.813C117.418 158.247 117.151 157.312 116.232 155.308C115.832 154.39 114.896 154.79 113.527 155.308C110.855 156.344 111.306 154.189 109.152 154.974C103.808 156.895 107.014 162.072 106.146 163.975C104.659 167.315 104.158 166.28 103.123 167.917C101.563 170.138 100.66 172.754 100.518 175.465C99.9834 177.97 98.3802 182.145 95.8084 181.928C93.5372 181.728 94.6728 180.108 93.4704 178.588C92.866 177.66 92.5741 176.563 92.6372 175.458C92.7002 174.352 93.1151 173.295 93.8211 172.442C96.0255 170.121 92.1511 166.981 91.9173 165.462C91.7766 164.624 91.8267 163.766 92.0638 162.951C92.3008 162.135 92.7189 161.384 93.2867 160.752C94.7436 159.84 96.0553 158.714 97.1778 157.412C97.6955 156.845 97.4784 156.544 96.9273 155.959C96.5721 155.616 96.3034 155.193 96.1433 154.726C95.9832 154.259 95.9363 153.76 96.0064 153.271C96.0765 152.782 96.2616 152.317 96.5465 151.913C96.8314 151.509 97.208 151.179 97.6454 150.949C98.3881 150.556 99.0198 149.981 99.4824 149.279C101.369 146.591 100.384 148.461 103.824 144.62C104.609 143.735 103.557 144.203 104.108 140.629C105.077 134.333 112.041 135.97 114.863 131.611C117.134 128.121 117.619 127.252 117.418 125.582C117.412 124.551 117.172 123.536 116.718 122.61C116.264 121.685 115.607 120.874 114.796 120.238C112.943 118.685 113.327 116.03 114.796 115.495C115.815 115.128 117.602 113.825 118.921 113.157C121.109 112.139 123.547 110.652 123.547 108.348C123.547 106.945 122.796 104.256 121.159 104.473C120.291 104.574 118.671 104.791 117.819 104.791C115.815 104.791 113.527 103.638 113.811 101.618C114.379 97.6096 117.151 98.2776 116.266 95.6056C115.847 94.3946 115.8 93.0858 116.132 91.8481C116.217 91.4105 116.459 91.0192 116.813 90.7483C117.167 90.4775 117.608 90.3459 118.053 90.3785C120.471 90.7708 122.95 90.535 125.25 89.6938C128.791 88.0238 132.482 85.1681 130.01 79.8909C128.774 77.269 132.999 73.094 129.776 70.2049C123.347 64.4434 125 71.3906 119.038 68.752C117.268 67.9671 118.337 66.0299 117.652 63.4748C117.581 63.1608 117.432 62.8697 117.219 62.6283C117.006 62.3868 116.736 62.2028 116.434 62.093C116.131 61.9833 115.806 61.9514 115.487 62.0002C115.169 62.0491 114.868 62.1771 114.613 62.3726C113.628 62.8416 112.689 63.4006 111.807 64.0426C109.753 67.1655 110.605 66.9317 110.337 67.8836C110.348 67.9933 110.338 68.104 110.306 68.2095C110.274 68.315 110.222 68.4132 110.152 68.4985C110.082 68.5838 109.996 68.6545 109.899 68.7066C109.802 68.7587 109.696 68.7912 109.586 68.8021C109.476 68.8131 109.365 68.8024 109.26 68.7705C109.154 68.7387 109.056 68.6864 108.971 68.6166C108.886 68.5468 108.815 68.4609 108.763 68.3638C108.711 68.2667 108.678 68.1603 108.667 68.0506C107.081 63.8589 105.327 63.7754 102.438 64.7106C101.16 65.2657 100.112 66.2454 99.4733 67.484C98.8342 68.7226 98.6427 70.144 98.9313 71.5075C99.8832 77.3525 102.956 77.8535 101.353 84.1494C100.752 86.5208 96.5265 82.8969 96.3428 87.2389C95.9921 96.5241 102.238 96.2736 99.5826 101.918C96.7269 107.997 102.522 109.584 100.969 112.89C94.5225 126.584 100.451 125.699 103.173 130.375C103.44 130.959 103.582 131.593 103.591 132.235C103.6 132.877 103.476 133.514 103.227 134.106C102.977 134.697 102.608 135.231 102.141 135.672C101.675 136.114 101.122 136.454 100.518 136.671C96.2259 138.608 100.084 144.002 96.8605 144.236C95.5078 144.336 90.1805 141.13 90.5479 151.868C90.6314 153.839 89.7296 153.538 89.5292 153.204C88.826 151.047 88.4654 148.793 88.4604 146.524C88.4604 143.084 88.5773 142.549 86.7904 139.994C85.8886 138.725 84.92 138.324 82.1478 137.456C79.3756 136.587 79.0082 132.346 80.3776 130.024C80.7617 129.356 81.5633 127.085 81.1625 126.467C79.743 124.246 79.3756 124.597 78.1064 124.614C76.8372 124.63 76.4364 123.528 76.3195 121.942C76.2193 118.602 74.2153 116.932 71.9775 117.032C71.4932 117.032 71.1425 117.232 69.222 118.702C65.1305 121.908 63.4605 117.182 64.0784 115.846C65.2641 113.007 65.4979 113.091 65.5814 111.955C65.7651 109.149 66.0323 108.264 67.4351 108.214C68.8109 108.327 70.1954 108.168 71.5099 107.747C73.6809 106.394 75.5513 104.49 75.2507 101.935C74.9 98.9957 77.4217 101.935 80.0436 98.7285C81.6395 96.5273 82.9472 94.1309 83.9347 91.5976C85.2707 88.8922 79.2253 86.7212 77.6722 86.7546C73.0463 86.8715 76.5366 79.5402 74.4992 77.4694C72.4618 75.3986 68.8212 74.597 66.55 76.5843C65.9989 77.0686 64.1619 78.2543 63.9448 79.44C63.4605 81.8615 64.0283 81.6277 64.0951 83.8989C64.1279 84.0896 64.1018 84.2858 64.0203 84.4613C63.9388 84.6368 63.8057 84.7833 63.6388 84.8813C63.4719 84.9792 63.2791 85.024 63.0862 85.0096C62.8932 84.9952 62.7092 84.9223 62.5587 84.8007C62.306 84.603 61.9944 84.4956 61.6736 84.4956C61.3527 84.4956 61.0411 84.603 60.7885 84.8007C60.5547 84.9677 58.5173 85.5522 58.4338 87.3391C58.4338 88.2242 57.5153 88.3745 55.9956 88.3745C53.7745 88.3745 54.0584 86.4373 53.9248 83.3645C53.9248 81.0933 56.6469 78.3545 58.0664 77.6531C62.2581 75.3652 56.8807 67.9003 60.3877 66.4975C62.4251 65.6792 63.1766 63.9257 64.0784 61.8048C64.3623 61.1201 64.2454 60.4688 64.0784 58.3479C63.9114 56.227 62.4084 55.4421 61.5066 56.06C57.4652 58.8155 59.6529 55.5757 56.8306 53.8222C54.7097 52.4862 51.9542 50.9498 50.1506 51.5176C46.3096 52.7534 46.3597 52.6532 46.1092 53.0874C43.5708 57.4962 48.3136 59.4501 45.8086 60.8362C44.4146 61.7792 42.8741 62.4846 41.2495 62.9237C39.2956 63.1575 38.7779 62.3893 38.4105 63.3245C37.3584 65.9464 36.9409 64.4935 36.9576 69.1695C36.9576 70.6391 40.2976 72.3258 41.2495 73.1775C41.4025 73.2944 41.5199 73.4517 41.5885 73.6317C41.6571 73.8116 41.6741 74.0071 41.6377 74.1963C41.6013 74.3854 41.5128 74.5606 41.3823 74.7022C41.2517 74.8438 41.0843 74.9462 40.8988 74.9978C39.3958 75.3485 39.4459 76.0833 39.4459 76.9183C39.4459 78.0873 41.7505 77.4861 40.331 79.6738C39.8133 80.4587 39.4459 79.5569 36.8741 79.6738C32.5488 79.8408 31.8641 79.6738 30.3444 80.8929C26.1026 84.3665 25.3344 84.8508 25.0004 86.6878C24.8501 87.6731 24.5161 88.0405 25.0004 89.2763C26.9042 93.5181 27.9897 95.0879 26.804 97.4259C25.802 99.3965 26.9042 102.052 28.1233 103.906C28.5909 104.624 29.2088 104.824 30.979 105.108C32.7492 105.392 33.5508 103.304 34.4693 101.868C35.3878 100.432 35.1206 99.9476 35.7886 96.8581C35.9222 96.2736 35.9389 96.2068 38.0097 94.8207C38.2359 94.721 38.4814 94.6727 38.7286 94.6794C38.9757 94.6861 39.2183 94.7476 39.4388 94.8595C39.6593 94.9713 39.8522 95.1307 40.0036 95.3262C40.155 95.5216 40.2611 95.7483 40.3143 95.9897C40.9656 97.6597 42.5688 97.1086 44.3557 95.6056C45.4412 94.6871 47.6957 95.0545 48.1299 97.6263C49.2154 103.288 45.0738 103.388 41.2495 105.308C39.1119 106.394 40.4312 108.431 41.5668 110.318C42.5688 111.988 44.0551 111.053 43.5708 112.506C43.5107 112.746 43.3877 112.965 43.2145 113.141C43.0413 113.317 42.8241 113.444 42.5855 113.508C42.1165 113.659 41.6248 113.726 41.1326 113.708C40.399 113.633 39.6578 113.714 38.9574 113.944C38.257 114.175 37.6131 114.551 37.0678 115.047C36.5225 115.544 36.0881 116.15 35.7928 116.825C35.4976 117.501 35.3482 118.232 35.3544 118.969C35.3544 121.457 37.993 124.881 40.3644 126.367C42.2682 127.586 42.1513 126.016 45.5414 126.1C47.3617 126.1 47.011 127.887 47.1112 128.338C47.2273 128.701 47.4233 129.033 47.6847 129.311C47.9461 129.588 48.2662 129.804 48.6217 129.941C48.9772 130.079 49.359 130.136 49.7391 130.107C50.1193 130.078 50.4881 129.964 50.8186 129.774C52.0377 128.605 51.7538 128.354 52.2548 127.369C54.3089 123.511 59.8867 125.616 57.6823 128.872C57.2815 129.457 54.9101 133.615 55.5447 135.151C56.1793 136.688 57.9328 139.176 59.2354 138.007C60.538 136.838 61.0056 138.007 61.8907 136.42C62.1846 135.873 62.6319 135.423 63.1778 135.127C63.7237 134.83 64.3443 134.699 64.9635 134.75C65.715 134.75 66.0657 135.318 66.6335 135.669C67.2013 136.02 67.0009 137.339 67.6522 138.024C70.391 140.595 72.6622 139.276 75.0837 139.092C77.5052 138.909 75.7684 142.432 78.4237 143.969C78.648 144.117 78.8332 144.318 78.9634 144.553C79.0936 144.789 79.165 145.052 79.1716 145.321C79.1781 145.59 79.1196 145.856 79.0011 146.098C78.8825 146.339 78.7073 146.548 78.4905 146.708C77.3382 147.559 76.0857 149.831 77.0209 151.283C78.4905 153.555 82.6989 154.306 83.7009 154.34C85.0202 154.34 85.588 156.01 85.8552 157.379C86.2894 159.517 85.087 159.166 84.3522 161.003C84.2481 161.343 84.2624 161.708 84.3929 162.039C84.5233 162.369 84.7621 162.646 85.0703 162.823C86.448 163.56 87.695 164.52 88.761 165.662C92.5686 169.286 88.5773 172.158 89.9968 174.931C91.0322 176.951 86.6568 178.822 84.4023 172.726C83.3836 169.887 83.4504 169.286 82.7323 168.802C81.7189 167.864 80.4042 167.32 79.0249 167.265C78.4093 167.306 77.798 167.137 77.2913 166.785C76.7846 166.433 76.4125 165.919 76.236 165.328C75.8551 164.059 75.8091 162.713 76.1024 161.42C76.1024 158.615 72.6121 160.418 68.6208 157.128C67.218 155.976 68.0029 154.874 68.0864 153.471C68.1699 152.068 68.0864 152.169 66.6335 148.144C66.3094 147.51 65.813 146.982 65.2013 146.618C64.5897 146.255 63.8878 146.071 63.1766 146.09C57.5988 147.877 58.6175 148.712 59.6028 152.77C59.9201 154.139 58.5173 155.575 57.1145 154.206C56.3211 153.154 55.328 152.269 54.192 151.601C49.5828 149.313 49.182 159.082 52.2214 160.752C56.9642 163.341 52.3717 165.762 56.1459 168.334C58.1332 169.67 59.9368 168.484 61.5567 166.748C63.1766 165.011 66.5667 164.71 66.9675 166.213C67.8526 169.653 67.4184 169.837 68.4037 170.706C69.389 171.574 70.0737 171.34 70.6415 171.524C71.9608 172.042 72.6622 170.989 73.8813 170.622C77.6388 169.503 75.067 176.033 78.4738 177.536C80.411 178.404 81.0957 176.834 82.3649 176.818C85.5713 176.818 84.4524 178.738 87.3749 179.673C90.7149 180.742 90.4477 182.646 91.3662 182.696C92.0008 182.696 100.551 183.047 101.035 182.696C106.279 178.054 103.056 175.899 110.554 177.235C111.898 177.364 113.245 177.021 114.363 176.265C115.481 175.51 116.302 174.388 116.683 173.094C117.869 166.748 122.595 171.34 126.119 169.754C127.888 168.841 129.291 167.35 130.093 165.529L130.027 165.579ZM108.801 258.013C108.801 256.944 108.801 256.944 107.933 256.827C107.064 256.71 107.181 256.827 106.964 257.429C106.531 258.397 106.461 259.489 106.768 260.504C107.075 261.519 107.737 262.39 108.634 262.956C108.428 261.31 108.484 259.642 108.801 258.013Z" fill="#000001"/>
<path d="M244.923 146.957C248.697 149.462 236.907 154.071 235.17 119.937C235.003 116.597 234.335 115.094 234.452 114.409C234.669 113.223 235.588 113.574 235.855 114.108C237.759 117.983 236.54 141.363 244.923 146.957Z" fill="#000001"/>
<path d="M233.884 161.988C233.884 164.076 233.567 168.184 232.515 169.837C231.463 171.491 232.097 172.259 231.947 174.847C231.737 179.607 231.815 184.375 232.181 189.126C232.181 189.527 233.951 196.457 227.722 197.476C227.588 197.476 217.702 198.211 216.499 198.01C208.016 196.708 207.866 198.511 203.507 197.325C203.031 197.231 202.579 197.039 202.181 196.761C201.783 196.483 201.447 196.126 201.195 195.711C200.942 195.297 200.778 194.835 200.713 194.353C200.648 193.872 200.684 193.383 200.818 192.917C201.302 190.261 201.102 189.877 200.935 177.235C200.935 175.732 200.017 174.58 200.735 171.006C200.935 170.054 199.298 169.971 199.165 167.082C198.63 156.11 200.568 157.513 208.417 157.262C234.402 156.594 233.801 156.711 233.884 161.988ZM231.179 168.485C231.961 166.056 232.251 163.495 232.03 160.953C231.847 158.698 231.329 158.682 217.652 159.049C199.499 159.533 200.735 158.047 201.069 164.844C201.069 164.844 200 168.819 203.039 169.537C205.177 170.038 208.049 169.303 212.525 170.004C216.6 170.672 216.015 172.275 216.984 171.574C218.4 170.556 220.047 169.908 221.777 169.687C227.121 168.668 230.461 170.589 231.179 168.535V168.485ZM228.073 195.388C231.413 194.47 230.611 190.779 230.394 187.539C230.04 182.084 230.04 176.612 230.394 171.157C227.495 171.106 224.596 171.29 221.727 171.708C220.32 171.946 218.991 172.519 217.852 173.378C216.733 174.229 215.581 173.728 214.512 172.81C212.842 171.34 209.018 171.424 206.797 171.624C205.687 171.742 204.567 171.742 203.457 171.624C202.338 171.474 202.104 172.042 202.171 173.444C202.171 173.611 203.34 187.406 202.405 193.484C201.97 196.223 205.461 196.04 208.033 195.923C210.818 195.684 213.623 195.791 216.383 196.24C220.3 196.486 224.232 196.199 228.073 195.388Z" fill="#000001"/>
<path d="M221.861 192.883C222.028 194.303 220.458 194.236 220.191 193.201C219.898 191.548 219.775 189.869 219.824 188.191C219.824 186.704 219.824 174.213 220.609 174.229C222.696 174.213 220.792 183.949 221.861 192.883Z" fill="#000001"/>
<path d="M218.186 167.482C218.208 167.844 218.09 168.2 217.855 168.476C217.621 168.752 217.289 168.927 216.928 168.964C216.568 169 216.207 168.896 215.922 168.673C215.637 168.45 215.449 168.125 215.397 167.766C215.08 165.529 218.37 165.562 218.186 167.482Z" fill="#000001"/>
<path d="M212.876 72.4913C214.43 67.2141 217.886 71.8567 216.801 72.2909C215.983 72.5915 215.131 70.4372 214.43 72.3744C213.834 73.7042 213.659 75.1842 213.929 76.6162C214.296 77.4679 216.116 77.1506 216.5 78.8874C216.601 79.3477 216.542 79.8285 216.332 80.2506C216.123 80.6726 215.776 81.0106 215.348 81.2087C214.747 81.4926 213.895 81.7765 213.778 81.0751C213.611 80.0898 215.298 80.4238 215.248 79.3049C215.198 78.186 210.789 79.5387 212.876 72.4913Z" fill="#000001"/>
<path d="M214.228 35.853C215.33 36.9051 212.558 38.2745 211.923 39.6105C211.623 40.2785 210.387 40.4455 210.387 38.9592C210.387 38.9592 210.387 38.5918 210.604 38.4749C212.09 37.4729 213.343 35.0681 214.228 35.853Z" fill="#000001"/>
<path d="M213.242 56.7775C213.26 56.9074 213.25 57.0395 213.212 57.1651C213.174 57.2906 213.11 57.4066 213.024 57.5053C212.938 57.604 212.832 57.6831 212.712 57.7374C212.593 57.7916 212.463 57.8196 212.332 57.8196C212.201 57.8196 212.072 57.7916 211.952 57.7374C211.833 57.6831 211.727 57.604 211.641 57.5053C211.554 57.4066 211.49 57.2906 211.453 57.1651C211.415 57.0395 211.405 56.9074 211.422 56.7775C211.456 55.4582 213.209 55.3246 213.242 56.7775Z" fill="#000001"/>
<path d="M212.458 62.2545C212.233 62.2685 212.011 62.1961 211.837 62.0522C211.664 61.9082 211.552 61.7036 211.524 61.4799C211.497 61.2562 211.555 61.0304 211.688 60.8485C211.822 60.6666 212.019 60.5423 212.241 60.501C212.465 60.4871 212.687 60.5594 212.861 60.7034C213.034 60.8473 213.146 61.052 213.174 61.2757C213.201 61.4993 213.143 61.7252 213.01 61.907C212.877 62.0889 212.679 62.2132 212.458 62.2545Z" fill="#000001"/>
<path d="M211.023 175.899C211.023 190.362 211.657 188.174 211.34 193.368C211.34 194.37 209.92 194.403 209.87 193.518C209.32 187.338 209.214 181.126 209.553 174.931C209.553 174.396 209.887 173.996 210.421 174.079C210.956 174.163 211.006 175.215 211.023 175.899Z" fill="#000001"/>
<path d="M209.168 64.009C209.149 63.8979 209.153 63.7842 209.179 63.6746C209.205 63.5651 209.253 63.4619 209.32 63.3715C209.387 63.281 209.472 63.205 209.569 63.1481C209.666 63.0912 209.774 63.0546 209.886 63.0404C209.997 63.0238 210.11 63.0292 210.218 63.0564C210.327 63.0835 210.429 63.1318 210.519 63.1985C210.609 63.2652 210.685 63.349 210.743 63.4451C210.8 63.5412 210.838 63.6477 210.855 63.7585C210.897 63.8792 210.912 64.0079 210.899 64.1352C210.886 64.2626 210.845 64.3855 210.779 64.4951C210.713 64.6048 210.624 64.6984 210.517 64.7694C210.411 64.8404 210.29 64.887 210.163 64.9058C210.036 64.9246 209.907 64.9152 209.785 64.8782C209.662 64.8412 209.549 64.7776 209.454 64.6919C209.359 64.6062 209.284 64.5006 209.235 64.3825C209.185 64.2644 209.162 64.1369 209.168 64.009Z" fill="#000001"/>
<path d="M210.253 54.2581C210.253 55.6442 208.216 55.711 208.299 54.2581C208.33 54.021 208.446 53.8033 208.626 53.6455C208.806 53.4878 209.037 53.4008 209.276 53.4008C209.515 53.4008 209.746 53.4878 209.926 53.6455C210.106 53.8033 210.222 54.021 210.253 54.2581Z" fill="#000001"/>
<path d="M209.453 58.1988C209.583 58.1812 209.715 58.1916 209.84 58.2292C209.966 58.2669 210.082 58.331 210.181 58.4172C210.279 58.5034 210.359 58.6098 210.413 58.7291C210.467 58.8484 210.495 58.9779 210.495 59.109C210.495 59.24 210.467 59.3696 210.413 59.4889C210.359 59.6082 210.279 59.7146 210.181 59.8008C210.082 59.887 209.966 59.9511 209.84 59.9887C209.715 60.0264 209.583 60.0368 209.453 60.0191C209.323 60.0368 209.191 60.0264 209.065 59.9887C208.94 59.9511 208.824 59.887 208.725 59.8008C208.626 59.7146 208.547 59.6082 208.493 59.4889C208.439 59.3696 208.411 59.24 208.411 59.109C208.411 58.9779 208.439 58.8484 208.493 58.7291C208.547 58.6098 208.626 58.5034 208.725 58.4172C208.824 58.331 208.94 58.2669 209.065 58.2292C209.191 58.1916 209.323 58.1812 209.453 58.1988Z" fill="#000001"/>
<path d="M207.08 66.7974C207.132 66.6159 207.241 66.4563 207.392 66.3426C207.543 66.229 207.726 66.1675 207.915 66.1675C208.104 66.1675 208.287 66.229 208.438 66.3426C208.589 66.4563 208.698 66.6159 208.75 66.7974C208.787 66.9266 208.793 67.0626 208.769 67.1948C208.744 67.3269 208.689 67.4515 208.608 67.5588C208.527 67.6661 208.423 67.7532 208.302 67.8131C208.182 67.8731 208.049 67.9043 207.915 67.9043C207.781 67.9043 207.648 67.8731 207.528 67.8131C207.407 67.7532 207.303 67.6661 207.222 67.5588C207.141 67.4515 207.086 67.3269 207.061 67.1948C207.037 67.0626 207.043 66.9266 207.08 66.7974Z" fill="#000001"/>
<path d="M205.878 61.6883C205.885 61.5029 205.947 61.3236 206.056 61.1735C206.165 61.0233 206.316 60.909 206.49 60.8451C206.665 60.7811 206.854 60.7705 207.034 60.8145C207.214 60.8585 207.378 60.9552 207.503 61.0922C207.628 61.2292 207.71 61.4004 207.737 61.5839C207.765 61.7674 207.737 61.955 207.658 62.1228C207.579 62.2906 207.451 62.431 207.292 62.5261C207.132 62.6212 206.948 62.6668 206.763 62.6569C206.518 62.644 206.288 62.5351 206.122 62.3539C205.956 62.1727 205.869 61.9336 205.878 61.6883Z" fill="#000001"/>
<path d="M206.345 132.475C206.345 133.644 204.675 134.145 204.191 132.976C203.54 131.039 205.727 129.753 206.345 132.475Z" fill="#000001"/>
<path d="M205.911 56.0429C207.314 56.0429 207.03 58.0636 205.911 58.0469C205.646 58.0469 205.391 57.9413 205.203 57.7534C205.015 57.5655 204.909 57.3107 204.909 57.0449C204.909 56.7792 205.015 56.5243 205.203 56.3364C205.391 56.1485 205.646 56.0429 205.911 56.0429Z" fill="#000001"/>
<path d="M203.74 53.1534C203.74 52.8965 203.842 52.6502 204.024 52.4685C204.206 52.2869 204.452 52.1848 204.709 52.1848C204.966 52.1848 205.212 52.2869 205.394 52.4685C205.576 52.6502 205.678 52.8965 205.678 53.1534C205.678 53.4103 205.576 53.6567 205.394 53.8383C205.212 54.02 204.966 54.122 204.709 54.122C204.452 54.122 204.206 54.02 204.024 53.8383C203.842 53.6567 203.74 53.4103 203.74 53.1534Z" fill="#000001"/>
<path d="M198.965 62.0236C200.485 62.8085 199.199 64.0443 198.397 63.9775C197.596 63.9107 195.341 62.3075 191.918 61.0884C191.092 60.7727 190.181 60.7569 189.345 61.0438C188.509 61.3307 187.8 61.902 187.342 62.6582C186.991 63.6936 185.037 63.8272 185.438 62.4745C185.846 61.4205 186.575 60.5213 187.522 59.904C188.469 59.2867 189.586 58.9825 190.715 59.0343C193.536 59.8241 196.293 60.8233 198.965 62.0236Z" fill="#000001"/>
<path d="M195.607 76.367C195.991 77.5193 194.906 79.707 192.033 79.5734C190.547 79.4732 190.764 78.0537 191.298 78.1038C191.982 78.2146 192.683 78.1515 193.336 77.9201C193.587 77.8144 193.803 77.6384 193.957 77.4133C194.111 77.1882 194.197 76.9236 194.204 76.6509C194.304 75.2481 195.39 75.6656 195.607 76.367Z" fill="#000001"/>
<path d="M194.387 290.443C194.554 293.332 190.914 292.698 191.849 290.042C192.45 288.339 194.304 289.074 194.387 290.443Z" fill="#000001"/>
<path d="M193.586 96.473C194.054 97.2245 192.05 100.247 190.347 99.9466C189.745 99.7796 188.81 99.7295 189.061 98.811C189.093 98.6742 189.177 98.5555 189.296 98.4805C189.415 98.4055 189.558 98.3802 189.695 98.4102C192.484 98.7442 192.301 94.4189 193.586 96.473Z" fill="#000001"/>
<path d="M192.619 75.5168C192.668 75.7492 192.636 75.9914 192.527 76.2028C192.419 76.4142 192.241 76.5819 192.024 76.6778C191.807 76.7737 191.563 76.792 191.334 76.7296C191.105 76.6672 190.904 76.5279 190.765 76.3351C190.047 75.2997 190.348 74.2476 190.882 74.0305C191.416 73.8134 192.569 74.2142 192.619 75.5168Z" fill="#000001"/>
<path d="M192.318 204.856C192.329 205.022 192.307 205.19 192.253 205.348C192.2 205.506 192.115 205.652 192.005 205.778C191.895 205.903 191.761 206.006 191.612 206.08C191.462 206.154 191.299 206.197 191.132 206.208C190.966 206.219 190.798 206.197 190.64 206.144C190.482 206.09 190.336 206.006 190.21 205.896C190.085 205.786 189.982 205.652 189.908 205.502C189.834 205.352 189.791 205.189 189.78 205.023C189.769 204.856 189.791 204.689 189.844 204.531C189.898 204.373 189.982 204.226 190.092 204.101C190.202 203.975 190.336 203.873 190.486 203.799C190.636 203.725 190.799 203.681 190.965 203.67C191.132 203.659 191.299 203.681 191.457 203.735C191.616 203.788 191.762 203.873 191.887 203.983C192.013 204.093 192.116 204.227 192.189 204.376C192.263 204.526 192.307 204.689 192.318 204.856Z" fill="#000001"/>
<path d="M189.729 221.757C190.163 221.139 192.15 221.574 191.866 223.127C191.365 225.765 187.975 224.312 189.729 221.757Z" fill="#000001"/>
<path d="M189.695 269.836C190.072 269.822 190.44 269.955 190.721 270.208C191.001 270.46 191.172 270.812 191.198 271.188C191.209 271.376 191.183 271.564 191.121 271.742C191.059 271.919 190.962 272.083 190.836 272.223C190.71 272.363 190.558 272.476 190.388 272.557C190.218 272.637 190.033 272.683 189.845 272.691C187.691 272.808 188.459 269.819 189.695 269.836Z" fill="#000001"/>
<path d="M188.477 253.087C189.479 253.254 189.88 253.605 189.813 254.39C189.813 255.475 189.262 256.06 188.477 256.06C187.041 255.943 186.857 253.538 188.477 253.087Z" fill="#000001"/>
<path d="M188.428 185.366C189.38 185.467 189.78 185.867 189.73 186.752C189.613 188.873 186.991 188.556 187.125 186.836C187.225 185.583 187.776 185.366 188.428 185.366Z" fill="#000001"/>
<path d="M189.31 95.5213C190.045 95.8553 189.578 97.0243 188.91 96.9742C177.336 96.0724 176.969 98.2267 175.049 98.0096C173.729 97.8593 174.932 95.872 182.096 94.8533C185.202 94.9368 187.039 94.5527 189.31 95.5213Z" fill="#000001"/>
<path d="M186.573 168.75C186.586 168.382 186.745 168.035 187.015 167.785C187.284 167.534 187.642 167.401 188.009 167.414C188.377 167.427 188.724 167.586 188.975 167.855C189.225 168.125 189.359 168.483 189.345 168.85C189.332 169.218 189.173 169.565 188.904 169.816C188.635 170.066 188.277 170.2 187.909 170.186C187.542 170.173 187.194 170.014 186.944 169.745C186.693 169.476 186.56 169.118 186.573 168.75Z" fill="#000001"/>
<path d="M188.376 151.35C188.493 153.371 185.804 153.655 185.738 151.801C185.671 149.947 188.293 150.014 188.376 151.35Z" fill="#000001"/>
<path d="M171.527 57.9316C176.27 57.9316 176.287 61.2716 173.197 60.1193C168.02 58.1654 164.547 65.3464 162.576 64.9456C162.259 64.9456 161.791 64.7953 161.808 64.3945C161.839 64.0417 161.993 63.7109 162.242 63.4593C166.551 59.2843 168.672 57.965 171.527 57.9316Z" fill="#000001"/>
<path d="M170.809 79.7393C171.777 79.7393 171.427 80.8248 171.176 81.0252C170.792 81.2691 170.356 81.4189 169.904 81.4624C169.451 81.5059 168.994 81.442 168.571 81.2757C166.099 80.5409 167.135 77.7687 168.304 79.2216C169.239 80.3572 170.191 79.8061 170.809 79.7393Z" fill="#000001"/>
<path d="M170.674 76.2169C171.275 77.2356 170.925 78.1207 170.29 78.3378C169.656 78.5549 169.054 77.8702 168.871 77.2189C168.503 75.8996 169.973 75.0145 170.674 76.2169Z" fill="#000001"/>
<path d="M169.673 133.449C170.358 135.503 167.569 135.803 167.569 133.766C167.569 133.014 167.769 132.68 168.304 132.597C169.105 132.48 169.423 132.68 169.673 133.449Z" fill="#000001"/>
<path d="M116.217 217.985C115.699 229.041 101.855 227.905 100.218 217.634C98.0975 204.425 115.716 204.325 116.217 217.985ZM105.796 222.995C109.487 225.517 114.246 223.162 114.363 217.751C113.562 210.053 106.665 208.082 103.775 210.821C100.886 213.56 100.853 219.572 105.796 222.945V222.995Z" fill="#000001"/>
</svg>
